%TF.GenerationSoftware,KiCad,Pcbnew,8.0.6-8.0.6-0~ubuntu24.04.1*%
%TF.CreationDate,2024-10-31T19:49:44+00:00*%
%TF.ProjectId,Windtunnel_Schematic,57696e64-7475-46e6-9e65-6c5f53636865,rev?*%
%TF.SameCoordinates,Original*%
%TF.FileFunction,Drillmap*%
%TF.FilePolarity,Positive*%
%FSLAX45Y45*%
G04 Gerber Fmt 4.5, Leading zero omitted, Abs format (unit mm)*
G04 Created by KiCad (PCBNEW 8.0.6-8.0.6-0~ubuntu24.04.1) date 2024-10-31 19:49:44*
%MOMM*%
%LPD*%
G01*
G04 APERTURE LIST*
%ADD10C,0.200000*%
%ADD11C,0.100000*%
%ADD12C,0.130000*%
G04 APERTURE END LIST*
D10*
X5080000Y-8382000D02*
X14224000Y-8382000D01*
X14224000Y-15494000D01*
X5080000Y-15494000D01*
X5080000Y-8382000D01*
D11*
X8088000Y-10882000D02*
X8168000Y-10962000D01*
X8168000Y-10882000D02*
X8088000Y-10962000D01*
X8138800Y-12609200D02*
X8218800Y-12689200D01*
X8218800Y-12609200D02*
X8138800Y-12689200D01*
X9180200Y-12609200D02*
X9260200Y-12689200D01*
X9260200Y-12609200D02*
X9180200Y-12689200D01*
X9231000Y-10628000D02*
X9311000Y-10708000D01*
X9311000Y-10628000D02*
X9231000Y-10708000D01*
X9231000Y-10882000D02*
X9311000Y-10962000D01*
X9311000Y-10882000D02*
X9231000Y-10962000D01*
X10120000Y-8596000D02*
X10200000Y-8676000D01*
X10200000Y-8596000D02*
X10120000Y-8676000D01*
X10120000Y-9358000D02*
X10200000Y-9438000D01*
X10200000Y-9358000D02*
X10120000Y-9438000D01*
X10120000Y-10374000D02*
X10200000Y-10454000D01*
X10200000Y-10374000D02*
X10120000Y-10454000D01*
X11390000Y-10120000D02*
X11470000Y-10200000D01*
X11470000Y-10120000D02*
X11390000Y-10200000D01*
X12660000Y-10120000D02*
X12740000Y-10200000D01*
X12740000Y-10120000D02*
X12660000Y-10200000D01*
X7224500Y-9144000D02*
G75*
G02*
X7143500Y-9144000I-40500J0D01*
G01*
X7143500Y-9144000D02*
G75*
G02*
X7224500Y-9144000I40500J0D01*
G01*
X7224500Y-9398000D02*
G75*
G02*
X7143500Y-9398000I-40500J0D01*
G01*
X7143500Y-9398000D02*
G75*
G02*
X7224500Y-9398000I40500J0D01*
G01*
X7224500Y-9652000D02*
G75*
G02*
X7143500Y-9652000I-40500J0D01*
G01*
X7143500Y-9652000D02*
G75*
G02*
X7224500Y-9652000I40500J0D01*
G01*
X7224500Y-9906000D02*
G75*
G02*
X7143500Y-9906000I-40500J0D01*
G01*
X7143500Y-9906000D02*
G75*
G02*
X7224500Y-9906000I40500J0D01*
G01*
X7224500Y-10160000D02*
G75*
G02*
X7143500Y-10160000I-40500J0D01*
G01*
X7143500Y-10160000D02*
G75*
G02*
X7224500Y-10160000I40500J0D01*
G01*
X7224500Y-10414000D02*
G75*
G02*
X7143500Y-10414000I-40500J0D01*
G01*
X7143500Y-10414000D02*
G75*
G02*
X7224500Y-10414000I40500J0D01*
G01*
X7224500Y-12954000D02*
G75*
G02*
X7143500Y-12954000I-40500J0D01*
G01*
X7143500Y-12954000D02*
G75*
G02*
X7224500Y-12954000I40500J0D01*
G01*
X7224500Y-13208000D02*
G75*
G02*
X7143500Y-13208000I-40500J0D01*
G01*
X7143500Y-13208000D02*
G75*
G02*
X7224500Y-13208000I40500J0D01*
G01*
X7224500Y-13462000D02*
G75*
G02*
X7143500Y-13462000I-40500J0D01*
G01*
X7143500Y-13462000D02*
G75*
G02*
X7224500Y-13462000I40500J0D01*
G01*
X7224500Y-13716000D02*
G75*
G02*
X7143500Y-13716000I-40500J0D01*
G01*
X7143500Y-13716000D02*
G75*
G02*
X7224500Y-13716000I40500J0D01*
G01*
X7224500Y-13970000D02*
G75*
G02*
X7143500Y-13970000I-40500J0D01*
G01*
X7143500Y-13970000D02*
G75*
G02*
X7224500Y-13970000I40500J0D01*
G01*
X7224500Y-14224000D02*
G75*
G02*
X7143500Y-14224000I-40500J0D01*
G01*
X7143500Y-14224000D02*
G75*
G02*
X7224500Y-14224000I40500J0D01*
G01*
X9256500Y-9398000D02*
G75*
G02*
X9175500Y-9398000I-40500J0D01*
G01*
X9175500Y-9398000D02*
G75*
G02*
X9256500Y-9398000I40500J0D01*
G01*
X9256500Y-9652000D02*
G75*
G02*
X9175500Y-9652000I-40500J0D01*
G01*
X9175500Y-9652000D02*
G75*
G02*
X9256500Y-9652000I40500J0D01*
G01*
X9256500Y-9906000D02*
G75*
G02*
X9175500Y-9906000I-40500J0D01*
G01*
X9175500Y-9906000D02*
G75*
G02*
X9256500Y-9906000I40500J0D01*
G01*
X9256500Y-10160000D02*
G75*
G02*
X9175500Y-10160000I-40500J0D01*
G01*
X9175500Y-10160000D02*
G75*
G02*
X9256500Y-10160000I40500J0D01*
G01*
X9256500Y-13208000D02*
G75*
G02*
X9175500Y-13208000I-40500J0D01*
G01*
X9175500Y-13208000D02*
G75*
G02*
X9256500Y-13208000I40500J0D01*
G01*
X9256500Y-13462000D02*
G75*
G02*
X9175500Y-13462000I-40500J0D01*
G01*
X9175500Y-13462000D02*
G75*
G02*
X9256500Y-13462000I40500J0D01*
G01*
X9256500Y-13716000D02*
G75*
G02*
X9175500Y-13716000I-40500J0D01*
G01*
X9175500Y-13716000D02*
G75*
G02*
X9256500Y-13716000I40500J0D01*
G01*
X9256500Y-13970000D02*
G75*
G02*
X9175500Y-13970000I-40500J0D01*
G01*
X9175500Y-13970000D02*
G75*
G02*
X9256500Y-13970000I40500J0D01*
G01*
X10160000Y-10999000D02*
X10160000Y-11099000D01*
X10110000Y-11049000D02*
X10210000Y-11049000D01*
X10160000Y-11253000D02*
X10160000Y-11353000D01*
X10110000Y-11303000D02*
X10210000Y-11303000D01*
X10160000Y-11507000D02*
X10160000Y-11607000D01*
X10110000Y-11557000D02*
X10210000Y-11557000D01*
X10160000Y-11761000D02*
X10160000Y-11861000D01*
X10110000Y-11811000D02*
X10210000Y-11811000D01*
X10160000Y-12015000D02*
X10160000Y-12115000D01*
X10110000Y-12065000D02*
X10210000Y-12065000D01*
X10160000Y-12269000D02*
X10160000Y-12369000D01*
X10110000Y-12319000D02*
X10210000Y-12319000D01*
X10160000Y-12523000D02*
X10160000Y-12623000D01*
X10110000Y-12573000D02*
X10210000Y-12573000D01*
X10160000Y-12777000D02*
X10160000Y-12877000D01*
X10110000Y-12827000D02*
X10210000Y-12827000D01*
X10160000Y-13031000D02*
X10160000Y-13131000D01*
X10110000Y-13081000D02*
X10210000Y-13081000D01*
X10160000Y-13285000D02*
X10160000Y-13385000D01*
X10110000Y-13335000D02*
X10210000Y-13335000D01*
X10160000Y-13539000D02*
X10160000Y-13639000D01*
X10110000Y-13589000D02*
X10210000Y-13589000D01*
X10160000Y-13793000D02*
X10160000Y-13893000D01*
X10110000Y-13843000D02*
X10210000Y-13843000D01*
X10160000Y-14047000D02*
X10160000Y-14147000D01*
X10110000Y-14097000D02*
X10210000Y-14097000D01*
X10160000Y-14301000D02*
X10160000Y-14401000D01*
X10110000Y-14351000D02*
X10210000Y-14351000D01*
X10160000Y-14555000D02*
X10160000Y-14655000D01*
X10110000Y-14605000D02*
X10210000Y-14605000D01*
X11684000Y-10999000D02*
X11684000Y-11099000D01*
X11634000Y-11049000D02*
X11734000Y-11049000D01*
X11684000Y-11253000D02*
X11684000Y-11353000D01*
X11634000Y-11303000D02*
X11734000Y-11303000D01*
X11684000Y-11507000D02*
X11684000Y-11607000D01*
X11634000Y-11557000D02*
X11734000Y-11557000D01*
X11684000Y-11761000D02*
X11684000Y-11861000D01*
X11634000Y-11811000D02*
X11734000Y-11811000D01*
X11684000Y-12015000D02*
X11684000Y-12115000D01*
X11634000Y-12065000D02*
X11734000Y-12065000D01*
X11684000Y-12269000D02*
X11684000Y-12369000D01*
X11634000Y-12319000D02*
X11734000Y-12319000D01*
X11684000Y-12523000D02*
X11684000Y-12623000D01*
X11634000Y-12573000D02*
X11734000Y-12573000D01*
X11684000Y-12777000D02*
X11684000Y-12877000D01*
X11634000Y-12827000D02*
X11734000Y-12827000D01*
X11684000Y-13031000D02*
X11684000Y-13131000D01*
X11634000Y-13081000D02*
X11734000Y-13081000D01*
X11684000Y-13285000D02*
X11684000Y-13385000D01*
X11634000Y-13335000D02*
X11734000Y-13335000D01*
X11684000Y-13539000D02*
X11684000Y-13639000D01*
X11634000Y-13589000D02*
X11734000Y-13589000D01*
X11684000Y-13793000D02*
X11684000Y-13893000D01*
X11634000Y-13843000D02*
X11734000Y-13843000D01*
X11684000Y-14047000D02*
X11684000Y-14147000D01*
X11634000Y-14097000D02*
X11734000Y-14097000D01*
X11684000Y-14301000D02*
X11684000Y-14401000D01*
X11634000Y-14351000D02*
X11734000Y-14351000D01*
X11684000Y-14555000D02*
X11684000Y-14655000D01*
X11634000Y-14605000D02*
X11734000Y-14605000D01*
X12700000Y-12396000D02*
X12700000Y-12496000D01*
X12650000Y-12446000D02*
X12750000Y-12446000D01*
X12700000Y-12650000D02*
X12700000Y-12750000D01*
X12650000Y-12700000D02*
X12750000Y-12700000D01*
X12700000Y-12904000D02*
X12700000Y-13004000D01*
X12650000Y-12954000D02*
X12750000Y-12954000D01*
X12700000Y-13158000D02*
X12700000Y-13258000D01*
X12650000Y-13208000D02*
X12750000Y-13208000D01*
X12700000Y-13412000D02*
X12700000Y-13512000D01*
X12650000Y-13462000D02*
X12750000Y-13462000D01*
X12700000Y-13666000D02*
X12700000Y-13766000D01*
X12650000Y-13716000D02*
X12750000Y-13716000D01*
X12700000Y-13920000D02*
X12700000Y-14020000D01*
X12650000Y-13970000D02*
X12750000Y-13970000D01*
X12700000Y-14174000D02*
X12700000Y-14274000D01*
X12650000Y-14224000D02*
X12750000Y-14224000D01*
X12700000Y-14428000D02*
X12700000Y-14528000D01*
X12650000Y-14478000D02*
X12750000Y-14478000D01*
D12*
X5857462Y-12511962D02*
X5857462Y-12420038D01*
X5765538Y-12420038D01*
X5765538Y-12511962D01*
X5857462Y-12511962D01*
X5857462Y-13011962D02*
X5857462Y-12920038D01*
X5765538Y-12920038D01*
X5765538Y-13011962D01*
X5857462Y-13011962D01*
X5857462Y-13511962D02*
X5857462Y-13420038D01*
X5765538Y-13420038D01*
X5765538Y-13511962D01*
X5857462Y-13511962D01*
X5857462Y-14011962D02*
X5857462Y-13920038D01*
X5765538Y-13920038D01*
X5765538Y-14011962D01*
X5857462Y-14011962D01*
X5857462Y-14511962D02*
X5857462Y-14420038D01*
X5765538Y-14420038D01*
X5765538Y-14511962D01*
X5857462Y-14511962D01*
X5857462Y-15011962D02*
X5857462Y-14920038D01*
X5765538Y-14920038D01*
X5765538Y-15011962D01*
X5857462Y-15011962D01*
X5887962Y-8959962D02*
X5887962Y-8868038D01*
X5796038Y-8868038D01*
X5796038Y-8959962D01*
X5887962Y-8959962D01*
X5887962Y-9459962D02*
X5887962Y-9368038D01*
X5796038Y-9368038D01*
X5796038Y-9459962D01*
X5887962Y-9459962D01*
X5887962Y-9959962D02*
X5887962Y-9868038D01*
X5796038Y-9868038D01*
X5796038Y-9959962D01*
X5887962Y-9959962D01*
X5887962Y-10459962D02*
X5887962Y-10368038D01*
X5796038Y-10368038D01*
X5796038Y-10459962D01*
X5887962Y-10459962D01*
X5887962Y-10959962D02*
X5887962Y-10868038D01*
X5796038Y-10868038D01*
X5796038Y-10959962D01*
X5887962Y-10959962D01*
X5887962Y-11459962D02*
X5887962Y-11368038D01*
X5796038Y-11368038D01*
X5796038Y-11459962D01*
X5887962Y-11459962D01*
D10*
X5330777Y-15815484D02*
X5330777Y-15615484D01*
X5330777Y-15615484D02*
X5378396Y-15615484D01*
X5378396Y-15615484D02*
X5406967Y-15625008D01*
X5406967Y-15625008D02*
X5426015Y-15644055D01*
X5426015Y-15644055D02*
X5435539Y-15663103D01*
X5435539Y-15663103D02*
X5445063Y-15701198D01*
X5445063Y-15701198D02*
X5445063Y-15729769D01*
X5445063Y-15729769D02*
X5435539Y-15767865D01*
X5435539Y-15767865D02*
X5426015Y-15786912D01*
X5426015Y-15786912D02*
X5406967Y-15805960D01*
X5406967Y-15805960D02*
X5378396Y-15815484D01*
X5378396Y-15815484D02*
X5330777Y-15815484D01*
X5530777Y-15815484D02*
X5530777Y-15682150D01*
X5530777Y-15720246D02*
X5540301Y-15701198D01*
X5540301Y-15701198D02*
X5549824Y-15691674D01*
X5549824Y-15691674D02*
X5568872Y-15682150D01*
X5568872Y-15682150D02*
X5587920Y-15682150D01*
X5654586Y-15815484D02*
X5654586Y-15682150D01*
X5654586Y-15615484D02*
X5645062Y-15625008D01*
X5645062Y-15625008D02*
X5654586Y-15634531D01*
X5654586Y-15634531D02*
X5664110Y-15625008D01*
X5664110Y-15625008D02*
X5654586Y-15615484D01*
X5654586Y-15615484D02*
X5654586Y-15634531D01*
X5778396Y-15815484D02*
X5759348Y-15805960D01*
X5759348Y-15805960D02*
X5749824Y-15786912D01*
X5749824Y-15786912D02*
X5749824Y-15615484D01*
X5883158Y-15815484D02*
X5864110Y-15805960D01*
X5864110Y-15805960D02*
X5854586Y-15786912D01*
X5854586Y-15786912D02*
X5854586Y-15615484D01*
X6111729Y-15815484D02*
X6111729Y-15615484D01*
X6111729Y-15615484D02*
X6178396Y-15758341D01*
X6178396Y-15758341D02*
X6245062Y-15615484D01*
X6245062Y-15615484D02*
X6245062Y-15815484D01*
X6426015Y-15815484D02*
X6426015Y-15710722D01*
X6426015Y-15710722D02*
X6416491Y-15691674D01*
X6416491Y-15691674D02*
X6397443Y-15682150D01*
X6397443Y-15682150D02*
X6359348Y-15682150D01*
X6359348Y-15682150D02*
X6340301Y-15691674D01*
X6426015Y-15805960D02*
X6406967Y-15815484D01*
X6406967Y-15815484D02*
X6359348Y-15815484D01*
X6359348Y-15815484D02*
X6340301Y-15805960D01*
X6340301Y-15805960D02*
X6330777Y-15786912D01*
X6330777Y-15786912D02*
X6330777Y-15767865D01*
X6330777Y-15767865D02*
X6340301Y-15748817D01*
X6340301Y-15748817D02*
X6359348Y-15739293D01*
X6359348Y-15739293D02*
X6406967Y-15739293D01*
X6406967Y-15739293D02*
X6426015Y-15729769D01*
X6521253Y-15682150D02*
X6521253Y-15882150D01*
X6521253Y-15691674D02*
X6540301Y-15682150D01*
X6540301Y-15682150D02*
X6578396Y-15682150D01*
X6578396Y-15682150D02*
X6597443Y-15691674D01*
X6597443Y-15691674D02*
X6606967Y-15701198D01*
X6606967Y-15701198D02*
X6616491Y-15720246D01*
X6616491Y-15720246D02*
X6616491Y-15777388D01*
X6616491Y-15777388D02*
X6606967Y-15796436D01*
X6606967Y-15796436D02*
X6597443Y-15805960D01*
X6597443Y-15805960D02*
X6578396Y-15815484D01*
X6578396Y-15815484D02*
X6540301Y-15815484D01*
X6540301Y-15815484D02*
X6521253Y-15805960D01*
X6702205Y-15796436D02*
X6711729Y-15805960D01*
X6711729Y-15805960D02*
X6702205Y-15815484D01*
X6702205Y-15815484D02*
X6692682Y-15805960D01*
X6692682Y-15805960D02*
X6702205Y-15796436D01*
X6702205Y-15796436D02*
X6702205Y-15815484D01*
X6702205Y-15691674D02*
X6711729Y-15701198D01*
X6711729Y-15701198D02*
X6702205Y-15710722D01*
X6702205Y-15710722D02*
X6692682Y-15701198D01*
X6692682Y-15701198D02*
X6702205Y-15691674D01*
X6702205Y-15691674D02*
X6702205Y-15710722D01*
D11*
X4990000Y-16104000D02*
X5070000Y-16184000D01*
X5070000Y-16104000D02*
X4990000Y-16184000D01*
D10*
X5368872Y-16035484D02*
X5387920Y-16035484D01*
X5387920Y-16035484D02*
X5406967Y-16045008D01*
X5406967Y-16045008D02*
X5416491Y-16054531D01*
X5416491Y-16054531D02*
X5426015Y-16073579D01*
X5426015Y-16073579D02*
X5435539Y-16111674D01*
X5435539Y-16111674D02*
X5435539Y-16159293D01*
X5435539Y-16159293D02*
X5426015Y-16197388D01*
X5426015Y-16197388D02*
X5416491Y-16216436D01*
X5416491Y-16216436D02*
X5406967Y-16225960D01*
X5406967Y-16225960D02*
X5387920Y-16235484D01*
X5387920Y-16235484D02*
X5368872Y-16235484D01*
X5368872Y-16235484D02*
X5349824Y-16225960D01*
X5349824Y-16225960D02*
X5340301Y-16216436D01*
X5340301Y-16216436D02*
X5330777Y-16197388D01*
X5330777Y-16197388D02*
X5321253Y-16159293D01*
X5321253Y-16159293D02*
X5321253Y-16111674D01*
X5321253Y-16111674D02*
X5330777Y-16073579D01*
X5330777Y-16073579D02*
X5340301Y-16054531D01*
X5340301Y-16054531D02*
X5349824Y-16045008D01*
X5349824Y-16045008D02*
X5368872Y-16035484D01*
X5521253Y-16216436D02*
X5530777Y-16225960D01*
X5530777Y-16225960D02*
X5521253Y-16235484D01*
X5521253Y-16235484D02*
X5511729Y-16225960D01*
X5511729Y-16225960D02*
X5521253Y-16216436D01*
X5521253Y-16216436D02*
X5521253Y-16235484D01*
X5645062Y-16121198D02*
X5626015Y-16111674D01*
X5626015Y-16111674D02*
X5616491Y-16102150D01*
X5616491Y-16102150D02*
X5606967Y-16083103D01*
X5606967Y-16083103D02*
X5606967Y-16073579D01*
X5606967Y-16073579D02*
X5616491Y-16054531D01*
X5616491Y-16054531D02*
X5626015Y-16045008D01*
X5626015Y-16045008D02*
X5645062Y-16035484D01*
X5645062Y-16035484D02*
X5683158Y-16035484D01*
X5683158Y-16035484D02*
X5702205Y-16045008D01*
X5702205Y-16045008D02*
X5711729Y-16054531D01*
X5711729Y-16054531D02*
X5721253Y-16073579D01*
X5721253Y-16073579D02*
X5721253Y-16083103D01*
X5721253Y-16083103D02*
X5711729Y-16102150D01*
X5711729Y-16102150D02*
X5702205Y-16111674D01*
X5702205Y-16111674D02*
X5683158Y-16121198D01*
X5683158Y-16121198D02*
X5645062Y-16121198D01*
X5645062Y-16121198D02*
X5626015Y-16130722D01*
X5626015Y-16130722D02*
X5616491Y-16140246D01*
X5616491Y-16140246D02*
X5606967Y-16159293D01*
X5606967Y-16159293D02*
X5606967Y-16197388D01*
X5606967Y-16197388D02*
X5616491Y-16216436D01*
X5616491Y-16216436D02*
X5626015Y-16225960D01*
X5626015Y-16225960D02*
X5645062Y-16235484D01*
X5645062Y-16235484D02*
X5683158Y-16235484D01*
X5683158Y-16235484D02*
X5702205Y-16225960D01*
X5702205Y-16225960D02*
X5711729Y-16216436D01*
X5711729Y-16216436D02*
X5721253Y-16197388D01*
X5721253Y-16197388D02*
X5721253Y-16159293D01*
X5721253Y-16159293D02*
X5711729Y-16140246D01*
X5711729Y-16140246D02*
X5702205Y-16130722D01*
X5702205Y-16130722D02*
X5683158Y-16121198D01*
X5845062Y-16035484D02*
X5864110Y-16035484D01*
X5864110Y-16035484D02*
X5883158Y-16045008D01*
X5883158Y-16045008D02*
X5892682Y-16054531D01*
X5892682Y-16054531D02*
X5902205Y-16073579D01*
X5902205Y-16073579D02*
X5911729Y-16111674D01*
X5911729Y-16111674D02*
X5911729Y-16159293D01*
X5911729Y-16159293D02*
X5902205Y-16197388D01*
X5902205Y-16197388D02*
X5892682Y-16216436D01*
X5892682Y-16216436D02*
X5883158Y-16225960D01*
X5883158Y-16225960D02*
X5864110Y-16235484D01*
X5864110Y-16235484D02*
X5845062Y-16235484D01*
X5845062Y-16235484D02*
X5826015Y-16225960D01*
X5826015Y-16225960D02*
X5816491Y-16216436D01*
X5816491Y-16216436D02*
X5806967Y-16197388D01*
X5806967Y-16197388D02*
X5797443Y-16159293D01*
X5797443Y-16159293D02*
X5797443Y-16111674D01*
X5797443Y-16111674D02*
X5806967Y-16073579D01*
X5806967Y-16073579D02*
X5816491Y-16054531D01*
X5816491Y-16054531D02*
X5826015Y-16045008D01*
X5826015Y-16045008D02*
X5845062Y-16035484D01*
X6035539Y-16035484D02*
X6054586Y-16035484D01*
X6054586Y-16035484D02*
X6073634Y-16045008D01*
X6073634Y-16045008D02*
X6083158Y-16054531D01*
X6083158Y-16054531D02*
X6092682Y-16073579D01*
X6092682Y-16073579D02*
X6102205Y-16111674D01*
X6102205Y-16111674D02*
X6102205Y-16159293D01*
X6102205Y-16159293D02*
X6092682Y-16197388D01*
X6092682Y-16197388D02*
X6083158Y-16216436D01*
X6083158Y-16216436D02*
X6073634Y-16225960D01*
X6073634Y-16225960D02*
X6054586Y-16235484D01*
X6054586Y-16235484D02*
X6035539Y-16235484D01*
X6035539Y-16235484D02*
X6016491Y-16225960D01*
X6016491Y-16225960D02*
X6006967Y-16216436D01*
X6006967Y-16216436D02*
X5997443Y-16197388D01*
X5997443Y-16197388D02*
X5987920Y-16159293D01*
X5987920Y-16159293D02*
X5987920Y-16111674D01*
X5987920Y-16111674D02*
X5997443Y-16073579D01*
X5997443Y-16073579D02*
X6006967Y-16054531D01*
X6006967Y-16054531D02*
X6016491Y-16045008D01*
X6016491Y-16045008D02*
X6035539Y-16035484D01*
X6187920Y-16235484D02*
X6187920Y-16102150D01*
X6187920Y-16121198D02*
X6197443Y-16111674D01*
X6197443Y-16111674D02*
X6216491Y-16102150D01*
X6216491Y-16102150D02*
X6245063Y-16102150D01*
X6245063Y-16102150D02*
X6264110Y-16111674D01*
X6264110Y-16111674D02*
X6273634Y-16130722D01*
X6273634Y-16130722D02*
X6273634Y-16235484D01*
X6273634Y-16130722D02*
X6283158Y-16111674D01*
X6283158Y-16111674D02*
X6302205Y-16102150D01*
X6302205Y-16102150D02*
X6330777Y-16102150D01*
X6330777Y-16102150D02*
X6349824Y-16111674D01*
X6349824Y-16111674D02*
X6359348Y-16130722D01*
X6359348Y-16130722D02*
X6359348Y-16235484D01*
X6454586Y-16235484D02*
X6454586Y-16102150D01*
X6454586Y-16121198D02*
X6464110Y-16111674D01*
X6464110Y-16111674D02*
X6483158Y-16102150D01*
X6483158Y-16102150D02*
X6511729Y-16102150D01*
X6511729Y-16102150D02*
X6530777Y-16111674D01*
X6530777Y-16111674D02*
X6540301Y-16130722D01*
X6540301Y-16130722D02*
X6540301Y-16235484D01*
X6540301Y-16130722D02*
X6549824Y-16111674D01*
X6549824Y-16111674D02*
X6568872Y-16102150D01*
X6568872Y-16102150D02*
X6597443Y-16102150D01*
X6597443Y-16102150D02*
X6616491Y-16111674D01*
X6616491Y-16111674D02*
X6626015Y-16130722D01*
X6626015Y-16130722D02*
X6626015Y-16235484D01*
X7016491Y-16025960D02*
X6845063Y-16283103D01*
X7273634Y-16035484D02*
X7292682Y-16035484D01*
X7292682Y-16035484D02*
X7311729Y-16045008D01*
X7311729Y-16045008D02*
X7321253Y-16054531D01*
X7321253Y-16054531D02*
X7330777Y-16073579D01*
X7330777Y-16073579D02*
X7340301Y-16111674D01*
X7340301Y-16111674D02*
X7340301Y-16159293D01*
X7340301Y-16159293D02*
X7330777Y-16197388D01*
X7330777Y-16197388D02*
X7321253Y-16216436D01*
X7321253Y-16216436D02*
X7311729Y-16225960D01*
X7311729Y-16225960D02*
X7292682Y-16235484D01*
X7292682Y-16235484D02*
X7273634Y-16235484D01*
X7273634Y-16235484D02*
X7254586Y-16225960D01*
X7254586Y-16225960D02*
X7245063Y-16216436D01*
X7245063Y-16216436D02*
X7235539Y-16197388D01*
X7235539Y-16197388D02*
X7226015Y-16159293D01*
X7226015Y-16159293D02*
X7226015Y-16111674D01*
X7226015Y-16111674D02*
X7235539Y-16073579D01*
X7235539Y-16073579D02*
X7245063Y-16054531D01*
X7245063Y-16054531D02*
X7254586Y-16045008D01*
X7254586Y-16045008D02*
X7273634Y-16035484D01*
X7426015Y-16216436D02*
X7435539Y-16225960D01*
X7435539Y-16225960D02*
X7426015Y-16235484D01*
X7426015Y-16235484D02*
X7416491Y-16225960D01*
X7416491Y-16225960D02*
X7426015Y-16216436D01*
X7426015Y-16216436D02*
X7426015Y-16235484D01*
X7559348Y-16035484D02*
X7578396Y-16035484D01*
X7578396Y-16035484D02*
X7597444Y-16045008D01*
X7597444Y-16045008D02*
X7606967Y-16054531D01*
X7606967Y-16054531D02*
X7616491Y-16073579D01*
X7616491Y-16073579D02*
X7626015Y-16111674D01*
X7626015Y-16111674D02*
X7626015Y-16159293D01*
X7626015Y-16159293D02*
X7616491Y-16197388D01*
X7616491Y-16197388D02*
X7606967Y-16216436D01*
X7606967Y-16216436D02*
X7597444Y-16225960D01*
X7597444Y-16225960D02*
X7578396Y-16235484D01*
X7578396Y-16235484D02*
X7559348Y-16235484D01*
X7559348Y-16235484D02*
X7540301Y-16225960D01*
X7540301Y-16225960D02*
X7530777Y-16216436D01*
X7530777Y-16216436D02*
X7521253Y-16197388D01*
X7521253Y-16197388D02*
X7511729Y-16159293D01*
X7511729Y-16159293D02*
X7511729Y-16111674D01*
X7511729Y-16111674D02*
X7521253Y-16073579D01*
X7521253Y-16073579D02*
X7530777Y-16054531D01*
X7530777Y-16054531D02*
X7540301Y-16045008D01*
X7540301Y-16045008D02*
X7559348Y-16035484D01*
X7692682Y-16035484D02*
X7816491Y-16035484D01*
X7816491Y-16035484D02*
X7749825Y-16111674D01*
X7749825Y-16111674D02*
X7778396Y-16111674D01*
X7778396Y-16111674D02*
X7797444Y-16121198D01*
X7797444Y-16121198D02*
X7806967Y-16130722D01*
X7806967Y-16130722D02*
X7816491Y-16149769D01*
X7816491Y-16149769D02*
X7816491Y-16197388D01*
X7816491Y-16197388D02*
X7806967Y-16216436D01*
X7806967Y-16216436D02*
X7797444Y-16225960D01*
X7797444Y-16225960D02*
X7778396Y-16235484D01*
X7778396Y-16235484D02*
X7721253Y-16235484D01*
X7721253Y-16235484D02*
X7702206Y-16225960D01*
X7702206Y-16225960D02*
X7692682Y-16216436D01*
X8006967Y-16235484D02*
X7892682Y-16235484D01*
X7949825Y-16235484D02*
X7949825Y-16035484D01*
X7949825Y-16035484D02*
X7930777Y-16064055D01*
X7930777Y-16064055D02*
X7911729Y-16083103D01*
X7911729Y-16083103D02*
X7892682Y-16092627D01*
X8187920Y-16035484D02*
X8092682Y-16035484D01*
X8092682Y-16035484D02*
X8083158Y-16130722D01*
X8083158Y-16130722D02*
X8092682Y-16121198D01*
X8092682Y-16121198D02*
X8111729Y-16111674D01*
X8111729Y-16111674D02*
X8159348Y-16111674D01*
X8159348Y-16111674D02*
X8178396Y-16121198D01*
X8178396Y-16121198D02*
X8187920Y-16130722D01*
X8187920Y-16130722D02*
X8197444Y-16149769D01*
X8197444Y-16149769D02*
X8197444Y-16197388D01*
X8197444Y-16197388D02*
X8187920Y-16216436D01*
X8187920Y-16216436D02*
X8178396Y-16225960D01*
X8178396Y-16225960D02*
X8159348Y-16235484D01*
X8159348Y-16235484D02*
X8111729Y-16235484D01*
X8111729Y-16235484D02*
X8092682Y-16225960D01*
X8092682Y-16225960D02*
X8083158Y-16216436D01*
X8273634Y-16035484D02*
X8273634Y-16073579D01*
X8349825Y-16035484D02*
X8349825Y-16073579D01*
X8645063Y-16311674D02*
X8635539Y-16302150D01*
X8635539Y-16302150D02*
X8616491Y-16273579D01*
X8616491Y-16273579D02*
X8606968Y-16254531D01*
X8606968Y-16254531D02*
X8597444Y-16225960D01*
X8597444Y-16225960D02*
X8587920Y-16178341D01*
X8587920Y-16178341D02*
X8587920Y-16140246D01*
X8587920Y-16140246D02*
X8597444Y-16092627D01*
X8597444Y-16092627D02*
X8606968Y-16064055D01*
X8606968Y-16064055D02*
X8616491Y-16045008D01*
X8616491Y-16045008D02*
X8635539Y-16016436D01*
X8635539Y-16016436D02*
X8645063Y-16006912D01*
X8826015Y-16235484D02*
X8711730Y-16235484D01*
X8768872Y-16235484D02*
X8768872Y-16035484D01*
X8768872Y-16035484D02*
X8749825Y-16064055D01*
X8749825Y-16064055D02*
X8730777Y-16083103D01*
X8730777Y-16083103D02*
X8711730Y-16092627D01*
X8949825Y-16035484D02*
X8968872Y-16035484D01*
X8968872Y-16035484D02*
X8987920Y-16045008D01*
X8987920Y-16045008D02*
X8997444Y-16054531D01*
X8997444Y-16054531D02*
X9006968Y-16073579D01*
X9006968Y-16073579D02*
X9016491Y-16111674D01*
X9016491Y-16111674D02*
X9016491Y-16159293D01*
X9016491Y-16159293D02*
X9006968Y-16197388D01*
X9006968Y-16197388D02*
X8997444Y-16216436D01*
X8997444Y-16216436D02*
X8987920Y-16225960D01*
X8987920Y-16225960D02*
X8968872Y-16235484D01*
X8968872Y-16235484D02*
X8949825Y-16235484D01*
X8949825Y-16235484D02*
X8930777Y-16225960D01*
X8930777Y-16225960D02*
X8921253Y-16216436D01*
X8921253Y-16216436D02*
X8911730Y-16197388D01*
X8911730Y-16197388D02*
X8902206Y-16159293D01*
X8902206Y-16159293D02*
X8902206Y-16111674D01*
X8902206Y-16111674D02*
X8911730Y-16073579D01*
X8911730Y-16073579D02*
X8921253Y-16054531D01*
X8921253Y-16054531D02*
X8930777Y-16045008D01*
X8930777Y-16045008D02*
X8949825Y-16035484D01*
X9254587Y-16235484D02*
X9254587Y-16035484D01*
X9340301Y-16235484D02*
X9340301Y-16130722D01*
X9340301Y-16130722D02*
X9330777Y-16111674D01*
X9330777Y-16111674D02*
X9311730Y-16102150D01*
X9311730Y-16102150D02*
X9283158Y-16102150D01*
X9283158Y-16102150D02*
X9264111Y-16111674D01*
X9264111Y-16111674D02*
X9254587Y-16121198D01*
X9464111Y-16235484D02*
X9445063Y-16225960D01*
X9445063Y-16225960D02*
X9435539Y-16216436D01*
X9435539Y-16216436D02*
X9426015Y-16197388D01*
X9426015Y-16197388D02*
X9426015Y-16140246D01*
X9426015Y-16140246D02*
X9435539Y-16121198D01*
X9435539Y-16121198D02*
X9445063Y-16111674D01*
X9445063Y-16111674D02*
X9464111Y-16102150D01*
X9464111Y-16102150D02*
X9492682Y-16102150D01*
X9492682Y-16102150D02*
X9511730Y-16111674D01*
X9511730Y-16111674D02*
X9521253Y-16121198D01*
X9521253Y-16121198D02*
X9530777Y-16140246D01*
X9530777Y-16140246D02*
X9530777Y-16197388D01*
X9530777Y-16197388D02*
X9521253Y-16216436D01*
X9521253Y-16216436D02*
X9511730Y-16225960D01*
X9511730Y-16225960D02*
X9492682Y-16235484D01*
X9492682Y-16235484D02*
X9464111Y-16235484D01*
X9645063Y-16235484D02*
X9626015Y-16225960D01*
X9626015Y-16225960D02*
X9616492Y-16206912D01*
X9616492Y-16206912D02*
X9616492Y-16035484D01*
X9797444Y-16225960D02*
X9778396Y-16235484D01*
X9778396Y-16235484D02*
X9740301Y-16235484D01*
X9740301Y-16235484D02*
X9721253Y-16225960D01*
X9721253Y-16225960D02*
X9711730Y-16206912D01*
X9711730Y-16206912D02*
X9711730Y-16130722D01*
X9711730Y-16130722D02*
X9721253Y-16111674D01*
X9721253Y-16111674D02*
X9740301Y-16102150D01*
X9740301Y-16102150D02*
X9778396Y-16102150D01*
X9778396Y-16102150D02*
X9797444Y-16111674D01*
X9797444Y-16111674D02*
X9806968Y-16130722D01*
X9806968Y-16130722D02*
X9806968Y-16149769D01*
X9806968Y-16149769D02*
X9711730Y-16168817D01*
X9883158Y-16225960D02*
X9902206Y-16235484D01*
X9902206Y-16235484D02*
X9940301Y-16235484D01*
X9940301Y-16235484D02*
X9959349Y-16225960D01*
X9959349Y-16225960D02*
X9968873Y-16206912D01*
X9968873Y-16206912D02*
X9968873Y-16197388D01*
X9968873Y-16197388D02*
X9959349Y-16178341D01*
X9959349Y-16178341D02*
X9940301Y-16168817D01*
X9940301Y-16168817D02*
X9911730Y-16168817D01*
X9911730Y-16168817D02*
X9892682Y-16159293D01*
X9892682Y-16159293D02*
X9883158Y-16140246D01*
X9883158Y-16140246D02*
X9883158Y-16130722D01*
X9883158Y-16130722D02*
X9892682Y-16111674D01*
X9892682Y-16111674D02*
X9911730Y-16102150D01*
X9911730Y-16102150D02*
X9940301Y-16102150D01*
X9940301Y-16102150D02*
X9959349Y-16111674D01*
X10035539Y-16311674D02*
X10045063Y-16302150D01*
X10045063Y-16302150D02*
X10064111Y-16273579D01*
X10064111Y-16273579D02*
X10073634Y-16254531D01*
X10073634Y-16254531D02*
X10083158Y-16225960D01*
X10083158Y-16225960D02*
X10092682Y-16178341D01*
X10092682Y-16178341D02*
X10092682Y-16140246D01*
X10092682Y-16140246D02*
X10083158Y-16092627D01*
X10083158Y-16092627D02*
X10073634Y-16064055D01*
X10073634Y-16064055D02*
X10064111Y-16045008D01*
X10064111Y-16045008D02*
X10045063Y-16016436D01*
X10045063Y-16016436D02*
X10035539Y-16006912D01*
D11*
X5070000Y-16408000D02*
G75*
G02*
X4989000Y-16408000I-40500J0D01*
G01*
X4989000Y-16408000D02*
G75*
G02*
X5070000Y-16408000I40500J0D01*
G01*
D10*
X5368872Y-16299484D02*
X5387920Y-16299484D01*
X5387920Y-16299484D02*
X5406967Y-16309008D01*
X5406967Y-16309008D02*
X5416491Y-16318531D01*
X5416491Y-16318531D02*
X5426015Y-16337579D01*
X5426015Y-16337579D02*
X5435539Y-16375674D01*
X5435539Y-16375674D02*
X5435539Y-16423293D01*
X5435539Y-16423293D02*
X5426015Y-16461388D01*
X5426015Y-16461388D02*
X5416491Y-16480436D01*
X5416491Y-16480436D02*
X5406967Y-16489960D01*
X5406967Y-16489960D02*
X5387920Y-16499484D01*
X5387920Y-16499484D02*
X5368872Y-16499484D01*
X5368872Y-16499484D02*
X5349824Y-16489960D01*
X5349824Y-16489960D02*
X5340301Y-16480436D01*
X5340301Y-16480436D02*
X5330777Y-16461388D01*
X5330777Y-16461388D02*
X5321253Y-16423293D01*
X5321253Y-16423293D02*
X5321253Y-16375674D01*
X5321253Y-16375674D02*
X5330777Y-16337579D01*
X5330777Y-16337579D02*
X5340301Y-16318531D01*
X5340301Y-16318531D02*
X5349824Y-16309008D01*
X5349824Y-16309008D02*
X5368872Y-16299484D01*
X5521253Y-16480436D02*
X5530777Y-16489960D01*
X5530777Y-16489960D02*
X5521253Y-16499484D01*
X5521253Y-16499484D02*
X5511729Y-16489960D01*
X5511729Y-16489960D02*
X5521253Y-16480436D01*
X5521253Y-16480436D02*
X5521253Y-16499484D01*
X5645062Y-16385198D02*
X5626015Y-16375674D01*
X5626015Y-16375674D02*
X5616491Y-16366150D01*
X5616491Y-16366150D02*
X5606967Y-16347103D01*
X5606967Y-16347103D02*
X5606967Y-16337579D01*
X5606967Y-16337579D02*
X5616491Y-16318531D01*
X5616491Y-16318531D02*
X5626015Y-16309008D01*
X5626015Y-16309008D02*
X5645062Y-16299484D01*
X5645062Y-16299484D02*
X5683158Y-16299484D01*
X5683158Y-16299484D02*
X5702205Y-16309008D01*
X5702205Y-16309008D02*
X5711729Y-16318531D01*
X5711729Y-16318531D02*
X5721253Y-16337579D01*
X5721253Y-16337579D02*
X5721253Y-16347103D01*
X5721253Y-16347103D02*
X5711729Y-16366150D01*
X5711729Y-16366150D02*
X5702205Y-16375674D01*
X5702205Y-16375674D02*
X5683158Y-16385198D01*
X5683158Y-16385198D02*
X5645062Y-16385198D01*
X5645062Y-16385198D02*
X5626015Y-16394722D01*
X5626015Y-16394722D02*
X5616491Y-16404246D01*
X5616491Y-16404246D02*
X5606967Y-16423293D01*
X5606967Y-16423293D02*
X5606967Y-16461388D01*
X5606967Y-16461388D02*
X5616491Y-16480436D01*
X5616491Y-16480436D02*
X5626015Y-16489960D01*
X5626015Y-16489960D02*
X5645062Y-16499484D01*
X5645062Y-16499484D02*
X5683158Y-16499484D01*
X5683158Y-16499484D02*
X5702205Y-16489960D01*
X5702205Y-16489960D02*
X5711729Y-16480436D01*
X5711729Y-16480436D02*
X5721253Y-16461388D01*
X5721253Y-16461388D02*
X5721253Y-16423293D01*
X5721253Y-16423293D02*
X5711729Y-16404246D01*
X5711729Y-16404246D02*
X5702205Y-16394722D01*
X5702205Y-16394722D02*
X5683158Y-16385198D01*
X5911729Y-16499484D02*
X5797443Y-16499484D01*
X5854586Y-16499484D02*
X5854586Y-16299484D01*
X5854586Y-16299484D02*
X5835539Y-16328055D01*
X5835539Y-16328055D02*
X5816491Y-16347103D01*
X5816491Y-16347103D02*
X5797443Y-16356627D01*
X6035539Y-16299484D02*
X6054586Y-16299484D01*
X6054586Y-16299484D02*
X6073634Y-16309008D01*
X6073634Y-16309008D02*
X6083158Y-16318531D01*
X6083158Y-16318531D02*
X6092682Y-16337579D01*
X6092682Y-16337579D02*
X6102205Y-16375674D01*
X6102205Y-16375674D02*
X6102205Y-16423293D01*
X6102205Y-16423293D02*
X6092682Y-16461388D01*
X6092682Y-16461388D02*
X6083158Y-16480436D01*
X6083158Y-16480436D02*
X6073634Y-16489960D01*
X6073634Y-16489960D02*
X6054586Y-16499484D01*
X6054586Y-16499484D02*
X6035539Y-16499484D01*
X6035539Y-16499484D02*
X6016491Y-16489960D01*
X6016491Y-16489960D02*
X6006967Y-16480436D01*
X6006967Y-16480436D02*
X5997443Y-16461388D01*
X5997443Y-16461388D02*
X5987920Y-16423293D01*
X5987920Y-16423293D02*
X5987920Y-16375674D01*
X5987920Y-16375674D02*
X5997443Y-16337579D01*
X5997443Y-16337579D02*
X6006967Y-16318531D01*
X6006967Y-16318531D02*
X6016491Y-16309008D01*
X6016491Y-16309008D02*
X6035539Y-16299484D01*
X6187920Y-16499484D02*
X6187920Y-16366150D01*
X6187920Y-16385198D02*
X6197443Y-16375674D01*
X6197443Y-16375674D02*
X6216491Y-16366150D01*
X6216491Y-16366150D02*
X6245063Y-16366150D01*
X6245063Y-16366150D02*
X6264110Y-16375674D01*
X6264110Y-16375674D02*
X6273634Y-16394722D01*
X6273634Y-16394722D02*
X6273634Y-16499484D01*
X6273634Y-16394722D02*
X6283158Y-16375674D01*
X6283158Y-16375674D02*
X6302205Y-16366150D01*
X6302205Y-16366150D02*
X6330777Y-16366150D01*
X6330777Y-16366150D02*
X6349824Y-16375674D01*
X6349824Y-16375674D02*
X6359348Y-16394722D01*
X6359348Y-16394722D02*
X6359348Y-16499484D01*
X6454586Y-16499484D02*
X6454586Y-16366150D01*
X6454586Y-16385198D02*
X6464110Y-16375674D01*
X6464110Y-16375674D02*
X6483158Y-16366150D01*
X6483158Y-16366150D02*
X6511729Y-16366150D01*
X6511729Y-16366150D02*
X6530777Y-16375674D01*
X6530777Y-16375674D02*
X6540301Y-16394722D01*
X6540301Y-16394722D02*
X6540301Y-16499484D01*
X6540301Y-16394722D02*
X6549824Y-16375674D01*
X6549824Y-16375674D02*
X6568872Y-16366150D01*
X6568872Y-16366150D02*
X6597443Y-16366150D01*
X6597443Y-16366150D02*
X6616491Y-16375674D01*
X6616491Y-16375674D02*
X6626015Y-16394722D01*
X6626015Y-16394722D02*
X6626015Y-16499484D01*
X7016491Y-16289960D02*
X6845063Y-16547103D01*
X7273634Y-16299484D02*
X7292682Y-16299484D01*
X7292682Y-16299484D02*
X7311729Y-16309008D01*
X7311729Y-16309008D02*
X7321253Y-16318531D01*
X7321253Y-16318531D02*
X7330777Y-16337579D01*
X7330777Y-16337579D02*
X7340301Y-16375674D01*
X7340301Y-16375674D02*
X7340301Y-16423293D01*
X7340301Y-16423293D02*
X7330777Y-16461388D01*
X7330777Y-16461388D02*
X7321253Y-16480436D01*
X7321253Y-16480436D02*
X7311729Y-16489960D01*
X7311729Y-16489960D02*
X7292682Y-16499484D01*
X7292682Y-16499484D02*
X7273634Y-16499484D01*
X7273634Y-16499484D02*
X7254586Y-16489960D01*
X7254586Y-16489960D02*
X7245063Y-16480436D01*
X7245063Y-16480436D02*
X7235539Y-16461388D01*
X7235539Y-16461388D02*
X7226015Y-16423293D01*
X7226015Y-16423293D02*
X7226015Y-16375674D01*
X7226015Y-16375674D02*
X7235539Y-16337579D01*
X7235539Y-16337579D02*
X7245063Y-16318531D01*
X7245063Y-16318531D02*
X7254586Y-16309008D01*
X7254586Y-16309008D02*
X7273634Y-16299484D01*
X7426015Y-16480436D02*
X7435539Y-16489960D01*
X7435539Y-16489960D02*
X7426015Y-16499484D01*
X7426015Y-16499484D02*
X7416491Y-16489960D01*
X7416491Y-16489960D02*
X7426015Y-16480436D01*
X7426015Y-16480436D02*
X7426015Y-16499484D01*
X7559348Y-16299484D02*
X7578396Y-16299484D01*
X7578396Y-16299484D02*
X7597444Y-16309008D01*
X7597444Y-16309008D02*
X7606967Y-16318531D01*
X7606967Y-16318531D02*
X7616491Y-16337579D01*
X7616491Y-16337579D02*
X7626015Y-16375674D01*
X7626015Y-16375674D02*
X7626015Y-16423293D01*
X7626015Y-16423293D02*
X7616491Y-16461388D01*
X7616491Y-16461388D02*
X7606967Y-16480436D01*
X7606967Y-16480436D02*
X7597444Y-16489960D01*
X7597444Y-16489960D02*
X7578396Y-16499484D01*
X7578396Y-16499484D02*
X7559348Y-16499484D01*
X7559348Y-16499484D02*
X7540301Y-16489960D01*
X7540301Y-16489960D02*
X7530777Y-16480436D01*
X7530777Y-16480436D02*
X7521253Y-16461388D01*
X7521253Y-16461388D02*
X7511729Y-16423293D01*
X7511729Y-16423293D02*
X7511729Y-16375674D01*
X7511729Y-16375674D02*
X7521253Y-16337579D01*
X7521253Y-16337579D02*
X7530777Y-16318531D01*
X7530777Y-16318531D02*
X7540301Y-16309008D01*
X7540301Y-16309008D02*
X7559348Y-16299484D01*
X7692682Y-16299484D02*
X7816491Y-16299484D01*
X7816491Y-16299484D02*
X7749825Y-16375674D01*
X7749825Y-16375674D02*
X7778396Y-16375674D01*
X7778396Y-16375674D02*
X7797444Y-16385198D01*
X7797444Y-16385198D02*
X7806967Y-16394722D01*
X7806967Y-16394722D02*
X7816491Y-16413769D01*
X7816491Y-16413769D02*
X7816491Y-16461388D01*
X7816491Y-16461388D02*
X7806967Y-16480436D01*
X7806967Y-16480436D02*
X7797444Y-16489960D01*
X7797444Y-16489960D02*
X7778396Y-16499484D01*
X7778396Y-16499484D02*
X7721253Y-16499484D01*
X7721253Y-16499484D02*
X7702206Y-16489960D01*
X7702206Y-16489960D02*
X7692682Y-16480436D01*
X8006967Y-16499484D02*
X7892682Y-16499484D01*
X7949825Y-16499484D02*
X7949825Y-16299484D01*
X7949825Y-16299484D02*
X7930777Y-16328055D01*
X7930777Y-16328055D02*
X7911729Y-16347103D01*
X7911729Y-16347103D02*
X7892682Y-16356627D01*
X8102206Y-16499484D02*
X8140301Y-16499484D01*
X8140301Y-16499484D02*
X8159348Y-16489960D01*
X8159348Y-16489960D02*
X8168872Y-16480436D01*
X8168872Y-16480436D02*
X8187920Y-16451865D01*
X8187920Y-16451865D02*
X8197444Y-16413769D01*
X8197444Y-16413769D02*
X8197444Y-16337579D01*
X8197444Y-16337579D02*
X8187920Y-16318531D01*
X8187920Y-16318531D02*
X8178396Y-16309008D01*
X8178396Y-16309008D02*
X8159348Y-16299484D01*
X8159348Y-16299484D02*
X8121253Y-16299484D01*
X8121253Y-16299484D02*
X8102206Y-16309008D01*
X8102206Y-16309008D02*
X8092682Y-16318531D01*
X8092682Y-16318531D02*
X8083158Y-16337579D01*
X8083158Y-16337579D02*
X8083158Y-16385198D01*
X8083158Y-16385198D02*
X8092682Y-16404246D01*
X8092682Y-16404246D02*
X8102206Y-16413769D01*
X8102206Y-16413769D02*
X8121253Y-16423293D01*
X8121253Y-16423293D02*
X8159348Y-16423293D01*
X8159348Y-16423293D02*
X8178396Y-16413769D01*
X8178396Y-16413769D02*
X8187920Y-16404246D01*
X8187920Y-16404246D02*
X8197444Y-16385198D01*
X8273634Y-16299484D02*
X8273634Y-16337579D01*
X8349825Y-16299484D02*
X8349825Y-16337579D01*
X8645063Y-16575674D02*
X8635539Y-16566150D01*
X8635539Y-16566150D02*
X8616491Y-16537579D01*
X8616491Y-16537579D02*
X8606968Y-16518531D01*
X8606968Y-16518531D02*
X8597444Y-16489960D01*
X8597444Y-16489960D02*
X8587920Y-16442341D01*
X8587920Y-16442341D02*
X8587920Y-16404246D01*
X8587920Y-16404246D02*
X8597444Y-16356627D01*
X8597444Y-16356627D02*
X8606968Y-16328055D01*
X8606968Y-16328055D02*
X8616491Y-16309008D01*
X8616491Y-16309008D02*
X8635539Y-16280436D01*
X8635539Y-16280436D02*
X8645063Y-16270912D01*
X8711730Y-16318531D02*
X8721253Y-16309008D01*
X8721253Y-16309008D02*
X8740301Y-16299484D01*
X8740301Y-16299484D02*
X8787920Y-16299484D01*
X8787920Y-16299484D02*
X8806968Y-16309008D01*
X8806968Y-16309008D02*
X8816491Y-16318531D01*
X8816491Y-16318531D02*
X8826015Y-16337579D01*
X8826015Y-16337579D02*
X8826015Y-16356627D01*
X8826015Y-16356627D02*
X8816491Y-16385198D01*
X8816491Y-16385198D02*
X8702206Y-16499484D01*
X8702206Y-16499484D02*
X8826015Y-16499484D01*
X8949825Y-16299484D02*
X8968872Y-16299484D01*
X8968872Y-16299484D02*
X8987920Y-16309008D01*
X8987920Y-16309008D02*
X8997444Y-16318531D01*
X8997444Y-16318531D02*
X9006968Y-16337579D01*
X9006968Y-16337579D02*
X9016491Y-16375674D01*
X9016491Y-16375674D02*
X9016491Y-16423293D01*
X9016491Y-16423293D02*
X9006968Y-16461388D01*
X9006968Y-16461388D02*
X8997444Y-16480436D01*
X8997444Y-16480436D02*
X8987920Y-16489960D01*
X8987920Y-16489960D02*
X8968872Y-16499484D01*
X8968872Y-16499484D02*
X8949825Y-16499484D01*
X8949825Y-16499484D02*
X8930777Y-16489960D01*
X8930777Y-16489960D02*
X8921253Y-16480436D01*
X8921253Y-16480436D02*
X8911730Y-16461388D01*
X8911730Y-16461388D02*
X8902206Y-16423293D01*
X8902206Y-16423293D02*
X8902206Y-16375674D01*
X8902206Y-16375674D02*
X8911730Y-16337579D01*
X8911730Y-16337579D02*
X8921253Y-16318531D01*
X8921253Y-16318531D02*
X8930777Y-16309008D01*
X8930777Y-16309008D02*
X8949825Y-16299484D01*
X9254587Y-16499484D02*
X9254587Y-16299484D01*
X9340301Y-16499484D02*
X9340301Y-16394722D01*
X9340301Y-16394722D02*
X9330777Y-16375674D01*
X9330777Y-16375674D02*
X9311730Y-16366150D01*
X9311730Y-16366150D02*
X9283158Y-16366150D01*
X9283158Y-16366150D02*
X9264111Y-16375674D01*
X9264111Y-16375674D02*
X9254587Y-16385198D01*
X9464111Y-16499484D02*
X9445063Y-16489960D01*
X9445063Y-16489960D02*
X9435539Y-16480436D01*
X9435539Y-16480436D02*
X9426015Y-16461388D01*
X9426015Y-16461388D02*
X9426015Y-16404246D01*
X9426015Y-16404246D02*
X9435539Y-16385198D01*
X9435539Y-16385198D02*
X9445063Y-16375674D01*
X9445063Y-16375674D02*
X9464111Y-16366150D01*
X9464111Y-16366150D02*
X9492682Y-16366150D01*
X9492682Y-16366150D02*
X9511730Y-16375674D01*
X9511730Y-16375674D02*
X9521253Y-16385198D01*
X9521253Y-16385198D02*
X9530777Y-16404246D01*
X9530777Y-16404246D02*
X9530777Y-16461388D01*
X9530777Y-16461388D02*
X9521253Y-16480436D01*
X9521253Y-16480436D02*
X9511730Y-16489960D01*
X9511730Y-16489960D02*
X9492682Y-16499484D01*
X9492682Y-16499484D02*
X9464111Y-16499484D01*
X9645063Y-16499484D02*
X9626015Y-16489960D01*
X9626015Y-16489960D02*
X9616492Y-16470912D01*
X9616492Y-16470912D02*
X9616492Y-16299484D01*
X9797444Y-16489960D02*
X9778396Y-16499484D01*
X9778396Y-16499484D02*
X9740301Y-16499484D01*
X9740301Y-16499484D02*
X9721253Y-16489960D01*
X9721253Y-16489960D02*
X9711730Y-16470912D01*
X9711730Y-16470912D02*
X9711730Y-16394722D01*
X9711730Y-16394722D02*
X9721253Y-16375674D01*
X9721253Y-16375674D02*
X9740301Y-16366150D01*
X9740301Y-16366150D02*
X9778396Y-16366150D01*
X9778396Y-16366150D02*
X9797444Y-16375674D01*
X9797444Y-16375674D02*
X9806968Y-16394722D01*
X9806968Y-16394722D02*
X9806968Y-16413769D01*
X9806968Y-16413769D02*
X9711730Y-16432817D01*
X9883158Y-16489960D02*
X9902206Y-16499484D01*
X9902206Y-16499484D02*
X9940301Y-16499484D01*
X9940301Y-16499484D02*
X9959349Y-16489960D01*
X9959349Y-16489960D02*
X9968873Y-16470912D01*
X9968873Y-16470912D02*
X9968873Y-16461388D01*
X9968873Y-16461388D02*
X9959349Y-16442341D01*
X9959349Y-16442341D02*
X9940301Y-16432817D01*
X9940301Y-16432817D02*
X9911730Y-16432817D01*
X9911730Y-16432817D02*
X9892682Y-16423293D01*
X9892682Y-16423293D02*
X9883158Y-16404246D01*
X9883158Y-16404246D02*
X9883158Y-16394722D01*
X9883158Y-16394722D02*
X9892682Y-16375674D01*
X9892682Y-16375674D02*
X9911730Y-16366150D01*
X9911730Y-16366150D02*
X9940301Y-16366150D01*
X9940301Y-16366150D02*
X9959349Y-16375674D01*
X10035539Y-16575674D02*
X10045063Y-16566150D01*
X10045063Y-16566150D02*
X10064111Y-16537579D01*
X10064111Y-16537579D02*
X10073634Y-16518531D01*
X10073634Y-16518531D02*
X10083158Y-16489960D01*
X10083158Y-16489960D02*
X10092682Y-16442341D01*
X10092682Y-16442341D02*
X10092682Y-16404246D01*
X10092682Y-16404246D02*
X10083158Y-16356627D01*
X10083158Y-16356627D02*
X10073634Y-16328055D01*
X10073634Y-16328055D02*
X10064111Y-16309008D01*
X10064111Y-16309008D02*
X10045063Y-16280436D01*
X10045063Y-16280436D02*
X10035539Y-16270912D01*
D11*
X5020000Y-16622000D02*
X5020000Y-16722000D01*
X4970000Y-16672000D02*
X5070000Y-16672000D01*
D10*
X5435539Y-16763484D02*
X5321253Y-16763484D01*
X5378396Y-16763484D02*
X5378396Y-16563484D01*
X5378396Y-16563484D02*
X5359348Y-16592055D01*
X5359348Y-16592055D02*
X5340301Y-16611103D01*
X5340301Y-16611103D02*
X5321253Y-16620627D01*
X5521253Y-16744436D02*
X5530777Y-16753960D01*
X5530777Y-16753960D02*
X5521253Y-16763484D01*
X5521253Y-16763484D02*
X5511729Y-16753960D01*
X5511729Y-16753960D02*
X5521253Y-16744436D01*
X5521253Y-16744436D02*
X5521253Y-16763484D01*
X5654586Y-16563484D02*
X5673634Y-16563484D01*
X5673634Y-16563484D02*
X5692682Y-16573008D01*
X5692682Y-16573008D02*
X5702205Y-16582531D01*
X5702205Y-16582531D02*
X5711729Y-16601579D01*
X5711729Y-16601579D02*
X5721253Y-16639674D01*
X5721253Y-16639674D02*
X5721253Y-16687293D01*
X5721253Y-16687293D02*
X5711729Y-16725388D01*
X5711729Y-16725388D02*
X5702205Y-16744436D01*
X5702205Y-16744436D02*
X5692682Y-16753960D01*
X5692682Y-16753960D02*
X5673634Y-16763484D01*
X5673634Y-16763484D02*
X5654586Y-16763484D01*
X5654586Y-16763484D02*
X5635539Y-16753960D01*
X5635539Y-16753960D02*
X5626015Y-16744436D01*
X5626015Y-16744436D02*
X5616491Y-16725388D01*
X5616491Y-16725388D02*
X5606967Y-16687293D01*
X5606967Y-16687293D02*
X5606967Y-16639674D01*
X5606967Y-16639674D02*
X5616491Y-16601579D01*
X5616491Y-16601579D02*
X5626015Y-16582531D01*
X5626015Y-16582531D02*
X5635539Y-16573008D01*
X5635539Y-16573008D02*
X5654586Y-16563484D01*
X5845062Y-16563484D02*
X5864110Y-16563484D01*
X5864110Y-16563484D02*
X5883158Y-16573008D01*
X5883158Y-16573008D02*
X5892682Y-16582531D01*
X5892682Y-16582531D02*
X5902205Y-16601579D01*
X5902205Y-16601579D02*
X5911729Y-16639674D01*
X5911729Y-16639674D02*
X5911729Y-16687293D01*
X5911729Y-16687293D02*
X5902205Y-16725388D01*
X5902205Y-16725388D02*
X5892682Y-16744436D01*
X5892682Y-16744436D02*
X5883158Y-16753960D01*
X5883158Y-16753960D02*
X5864110Y-16763484D01*
X5864110Y-16763484D02*
X5845062Y-16763484D01*
X5845062Y-16763484D02*
X5826015Y-16753960D01*
X5826015Y-16753960D02*
X5816491Y-16744436D01*
X5816491Y-16744436D02*
X5806967Y-16725388D01*
X5806967Y-16725388D02*
X5797443Y-16687293D01*
X5797443Y-16687293D02*
X5797443Y-16639674D01*
X5797443Y-16639674D02*
X5806967Y-16601579D01*
X5806967Y-16601579D02*
X5816491Y-16582531D01*
X5816491Y-16582531D02*
X5826015Y-16573008D01*
X5826015Y-16573008D02*
X5845062Y-16563484D01*
X6035539Y-16563484D02*
X6054586Y-16563484D01*
X6054586Y-16563484D02*
X6073634Y-16573008D01*
X6073634Y-16573008D02*
X6083158Y-16582531D01*
X6083158Y-16582531D02*
X6092682Y-16601579D01*
X6092682Y-16601579D02*
X6102205Y-16639674D01*
X6102205Y-16639674D02*
X6102205Y-16687293D01*
X6102205Y-16687293D02*
X6092682Y-16725388D01*
X6092682Y-16725388D02*
X6083158Y-16744436D01*
X6083158Y-16744436D02*
X6073634Y-16753960D01*
X6073634Y-16753960D02*
X6054586Y-16763484D01*
X6054586Y-16763484D02*
X6035539Y-16763484D01*
X6035539Y-16763484D02*
X6016491Y-16753960D01*
X6016491Y-16753960D02*
X6006967Y-16744436D01*
X6006967Y-16744436D02*
X5997443Y-16725388D01*
X5997443Y-16725388D02*
X5987920Y-16687293D01*
X5987920Y-16687293D02*
X5987920Y-16639674D01*
X5987920Y-16639674D02*
X5997443Y-16601579D01*
X5997443Y-16601579D02*
X6006967Y-16582531D01*
X6006967Y-16582531D02*
X6016491Y-16573008D01*
X6016491Y-16573008D02*
X6035539Y-16563484D01*
X6187920Y-16763484D02*
X6187920Y-16630150D01*
X6187920Y-16649198D02*
X6197443Y-16639674D01*
X6197443Y-16639674D02*
X6216491Y-16630150D01*
X6216491Y-16630150D02*
X6245063Y-16630150D01*
X6245063Y-16630150D02*
X6264110Y-16639674D01*
X6264110Y-16639674D02*
X6273634Y-16658722D01*
X6273634Y-16658722D02*
X6273634Y-16763484D01*
X6273634Y-16658722D02*
X6283158Y-16639674D01*
X6283158Y-16639674D02*
X6302205Y-16630150D01*
X6302205Y-16630150D02*
X6330777Y-16630150D01*
X6330777Y-16630150D02*
X6349824Y-16639674D01*
X6349824Y-16639674D02*
X6359348Y-16658722D01*
X6359348Y-16658722D02*
X6359348Y-16763484D01*
X6454586Y-16763484D02*
X6454586Y-16630150D01*
X6454586Y-16649198D02*
X6464110Y-16639674D01*
X6464110Y-16639674D02*
X6483158Y-16630150D01*
X6483158Y-16630150D02*
X6511729Y-16630150D01*
X6511729Y-16630150D02*
X6530777Y-16639674D01*
X6530777Y-16639674D02*
X6540301Y-16658722D01*
X6540301Y-16658722D02*
X6540301Y-16763484D01*
X6540301Y-16658722D02*
X6549824Y-16639674D01*
X6549824Y-16639674D02*
X6568872Y-16630150D01*
X6568872Y-16630150D02*
X6597443Y-16630150D01*
X6597443Y-16630150D02*
X6616491Y-16639674D01*
X6616491Y-16639674D02*
X6626015Y-16658722D01*
X6626015Y-16658722D02*
X6626015Y-16763484D01*
X7016491Y-16553960D02*
X6845063Y-16811103D01*
X7273634Y-16563484D02*
X7292682Y-16563484D01*
X7292682Y-16563484D02*
X7311729Y-16573008D01*
X7311729Y-16573008D02*
X7321253Y-16582531D01*
X7321253Y-16582531D02*
X7330777Y-16601579D01*
X7330777Y-16601579D02*
X7340301Y-16639674D01*
X7340301Y-16639674D02*
X7340301Y-16687293D01*
X7340301Y-16687293D02*
X7330777Y-16725388D01*
X7330777Y-16725388D02*
X7321253Y-16744436D01*
X7321253Y-16744436D02*
X7311729Y-16753960D01*
X7311729Y-16753960D02*
X7292682Y-16763484D01*
X7292682Y-16763484D02*
X7273634Y-16763484D01*
X7273634Y-16763484D02*
X7254586Y-16753960D01*
X7254586Y-16753960D02*
X7245063Y-16744436D01*
X7245063Y-16744436D02*
X7235539Y-16725388D01*
X7235539Y-16725388D02*
X7226015Y-16687293D01*
X7226015Y-16687293D02*
X7226015Y-16639674D01*
X7226015Y-16639674D02*
X7235539Y-16601579D01*
X7235539Y-16601579D02*
X7245063Y-16582531D01*
X7245063Y-16582531D02*
X7254586Y-16573008D01*
X7254586Y-16573008D02*
X7273634Y-16563484D01*
X7426015Y-16744436D02*
X7435539Y-16753960D01*
X7435539Y-16753960D02*
X7426015Y-16763484D01*
X7426015Y-16763484D02*
X7416491Y-16753960D01*
X7416491Y-16753960D02*
X7426015Y-16744436D01*
X7426015Y-16744436D02*
X7426015Y-16763484D01*
X7559348Y-16563484D02*
X7578396Y-16563484D01*
X7578396Y-16563484D02*
X7597444Y-16573008D01*
X7597444Y-16573008D02*
X7606967Y-16582531D01*
X7606967Y-16582531D02*
X7616491Y-16601579D01*
X7616491Y-16601579D02*
X7626015Y-16639674D01*
X7626015Y-16639674D02*
X7626015Y-16687293D01*
X7626015Y-16687293D02*
X7616491Y-16725388D01*
X7616491Y-16725388D02*
X7606967Y-16744436D01*
X7606967Y-16744436D02*
X7597444Y-16753960D01*
X7597444Y-16753960D02*
X7578396Y-16763484D01*
X7578396Y-16763484D02*
X7559348Y-16763484D01*
X7559348Y-16763484D02*
X7540301Y-16753960D01*
X7540301Y-16753960D02*
X7530777Y-16744436D01*
X7530777Y-16744436D02*
X7521253Y-16725388D01*
X7521253Y-16725388D02*
X7511729Y-16687293D01*
X7511729Y-16687293D02*
X7511729Y-16639674D01*
X7511729Y-16639674D02*
X7521253Y-16601579D01*
X7521253Y-16601579D02*
X7530777Y-16582531D01*
X7530777Y-16582531D02*
X7540301Y-16573008D01*
X7540301Y-16573008D02*
X7559348Y-16563484D01*
X7692682Y-16563484D02*
X7816491Y-16563484D01*
X7816491Y-16563484D02*
X7749825Y-16639674D01*
X7749825Y-16639674D02*
X7778396Y-16639674D01*
X7778396Y-16639674D02*
X7797444Y-16649198D01*
X7797444Y-16649198D02*
X7806967Y-16658722D01*
X7806967Y-16658722D02*
X7816491Y-16677769D01*
X7816491Y-16677769D02*
X7816491Y-16725388D01*
X7816491Y-16725388D02*
X7806967Y-16744436D01*
X7806967Y-16744436D02*
X7797444Y-16753960D01*
X7797444Y-16753960D02*
X7778396Y-16763484D01*
X7778396Y-16763484D02*
X7721253Y-16763484D01*
X7721253Y-16763484D02*
X7702206Y-16753960D01*
X7702206Y-16753960D02*
X7692682Y-16744436D01*
X7911729Y-16763484D02*
X7949825Y-16763484D01*
X7949825Y-16763484D02*
X7968872Y-16753960D01*
X7968872Y-16753960D02*
X7978396Y-16744436D01*
X7978396Y-16744436D02*
X7997444Y-16715865D01*
X7997444Y-16715865D02*
X8006967Y-16677769D01*
X8006967Y-16677769D02*
X8006967Y-16601579D01*
X8006967Y-16601579D02*
X7997444Y-16582531D01*
X7997444Y-16582531D02*
X7987920Y-16573008D01*
X7987920Y-16573008D02*
X7968872Y-16563484D01*
X7968872Y-16563484D02*
X7930777Y-16563484D01*
X7930777Y-16563484D02*
X7911729Y-16573008D01*
X7911729Y-16573008D02*
X7902206Y-16582531D01*
X7902206Y-16582531D02*
X7892682Y-16601579D01*
X7892682Y-16601579D02*
X7892682Y-16649198D01*
X7892682Y-16649198D02*
X7902206Y-16668246D01*
X7902206Y-16668246D02*
X7911729Y-16677769D01*
X7911729Y-16677769D02*
X7930777Y-16687293D01*
X7930777Y-16687293D02*
X7968872Y-16687293D01*
X7968872Y-16687293D02*
X7987920Y-16677769D01*
X7987920Y-16677769D02*
X7997444Y-16668246D01*
X7997444Y-16668246D02*
X8006967Y-16649198D01*
X8178396Y-16630150D02*
X8178396Y-16763484D01*
X8130777Y-16553960D02*
X8083158Y-16696817D01*
X8083158Y-16696817D02*
X8206967Y-16696817D01*
X8273634Y-16563484D02*
X8273634Y-16601579D01*
X8349825Y-16563484D02*
X8349825Y-16601579D01*
X8645063Y-16839674D02*
X8635539Y-16830150D01*
X8635539Y-16830150D02*
X8616491Y-16801579D01*
X8616491Y-16801579D02*
X8606968Y-16782531D01*
X8606968Y-16782531D02*
X8597444Y-16753960D01*
X8597444Y-16753960D02*
X8587920Y-16706341D01*
X8587920Y-16706341D02*
X8587920Y-16668246D01*
X8587920Y-16668246D02*
X8597444Y-16620627D01*
X8597444Y-16620627D02*
X8606968Y-16592055D01*
X8606968Y-16592055D02*
X8616491Y-16573008D01*
X8616491Y-16573008D02*
X8635539Y-16544436D01*
X8635539Y-16544436D02*
X8645063Y-16534912D01*
X8702206Y-16563484D02*
X8826015Y-16563484D01*
X8826015Y-16563484D02*
X8759349Y-16639674D01*
X8759349Y-16639674D02*
X8787920Y-16639674D01*
X8787920Y-16639674D02*
X8806968Y-16649198D01*
X8806968Y-16649198D02*
X8816491Y-16658722D01*
X8816491Y-16658722D02*
X8826015Y-16677769D01*
X8826015Y-16677769D02*
X8826015Y-16725388D01*
X8826015Y-16725388D02*
X8816491Y-16744436D01*
X8816491Y-16744436D02*
X8806968Y-16753960D01*
X8806968Y-16753960D02*
X8787920Y-16763484D01*
X8787920Y-16763484D02*
X8730777Y-16763484D01*
X8730777Y-16763484D02*
X8711730Y-16753960D01*
X8711730Y-16753960D02*
X8702206Y-16744436D01*
X8921253Y-16763484D02*
X8959349Y-16763484D01*
X8959349Y-16763484D02*
X8978396Y-16753960D01*
X8978396Y-16753960D02*
X8987920Y-16744436D01*
X8987920Y-16744436D02*
X9006968Y-16715865D01*
X9006968Y-16715865D02*
X9016491Y-16677769D01*
X9016491Y-16677769D02*
X9016491Y-16601579D01*
X9016491Y-16601579D02*
X9006968Y-16582531D01*
X9006968Y-16582531D02*
X8997444Y-16573008D01*
X8997444Y-16573008D02*
X8978396Y-16563484D01*
X8978396Y-16563484D02*
X8940301Y-16563484D01*
X8940301Y-16563484D02*
X8921253Y-16573008D01*
X8921253Y-16573008D02*
X8911730Y-16582531D01*
X8911730Y-16582531D02*
X8902206Y-16601579D01*
X8902206Y-16601579D02*
X8902206Y-16649198D01*
X8902206Y-16649198D02*
X8911730Y-16668246D01*
X8911730Y-16668246D02*
X8921253Y-16677769D01*
X8921253Y-16677769D02*
X8940301Y-16687293D01*
X8940301Y-16687293D02*
X8978396Y-16687293D01*
X8978396Y-16687293D02*
X8997444Y-16677769D01*
X8997444Y-16677769D02*
X9006968Y-16668246D01*
X9006968Y-16668246D02*
X9016491Y-16649198D01*
X9254587Y-16763484D02*
X9254587Y-16563484D01*
X9340301Y-16763484D02*
X9340301Y-16658722D01*
X9340301Y-16658722D02*
X9330777Y-16639674D01*
X9330777Y-16639674D02*
X9311730Y-16630150D01*
X9311730Y-16630150D02*
X9283158Y-16630150D01*
X9283158Y-16630150D02*
X9264111Y-16639674D01*
X9264111Y-16639674D02*
X9254587Y-16649198D01*
X9464111Y-16763484D02*
X9445063Y-16753960D01*
X9445063Y-16753960D02*
X9435539Y-16744436D01*
X9435539Y-16744436D02*
X9426015Y-16725388D01*
X9426015Y-16725388D02*
X9426015Y-16668246D01*
X9426015Y-16668246D02*
X9435539Y-16649198D01*
X9435539Y-16649198D02*
X9445063Y-16639674D01*
X9445063Y-16639674D02*
X9464111Y-16630150D01*
X9464111Y-16630150D02*
X9492682Y-16630150D01*
X9492682Y-16630150D02*
X9511730Y-16639674D01*
X9511730Y-16639674D02*
X9521253Y-16649198D01*
X9521253Y-16649198D02*
X9530777Y-16668246D01*
X9530777Y-16668246D02*
X9530777Y-16725388D01*
X9530777Y-16725388D02*
X9521253Y-16744436D01*
X9521253Y-16744436D02*
X9511730Y-16753960D01*
X9511730Y-16753960D02*
X9492682Y-16763484D01*
X9492682Y-16763484D02*
X9464111Y-16763484D01*
X9645063Y-16763484D02*
X9626015Y-16753960D01*
X9626015Y-16753960D02*
X9616492Y-16734912D01*
X9616492Y-16734912D02*
X9616492Y-16563484D01*
X9797444Y-16753960D02*
X9778396Y-16763484D01*
X9778396Y-16763484D02*
X9740301Y-16763484D01*
X9740301Y-16763484D02*
X9721253Y-16753960D01*
X9721253Y-16753960D02*
X9711730Y-16734912D01*
X9711730Y-16734912D02*
X9711730Y-16658722D01*
X9711730Y-16658722D02*
X9721253Y-16639674D01*
X9721253Y-16639674D02*
X9740301Y-16630150D01*
X9740301Y-16630150D02*
X9778396Y-16630150D01*
X9778396Y-16630150D02*
X9797444Y-16639674D01*
X9797444Y-16639674D02*
X9806968Y-16658722D01*
X9806968Y-16658722D02*
X9806968Y-16677769D01*
X9806968Y-16677769D02*
X9711730Y-16696817D01*
X9883158Y-16753960D02*
X9902206Y-16763484D01*
X9902206Y-16763484D02*
X9940301Y-16763484D01*
X9940301Y-16763484D02*
X9959349Y-16753960D01*
X9959349Y-16753960D02*
X9968873Y-16734912D01*
X9968873Y-16734912D02*
X9968873Y-16725388D01*
X9968873Y-16725388D02*
X9959349Y-16706341D01*
X9959349Y-16706341D02*
X9940301Y-16696817D01*
X9940301Y-16696817D02*
X9911730Y-16696817D01*
X9911730Y-16696817D02*
X9892682Y-16687293D01*
X9892682Y-16687293D02*
X9883158Y-16668246D01*
X9883158Y-16668246D02*
X9883158Y-16658722D01*
X9883158Y-16658722D02*
X9892682Y-16639674D01*
X9892682Y-16639674D02*
X9911730Y-16630150D01*
X9911730Y-16630150D02*
X9940301Y-16630150D01*
X9940301Y-16630150D02*
X9959349Y-16639674D01*
X10035539Y-16839674D02*
X10045063Y-16830150D01*
X10045063Y-16830150D02*
X10064111Y-16801579D01*
X10064111Y-16801579D02*
X10073634Y-16782531D01*
X10073634Y-16782531D02*
X10083158Y-16753960D01*
X10083158Y-16753960D02*
X10092682Y-16706341D01*
X10092682Y-16706341D02*
X10092682Y-16668246D01*
X10092682Y-16668246D02*
X10083158Y-16620627D01*
X10083158Y-16620627D02*
X10073634Y-16592055D01*
X10073634Y-16592055D02*
X10064111Y-16573008D01*
X10064111Y-16573008D02*
X10045063Y-16544436D01*
X10045063Y-16544436D02*
X10035539Y-16534912D01*
D12*
X5050962Y-16981962D02*
X5050962Y-16890038D01*
X4959038Y-16890038D01*
X4959038Y-16981962D01*
X5050962Y-16981962D01*
D10*
X5435539Y-17027484D02*
X5321253Y-17027484D01*
X5378396Y-17027484D02*
X5378396Y-16827484D01*
X5378396Y-16827484D02*
X5359348Y-16856055D01*
X5359348Y-16856055D02*
X5340301Y-16875103D01*
X5340301Y-16875103D02*
X5321253Y-16884627D01*
X5521253Y-17008436D02*
X5530777Y-17017960D01*
X5530777Y-17017960D02*
X5521253Y-17027484D01*
X5521253Y-17027484D02*
X5511729Y-17017960D01*
X5511729Y-17017960D02*
X5521253Y-17008436D01*
X5521253Y-17008436D02*
X5521253Y-17027484D01*
X5597443Y-16827484D02*
X5721253Y-16827484D01*
X5721253Y-16827484D02*
X5654586Y-16903674D01*
X5654586Y-16903674D02*
X5683158Y-16903674D01*
X5683158Y-16903674D02*
X5702205Y-16913198D01*
X5702205Y-16913198D02*
X5711729Y-16922722D01*
X5711729Y-16922722D02*
X5721253Y-16941770D01*
X5721253Y-16941770D02*
X5721253Y-16989389D01*
X5721253Y-16989389D02*
X5711729Y-17008436D01*
X5711729Y-17008436D02*
X5702205Y-17017960D01*
X5702205Y-17017960D02*
X5683158Y-17027484D01*
X5683158Y-17027484D02*
X5626015Y-17027484D01*
X5626015Y-17027484D02*
X5606967Y-17017960D01*
X5606967Y-17017960D02*
X5597443Y-17008436D01*
X5845062Y-16827484D02*
X5864110Y-16827484D01*
X5864110Y-16827484D02*
X5883158Y-16837008D01*
X5883158Y-16837008D02*
X5892682Y-16846531D01*
X5892682Y-16846531D02*
X5902205Y-16865579D01*
X5902205Y-16865579D02*
X5911729Y-16903674D01*
X5911729Y-16903674D02*
X5911729Y-16951293D01*
X5911729Y-16951293D02*
X5902205Y-16989389D01*
X5902205Y-16989389D02*
X5892682Y-17008436D01*
X5892682Y-17008436D02*
X5883158Y-17017960D01*
X5883158Y-17017960D02*
X5864110Y-17027484D01*
X5864110Y-17027484D02*
X5845062Y-17027484D01*
X5845062Y-17027484D02*
X5826015Y-17017960D01*
X5826015Y-17017960D02*
X5816491Y-17008436D01*
X5816491Y-17008436D02*
X5806967Y-16989389D01*
X5806967Y-16989389D02*
X5797443Y-16951293D01*
X5797443Y-16951293D02*
X5797443Y-16903674D01*
X5797443Y-16903674D02*
X5806967Y-16865579D01*
X5806967Y-16865579D02*
X5816491Y-16846531D01*
X5816491Y-16846531D02*
X5826015Y-16837008D01*
X5826015Y-16837008D02*
X5845062Y-16827484D01*
X6035539Y-16827484D02*
X6054586Y-16827484D01*
X6054586Y-16827484D02*
X6073634Y-16837008D01*
X6073634Y-16837008D02*
X6083158Y-16846531D01*
X6083158Y-16846531D02*
X6092682Y-16865579D01*
X6092682Y-16865579D02*
X6102205Y-16903674D01*
X6102205Y-16903674D02*
X6102205Y-16951293D01*
X6102205Y-16951293D02*
X6092682Y-16989389D01*
X6092682Y-16989389D02*
X6083158Y-17008436D01*
X6083158Y-17008436D02*
X6073634Y-17017960D01*
X6073634Y-17017960D02*
X6054586Y-17027484D01*
X6054586Y-17027484D02*
X6035539Y-17027484D01*
X6035539Y-17027484D02*
X6016491Y-17017960D01*
X6016491Y-17017960D02*
X6006967Y-17008436D01*
X6006967Y-17008436D02*
X5997443Y-16989389D01*
X5997443Y-16989389D02*
X5987920Y-16951293D01*
X5987920Y-16951293D02*
X5987920Y-16903674D01*
X5987920Y-16903674D02*
X5997443Y-16865579D01*
X5997443Y-16865579D02*
X6006967Y-16846531D01*
X6006967Y-16846531D02*
X6016491Y-16837008D01*
X6016491Y-16837008D02*
X6035539Y-16827484D01*
X6187920Y-17027484D02*
X6187920Y-16894150D01*
X6187920Y-16913198D02*
X6197443Y-16903674D01*
X6197443Y-16903674D02*
X6216491Y-16894150D01*
X6216491Y-16894150D02*
X6245063Y-16894150D01*
X6245063Y-16894150D02*
X6264110Y-16903674D01*
X6264110Y-16903674D02*
X6273634Y-16922722D01*
X6273634Y-16922722D02*
X6273634Y-17027484D01*
X6273634Y-16922722D02*
X6283158Y-16903674D01*
X6283158Y-16903674D02*
X6302205Y-16894150D01*
X6302205Y-16894150D02*
X6330777Y-16894150D01*
X6330777Y-16894150D02*
X6349824Y-16903674D01*
X6349824Y-16903674D02*
X6359348Y-16922722D01*
X6359348Y-16922722D02*
X6359348Y-17027484D01*
X6454586Y-17027484D02*
X6454586Y-16894150D01*
X6454586Y-16913198D02*
X6464110Y-16903674D01*
X6464110Y-16903674D02*
X6483158Y-16894150D01*
X6483158Y-16894150D02*
X6511729Y-16894150D01*
X6511729Y-16894150D02*
X6530777Y-16903674D01*
X6530777Y-16903674D02*
X6540301Y-16922722D01*
X6540301Y-16922722D02*
X6540301Y-17027484D01*
X6540301Y-16922722D02*
X6549824Y-16903674D01*
X6549824Y-16903674D02*
X6568872Y-16894150D01*
X6568872Y-16894150D02*
X6597443Y-16894150D01*
X6597443Y-16894150D02*
X6616491Y-16903674D01*
X6616491Y-16903674D02*
X6626015Y-16922722D01*
X6626015Y-16922722D02*
X6626015Y-17027484D01*
X7016491Y-16817960D02*
X6845063Y-17075103D01*
X7273634Y-16827484D02*
X7292682Y-16827484D01*
X7292682Y-16827484D02*
X7311729Y-16837008D01*
X7311729Y-16837008D02*
X7321253Y-16846531D01*
X7321253Y-16846531D02*
X7330777Y-16865579D01*
X7330777Y-16865579D02*
X7340301Y-16903674D01*
X7340301Y-16903674D02*
X7340301Y-16951293D01*
X7340301Y-16951293D02*
X7330777Y-16989389D01*
X7330777Y-16989389D02*
X7321253Y-17008436D01*
X7321253Y-17008436D02*
X7311729Y-17017960D01*
X7311729Y-17017960D02*
X7292682Y-17027484D01*
X7292682Y-17027484D02*
X7273634Y-17027484D01*
X7273634Y-17027484D02*
X7254586Y-17017960D01*
X7254586Y-17017960D02*
X7245063Y-17008436D01*
X7245063Y-17008436D02*
X7235539Y-16989389D01*
X7235539Y-16989389D02*
X7226015Y-16951293D01*
X7226015Y-16951293D02*
X7226015Y-16903674D01*
X7226015Y-16903674D02*
X7235539Y-16865579D01*
X7235539Y-16865579D02*
X7245063Y-16846531D01*
X7245063Y-16846531D02*
X7254586Y-16837008D01*
X7254586Y-16837008D02*
X7273634Y-16827484D01*
X7426015Y-17008436D02*
X7435539Y-17017960D01*
X7435539Y-17017960D02*
X7426015Y-17027484D01*
X7426015Y-17027484D02*
X7416491Y-17017960D01*
X7416491Y-17017960D02*
X7426015Y-17008436D01*
X7426015Y-17008436D02*
X7426015Y-17027484D01*
X7559348Y-16827484D02*
X7578396Y-16827484D01*
X7578396Y-16827484D02*
X7597444Y-16837008D01*
X7597444Y-16837008D02*
X7606967Y-16846531D01*
X7606967Y-16846531D02*
X7616491Y-16865579D01*
X7616491Y-16865579D02*
X7626015Y-16903674D01*
X7626015Y-16903674D02*
X7626015Y-16951293D01*
X7626015Y-16951293D02*
X7616491Y-16989389D01*
X7616491Y-16989389D02*
X7606967Y-17008436D01*
X7606967Y-17008436D02*
X7597444Y-17017960D01*
X7597444Y-17017960D02*
X7578396Y-17027484D01*
X7578396Y-17027484D02*
X7559348Y-17027484D01*
X7559348Y-17027484D02*
X7540301Y-17017960D01*
X7540301Y-17017960D02*
X7530777Y-17008436D01*
X7530777Y-17008436D02*
X7521253Y-16989389D01*
X7521253Y-16989389D02*
X7511729Y-16951293D01*
X7511729Y-16951293D02*
X7511729Y-16903674D01*
X7511729Y-16903674D02*
X7521253Y-16865579D01*
X7521253Y-16865579D02*
X7530777Y-16846531D01*
X7530777Y-16846531D02*
X7540301Y-16837008D01*
X7540301Y-16837008D02*
X7559348Y-16827484D01*
X7806967Y-16827484D02*
X7711729Y-16827484D01*
X7711729Y-16827484D02*
X7702206Y-16922722D01*
X7702206Y-16922722D02*
X7711729Y-16913198D01*
X7711729Y-16913198D02*
X7730777Y-16903674D01*
X7730777Y-16903674D02*
X7778396Y-16903674D01*
X7778396Y-16903674D02*
X7797444Y-16913198D01*
X7797444Y-16913198D02*
X7806967Y-16922722D01*
X7806967Y-16922722D02*
X7816491Y-16941770D01*
X7816491Y-16941770D02*
X7816491Y-16989389D01*
X7816491Y-16989389D02*
X7806967Y-17008436D01*
X7806967Y-17008436D02*
X7797444Y-17017960D01*
X7797444Y-17017960D02*
X7778396Y-17027484D01*
X7778396Y-17027484D02*
X7730777Y-17027484D01*
X7730777Y-17027484D02*
X7711729Y-17017960D01*
X7711729Y-17017960D02*
X7702206Y-17008436D01*
X8006967Y-17027484D02*
X7892682Y-17027484D01*
X7949825Y-17027484D02*
X7949825Y-16827484D01*
X7949825Y-16827484D02*
X7930777Y-16856055D01*
X7930777Y-16856055D02*
X7911729Y-16875103D01*
X7911729Y-16875103D02*
X7892682Y-16884627D01*
X8083158Y-16846531D02*
X8092682Y-16837008D01*
X8092682Y-16837008D02*
X8111729Y-16827484D01*
X8111729Y-16827484D02*
X8159348Y-16827484D01*
X8159348Y-16827484D02*
X8178396Y-16837008D01*
X8178396Y-16837008D02*
X8187920Y-16846531D01*
X8187920Y-16846531D02*
X8197444Y-16865579D01*
X8197444Y-16865579D02*
X8197444Y-16884627D01*
X8197444Y-16884627D02*
X8187920Y-16913198D01*
X8187920Y-16913198D02*
X8073634Y-17027484D01*
X8073634Y-17027484D02*
X8197444Y-17027484D01*
X8273634Y-16827484D02*
X8273634Y-16865579D01*
X8349825Y-16827484D02*
X8349825Y-16865579D01*
X8645063Y-17103674D02*
X8635539Y-17094150D01*
X8635539Y-17094150D02*
X8616491Y-17065579D01*
X8616491Y-17065579D02*
X8606968Y-17046531D01*
X8606968Y-17046531D02*
X8597444Y-17017960D01*
X8597444Y-17017960D02*
X8587920Y-16970341D01*
X8587920Y-16970341D02*
X8587920Y-16932246D01*
X8587920Y-16932246D02*
X8597444Y-16884627D01*
X8597444Y-16884627D02*
X8606968Y-16856055D01*
X8606968Y-16856055D02*
X8616491Y-16837008D01*
X8616491Y-16837008D02*
X8635539Y-16808436D01*
X8635539Y-16808436D02*
X8645063Y-16798912D01*
X8826015Y-17027484D02*
X8711730Y-17027484D01*
X8768872Y-17027484D02*
X8768872Y-16827484D01*
X8768872Y-16827484D02*
X8749825Y-16856055D01*
X8749825Y-16856055D02*
X8730777Y-16875103D01*
X8730777Y-16875103D02*
X8711730Y-16884627D01*
X8902206Y-16846531D02*
X8911730Y-16837008D01*
X8911730Y-16837008D02*
X8930777Y-16827484D01*
X8930777Y-16827484D02*
X8978396Y-16827484D01*
X8978396Y-16827484D02*
X8997444Y-16837008D01*
X8997444Y-16837008D02*
X9006968Y-16846531D01*
X9006968Y-16846531D02*
X9016491Y-16865579D01*
X9016491Y-16865579D02*
X9016491Y-16884627D01*
X9016491Y-16884627D02*
X9006968Y-16913198D01*
X9006968Y-16913198D02*
X8892682Y-17027484D01*
X8892682Y-17027484D02*
X9016491Y-17027484D01*
X9254587Y-17027484D02*
X9254587Y-16827484D01*
X9340301Y-17027484D02*
X9340301Y-16922722D01*
X9340301Y-16922722D02*
X9330777Y-16903674D01*
X9330777Y-16903674D02*
X9311730Y-16894150D01*
X9311730Y-16894150D02*
X9283158Y-16894150D01*
X9283158Y-16894150D02*
X9264111Y-16903674D01*
X9264111Y-16903674D02*
X9254587Y-16913198D01*
X9464111Y-17027484D02*
X9445063Y-17017960D01*
X9445063Y-17017960D02*
X9435539Y-17008436D01*
X9435539Y-17008436D02*
X9426015Y-16989389D01*
X9426015Y-16989389D02*
X9426015Y-16932246D01*
X9426015Y-16932246D02*
X9435539Y-16913198D01*
X9435539Y-16913198D02*
X9445063Y-16903674D01*
X9445063Y-16903674D02*
X9464111Y-16894150D01*
X9464111Y-16894150D02*
X9492682Y-16894150D01*
X9492682Y-16894150D02*
X9511730Y-16903674D01*
X9511730Y-16903674D02*
X9521253Y-16913198D01*
X9521253Y-16913198D02*
X9530777Y-16932246D01*
X9530777Y-16932246D02*
X9530777Y-16989389D01*
X9530777Y-16989389D02*
X9521253Y-17008436D01*
X9521253Y-17008436D02*
X9511730Y-17017960D01*
X9511730Y-17017960D02*
X9492682Y-17027484D01*
X9492682Y-17027484D02*
X9464111Y-17027484D01*
X9645063Y-17027484D02*
X9626015Y-17017960D01*
X9626015Y-17017960D02*
X9616492Y-16998912D01*
X9616492Y-16998912D02*
X9616492Y-16827484D01*
X9797444Y-17017960D02*
X9778396Y-17027484D01*
X9778396Y-17027484D02*
X9740301Y-17027484D01*
X9740301Y-17027484D02*
X9721253Y-17017960D01*
X9721253Y-17017960D02*
X9711730Y-16998912D01*
X9711730Y-16998912D02*
X9711730Y-16922722D01*
X9711730Y-16922722D02*
X9721253Y-16903674D01*
X9721253Y-16903674D02*
X9740301Y-16894150D01*
X9740301Y-16894150D02*
X9778396Y-16894150D01*
X9778396Y-16894150D02*
X9797444Y-16903674D01*
X9797444Y-16903674D02*
X9806968Y-16922722D01*
X9806968Y-16922722D02*
X9806968Y-16941770D01*
X9806968Y-16941770D02*
X9711730Y-16960817D01*
X9883158Y-17017960D02*
X9902206Y-17027484D01*
X9902206Y-17027484D02*
X9940301Y-17027484D01*
X9940301Y-17027484D02*
X9959349Y-17017960D01*
X9959349Y-17017960D02*
X9968873Y-16998912D01*
X9968873Y-16998912D02*
X9968873Y-16989389D01*
X9968873Y-16989389D02*
X9959349Y-16970341D01*
X9959349Y-16970341D02*
X9940301Y-16960817D01*
X9940301Y-16960817D02*
X9911730Y-16960817D01*
X9911730Y-16960817D02*
X9892682Y-16951293D01*
X9892682Y-16951293D02*
X9883158Y-16932246D01*
X9883158Y-16932246D02*
X9883158Y-16922722D01*
X9883158Y-16922722D02*
X9892682Y-16903674D01*
X9892682Y-16903674D02*
X9911730Y-16894150D01*
X9911730Y-16894150D02*
X9940301Y-16894150D01*
X9940301Y-16894150D02*
X9959349Y-16903674D01*
X10035539Y-17103674D02*
X10045063Y-17094150D01*
X10045063Y-17094150D02*
X10064111Y-17065579D01*
X10064111Y-17065579D02*
X10073634Y-17046531D01*
X10073634Y-17046531D02*
X10083158Y-17017960D01*
X10083158Y-17017960D02*
X10092682Y-16970341D01*
X10092682Y-16970341D02*
X10092682Y-16932246D01*
X10092682Y-16932246D02*
X10083158Y-16884627D01*
X10083158Y-16884627D02*
X10073634Y-16856055D01*
X10073634Y-16856055D02*
X10064111Y-16837008D01*
X10064111Y-16837008D02*
X10045063Y-16808436D01*
X10045063Y-16808436D02*
X10035539Y-16798912D01*
M02*
