M48
; DRILL file {KiCad 8.0.6-8.0.6-0~ubuntu24.04.1} date 2024-10-31T19:49:45+0000
; FORMAT={-:-/ absolute / inch / decimal}
; #@! TF.CreationDate,2024-10-31T19:49:45+00:00
; #@! TF.GenerationSoftware,Kicad,Pcbnew,8.0.6-8.0.6-0~ubuntu24.04.1
; #@! TF.FileFunction,Plated,1,2,PTH
FMAT,2
INCH
; #@! TA.AperFunction,Plated,PTH,ViaDrill
T1C0.0315
; #@! TA.AperFunction,Plated,PTH,ComponentDrill
T2C0.0319
; #@! TA.AperFunction,Plated,PTH,ComponentDrill
T3C0.0394
; #@! TA.AperFunction,Plated,PTH,ComponentDrill
T4C0.0512
%
G90
G05
T1
X3.2Y-4.3
X3.22Y-4.98
X3.63Y-4.98
X3.65Y-4.2
X3.65Y-4.3
X4.0Y-3.4
X4.0Y-3.7
X4.0Y-4.1
X4.5Y-4.0
X5.0Y-4.0
T2
X2.8283Y-3.6
X2.8283Y-3.7
X2.8283Y-3.8
X2.8283Y-3.9
X2.8283Y-4.0
X2.8283Y-4.1
X2.8283Y-5.1
X2.8283Y-5.2
X2.8283Y-5.3
X2.8283Y-5.4
X2.8283Y-5.5
X2.8283Y-5.6
X3.6283Y-3.7
X3.6283Y-3.8
X3.6283Y-3.9
X3.6283Y-4.0
X3.6283Y-5.2
X3.6283Y-5.3
X3.6283Y-5.4
X3.6283Y-5.5
T3
X4.0Y-4.35
X4.0Y-4.45
X4.0Y-4.55
X4.0Y-4.65
X4.0Y-4.75
X4.0Y-4.85
X4.0Y-4.95
X4.0Y-5.05
X4.0Y-5.15
X4.0Y-5.25
X4.0Y-5.35
X4.0Y-5.45
X4.0Y-5.55
X4.0Y-5.65
X4.0Y-5.75
X4.6Y-4.35
X4.6Y-4.45
X4.6Y-4.55
X4.6Y-4.65
X4.6Y-4.75
X4.6Y-4.85
X4.6Y-4.95
X4.6Y-5.05
X4.6Y-5.15
X4.6Y-5.25
X4.6Y-5.35
X4.6Y-5.45
X4.6Y-5.55
X4.6Y-5.65
X4.6Y-5.75
X5.0Y-4.9
X5.0Y-5.0
X5.0Y-5.1
X5.0Y-5.2
X5.0Y-5.3
X5.0Y-5.4
X5.0Y-5.5
X5.0Y-5.6
X5.0Y-5.7
T4
X2.288Y-4.9079
X2.288Y-5.1047
X2.288Y-5.3016
X2.288Y-5.4984
X2.288Y-5.6953
X2.288Y-5.8921
X2.3Y-3.5094
X2.3Y-3.7063
X2.3Y-3.9031
X2.3Y-4.1
X2.3Y-4.2969
X2.3Y-4.4937
M30
