%TF.GenerationSoftware,KiCad,Pcbnew,8.0.6-8.0.6-0~ubuntu24.04.1*%
%TF.CreationDate,2024-10-31T19:49:34+00:00*%
%TF.ProjectId,Windtunnel_Schematic,57696e64-7475-46e6-9e65-6c5f53636865,rev?*%
%TF.SameCoordinates,Original*%
%TF.FileFunction,Copper,L2,Bot*%
%TF.FilePolarity,Positive*%
%FSLAX46Y46*%
G04 Gerber Fmt 4.6, Leading zero omitted, Abs format (unit mm)*
G04 Created by KiCad (PCBNEW 8.0.6-8.0.6-0~ubuntu24.04.1) date 2024-10-31 19:49:34*
%MOMM*%
%LPD*%
G01*
G04 APERTURE LIST*
G04 Aperture macros list*
%AMFreePoly0*
4,1,6,1.000000,0.000000,0.500000,-0.750000,-0.500000,-0.750000,-0.500000,0.750000,0.500000,0.750000,1.000000,0.000000,1.000000,0.000000,$1*%
%AMFreePoly1*
4,1,6,0.500000,-0.750000,-0.650000,-0.750000,-0.150000,0.000000,-0.650000,0.750000,0.500000,0.750000,0.500000,-0.750000,0.500000,-0.750000,$1*%
G04 Aperture macros list end*
%TA.AperFunction,ComponentPad*%
%ADD10O,2.500000X1.524000*%
%TD*%
%TA.AperFunction,SMDPad,CuDef*%
%ADD11FreePoly0,180.000000*%
%TD*%
%TA.AperFunction,SMDPad,CuDef*%
%ADD12FreePoly1,180.000000*%
%TD*%
%TA.AperFunction,ComponentPad*%
%ADD13R,1.700000X1.700000*%
%TD*%
%TA.AperFunction,ComponentPad*%
%ADD14O,1.700000X1.700000*%
%TD*%
%TA.AperFunction,ComponentPad*%
%ADD15R,2.600000X2.600000*%
%TD*%
%TA.AperFunction,ComponentPad*%
%ADD16C,2.600000*%
%TD*%
%TA.AperFunction,ComponentPad*%
%ADD17R,2.500000X1.600000*%
%TD*%
%TA.AperFunction,ComponentPad*%
%ADD18O,2.600000X1.600000*%
%TD*%
%TA.AperFunction,ComponentPad*%
%ADD19O,2.500000X1.600000*%
%TD*%
%TA.AperFunction,ViaPad*%
%ADD20C,1.000000*%
%TD*%
%TA.AperFunction,Conductor*%
%ADD21C,1.000000*%
%TD*%
G04 APERTURE END LIST*
D10*
%TO.P,U2,1,E+*%
%TO.N,/HX712/E+*%
X71840000Y-129540000D03*
%TO.P,U2,2,E-*%
%TO.N,/HX712/E-*%
X71840000Y-132080000D03*
%TO.P,U2,3,A-*%
%TO.N,/HX712/A-*%
X71840000Y-134620000D03*
%TO.P,U2,4,A+*%
%TO.N,/HX712/A+*%
X71840000Y-137160000D03*
%TO.P,U2,5,B-*%
%TO.N,/HX712/B-*%
X71840000Y-139700000D03*
%TO.P,U2,6,B+*%
%TO.N,/HX712/B+*%
X71840000Y-142240000D03*
%TO.P,U2,7,GND*%
%TO.N,GND*%
X92160000Y-132080000D03*
%TO.P,U2,8,DOUT*%
%TO.N,/Arduino_nano/D6_DOUT_L1*%
X92160000Y-134620000D03*
%TO.P,U2,9,SCK*%
%TO.N,/Arduino_nano/D7_SCK_L1*%
X92160000Y-137160000D03*
%TO.P,U2,10,VCC*%
%TO.N,+5V*%
X92160000Y-139700000D03*
%TD*%
%TO.P,U1,1,E+*%
%TO.N,/HX711/E+*%
X71840000Y-91440000D03*
%TO.P,U1,2,E-*%
%TO.N,/HX711/E-*%
X71840000Y-93980000D03*
%TO.P,U1,3,A-*%
%TO.N,/HX711/A-*%
X71840000Y-96520000D03*
%TO.P,U1,4,A+*%
%TO.N,/HX711/A+*%
X71840000Y-99060000D03*
%TO.P,U1,5,B-*%
%TO.N,/HX711/B-*%
X71840000Y-101600000D03*
%TO.P,U1,6,B+*%
%TO.N,/HX711/B+*%
X71840000Y-104140000D03*
%TO.P,U1,7,GND*%
%TO.N,GND*%
X92160000Y-93980000D03*
%TO.P,U1,8,DOUT*%
%TO.N,/Arduino_nano/D4_DOUT_L2*%
X92160000Y-96520000D03*
%TO.P,U1,9,SCK*%
%TO.N,/Arduino_nano/D5_SCK_L2*%
X92160000Y-99060000D03*
%TO.P,U1,10,VCC*%
%TO.N,+5V*%
X92160000Y-101600000D03*
%TD*%
D11*
%TO.P,JP4,1,A*%
%TO.N,GND*%
X78158000Y-132080000D03*
D12*
%TO.P,JP4,2,B*%
%TO.N,/HX712/E-*%
X76708000Y-132080000D03*
%TD*%
D11*
%TO.P,JP3,1,A*%
%TO.N,GND*%
X78830000Y-93980000D03*
D12*
%TO.P,JP3,2,B*%
%TO.N,/HX711/E-*%
X77380000Y-93980000D03*
%TD*%
D13*
%TO.P,J3,1,Pin_1*%
%TO.N,+5V*%
X127000000Y-124460000D03*
D14*
%TO.P,J3,2,Pin_2*%
%TO.N,/Arduino_nano/A5_SCL*%
X127000000Y-127000000D03*
%TO.P,J3,3,Pin_3*%
%TO.N,/Arduino_nano/A4_SDA*%
X127000000Y-129540000D03*
%TO.P,J3,4,Pin_4*%
%TO.N,GND*%
X127000000Y-132080000D03*
%TO.P,J3,5,Pin_5*%
%TO.N,unconnected-(J3-Pin_5-Pad5)*%
X127000000Y-134620000D03*
%TO.P,J3,6,Pin_6*%
%TO.N,+3.3V*%
X127000000Y-137160000D03*
%TO.P,J3,7,Pin_7*%
%TO.N,/Arduino_nano/D11*%
X127000000Y-139700000D03*
%TO.P,J3,8,Pin_8*%
%TO.N,/Arduino_nano/D12*%
X127000000Y-142240000D03*
%TO.P,J3,9,Pin_9*%
%TO.N,/Arduino_nano/D13*%
X127000000Y-144780000D03*
%TD*%
D15*
%TO.P,J4,1,Pin_1*%
%TO.N,/HX711/E+*%
X58420000Y-89140000D03*
D16*
%TO.P,J4,2,Pin_2*%
%TO.N,/HX711/E-*%
X58420000Y-94140000D03*
%TO.P,J4,3,Pin_3*%
%TO.N,/HX711/A-*%
X58420000Y-99140000D03*
%TO.P,J4,4,Pin_4*%
%TO.N,/HX711/A+*%
X58420000Y-104140000D03*
%TO.P,J4,5,Pin_5*%
%TO.N,Net-(J4-Pin_5)*%
X58420000Y-109140000D03*
%TO.P,J4,6,Pin_6*%
%TO.N,unconnected-(J4-Pin_6-Pad6)*%
X58420000Y-114140000D03*
%TD*%
D15*
%TO.P,J5,1,Pin_1*%
%TO.N,/HX712/E+*%
X58115000Y-124660000D03*
D16*
%TO.P,J5,2,Pin_2*%
%TO.N,/HX712/E-*%
X58115000Y-129660000D03*
%TO.P,J5,3,Pin_3*%
%TO.N,/HX712/A-*%
X58115000Y-134660000D03*
%TO.P,J5,4,Pin_4*%
%TO.N,/HX712/A+*%
X58115000Y-139660000D03*
%TO.P,J5,5,Pin_5*%
%TO.N,Net-(J5-Pin_5)*%
X58115000Y-144660000D03*
%TO.P,J5,6,Pin_6*%
%TO.N,unconnected-(J5-Pin_6-Pad6)*%
X58115000Y-149660000D03*
%TD*%
D17*
%TO.P,A1,1,D1/TX*%
%TO.N,unconnected-(A1-D1{slash}TX-Pad1)*%
X101600000Y-110490000D03*
D18*
%TO.P,A1,2,D0/RX*%
%TO.N,unconnected-(A1-D0{slash}RX-Pad2)*%
X101600000Y-113030000D03*
D19*
%TO.P,A1,3,~{RESET}*%
%TO.N,unconnected-(A1-~{RESET}-Pad3)*%
X101600000Y-115570000D03*
%TO.P,A1,4,GND*%
%TO.N,GND*%
X101600000Y-118110000D03*
%TO.P,A1,5,D2*%
%TO.N,unconnected-(A1-D2-Pad5)*%
X101600000Y-120650000D03*
%TO.P,A1,6,D3*%
%TO.N,unconnected-(A1-D3-Pad6)*%
X101600000Y-123190000D03*
%TO.P,A1,7,D4*%
%TO.N,/Arduino_nano/D4_DOUT_L2*%
X101600000Y-125730000D03*
%TO.P,A1,8,D5*%
%TO.N,/Arduino_nano/D5_SCK_L2*%
X101600000Y-128270000D03*
%TO.P,A1,9,D6*%
%TO.N,/Arduino_nano/D6_DOUT_L1*%
X101600000Y-130810000D03*
%TO.P,A1,10,D7*%
%TO.N,/Arduino_nano/D7_SCK_L1*%
X101600000Y-133350000D03*
%TO.P,A1,11,D8*%
%TO.N,unconnected-(A1-D8-Pad11)*%
X101600000Y-135890000D03*
%TO.P,A1,12,D9*%
%TO.N,unconnected-(A1-D9-Pad12)*%
X101600000Y-138430000D03*
%TO.P,A1,13,D10*%
%TO.N,/Arduino_nano/D11*%
X101600000Y-140970000D03*
%TO.P,A1,14,D11*%
%TO.N,/Arduino_nano/D12*%
X101600000Y-143510000D03*
%TO.P,A1,15,D12*%
%TO.N,/Arduino_nano/D13*%
X101600000Y-146050000D03*
%TO.P,A1,16,D13*%
%TO.N,unconnected-(A1-D13-Pad16)*%
X116840000Y-146050000D03*
%TO.P,A1,17,3V3*%
%TO.N,+3.3V*%
X116840000Y-143510000D03*
%TO.P,A1,18,AREF*%
%TO.N,unconnected-(A1-AREF-Pad18)*%
X116840000Y-140970000D03*
%TO.P,A1,19,A0*%
%TO.N,unconnected-(A1-A0-Pad19)*%
X116840000Y-138430000D03*
%TO.P,A1,20,A1*%
%TO.N,unconnected-(A1-A1-Pad20)*%
X116840000Y-135890000D03*
%TO.P,A1,21,A2*%
%TO.N,unconnected-(A1-A2-Pad21)*%
X116840000Y-133350000D03*
%TO.P,A1,22,A3*%
%TO.N,unconnected-(A1-A3-Pad22)*%
X116840000Y-130810000D03*
%TO.P,A1,23,A4*%
%TO.N,/Arduino_nano/A4_SDA*%
X116840000Y-128270000D03*
%TO.P,A1,24,A5*%
%TO.N,/Arduino_nano/A5_SCL*%
X116840000Y-125730000D03*
%TO.P,A1,25,A6*%
%TO.N,unconnected-(A1-A6-Pad25)*%
X116840000Y-123190000D03*
%TO.P,A1,26,A7*%
%TO.N,unconnected-(A1-A7-Pad26)*%
X116840000Y-120650000D03*
%TO.P,A1,27,+5V*%
%TO.N,+5V*%
X116840000Y-118110000D03*
%TO.P,A1,28,~{RESET}*%
%TO.N,unconnected-(A1-~{RESET}-Pad28)*%
X116840000Y-115570000D03*
%TO.P,A1,29,GND*%
%TO.N,GND*%
X116840000Y-113030000D03*
%TO.P,A1,30,VIN*%
%TO.N,unconnected-(A1-VIN-Pad30)*%
X116840000Y-110490000D03*
%TD*%
D11*
%TO.P,JP1,1,A*%
%TO.N,GND*%
X71120000Y-147320000D03*
D12*
%TO.P,JP1,2,B*%
%TO.N,Net-(J5-Pin_5)*%
X69670000Y-147320000D03*
%TD*%
D11*
%TO.P,JP2,1,A*%
%TO.N,GND*%
X71120000Y-109220000D03*
D12*
%TO.P,JP2,2,B*%
%TO.N,Net-(J4-Pin_5)*%
X69670000Y-109220000D03*
%TD*%
D20*
%TO.N,GND*%
X101600000Y-104140000D03*
X92710000Y-106680000D03*
X81280000Y-109220000D03*
X92710000Y-109220000D03*
X101600000Y-86360000D03*
X101600000Y-93980000D03*
X127000000Y-101600000D03*
X114300000Y-101600000D03*
X81788000Y-126492000D03*
X92202000Y-126492000D03*
%TD*%
D21*
%TO.N,+3.3V*%
X116840000Y-143510000D02*
X119090000Y-143510000D01*
X119090000Y-143510000D02*
X119590000Y-143010000D01*
X124714000Y-137160000D02*
X127000000Y-137160000D01*
X119590000Y-143010000D02*
X119590000Y-142284000D01*
X119590000Y-142284000D02*
X124714000Y-137160000D01*
%TO.N,/Arduino_nano/D11*%
X101600000Y-140970000D02*
X103850000Y-140970000D01*
X103850000Y-140970000D02*
X111230000Y-148350000D01*
X111230000Y-148350000D02*
X118731000Y-148350000D01*
X118731000Y-148350000D02*
X122850000Y-144231000D01*
X124968000Y-139700000D02*
X127000000Y-139700000D01*
X122850000Y-144231000D02*
X122850000Y-141818000D01*
X122850000Y-141818000D02*
X124968000Y-139700000D01*
%TO.N,/HX711/E-*%
X71840000Y-93980000D02*
X76525097Y-93980000D01*
%TO.N,/HX712/E-*%
X71840000Y-132080000D02*
X75853097Y-132080000D01*
%TO.N,/Arduino_nano/D13*%
X101600000Y-146050000D02*
X107900000Y-152350000D01*
X107900000Y-152350000D02*
X121208000Y-152350000D01*
X121208000Y-152350000D02*
X127000000Y-146558000D01*
X127000000Y-146558000D02*
X127000000Y-144780000D01*
%TO.N,/Arduino_nano/D12*%
X101600000Y-143510000D02*
X102762691Y-143510000D01*
X124650000Y-145753402D02*
X124650000Y-143574000D01*
X102762691Y-143510000D02*
X109602691Y-150350000D01*
X109602691Y-150350000D02*
X120053402Y-150350000D01*
X120053402Y-150350000D02*
X124650000Y-145753402D01*
X124650000Y-143574000D02*
X125984000Y-142240000D01*
X125984000Y-142240000D02*
X127000000Y-142240000D01*
%TO.N,/Arduino_nano/A4_SDA*%
X127000000Y-129540000D02*
X119272691Y-129540000D01*
X119272691Y-129540000D02*
X118002691Y-128270000D01*
X118002691Y-128270000D02*
X116840000Y-128270000D01*
%TO.N,/Arduino_nano/A5_SCL*%
X127000000Y-127000000D02*
X124460000Y-127000000D01*
X124460000Y-127000000D02*
X123190000Y-125730000D01*
X123190000Y-125730000D02*
X116840000Y-125730000D01*
%TO.N,+5V*%
X127000000Y-124460000D02*
X120650000Y-118110000D01*
X120650000Y-118110000D02*
X116840000Y-118110000D01*
%TO.N,/Arduino_nano/D4_DOUT_L2*%
X92160000Y-96520000D02*
X94698428Y-96520000D01*
X98800000Y-100621572D02*
X98800000Y-124092691D01*
X100437309Y-125730000D02*
X101600000Y-125730000D01*
X98800000Y-124092691D02*
X100437309Y-125730000D01*
X94698428Y-96520000D02*
X98800000Y-100621572D01*
%TO.N,/Arduino_nano/D7_SCK_L1*%
X96627309Y-137160000D02*
X100437309Y-133350000D01*
X92160000Y-137160000D02*
X96627309Y-137160000D01*
X100437309Y-133350000D02*
X101600000Y-133350000D01*
%TO.N,+5V*%
X85852000Y-90678000D02*
X87376000Y-89154000D01*
X119090000Y-118110000D02*
X116840000Y-118110000D01*
X92160000Y-101600000D02*
X89910000Y-101600000D01*
X89910000Y-139700000D02*
X85852000Y-135642000D01*
X92160000Y-139700000D02*
X89910000Y-139700000D01*
X89910000Y-101600000D02*
X85852000Y-97542000D01*
X87376000Y-89154000D02*
X107696000Y-89154000D01*
X85852000Y-97542000D02*
X85852000Y-90678000D01*
X85852000Y-135642000D02*
X85852000Y-105658000D01*
X107696000Y-89154000D02*
X121666000Y-103124000D01*
X121666000Y-115534000D02*
X119090000Y-118110000D01*
X121666000Y-103124000D02*
X121666000Y-115534000D01*
X85852000Y-105658000D02*
X89910000Y-101600000D01*
%TO.N,/Arduino_nano/D5_SCK_L2*%
X96012000Y-100662000D02*
X96012000Y-124932000D01*
X92160000Y-99060000D02*
X94410000Y-99060000D01*
X96012000Y-124932000D02*
X99350000Y-128270000D01*
X99350000Y-128270000D02*
X101600000Y-128270000D01*
X94410000Y-99060000D02*
X96012000Y-100662000D01*
%TO.N,/Arduino_nano/D6_DOUT_L1*%
X100148881Y-130810000D02*
X101600000Y-130810000D01*
X92160000Y-134620000D02*
X96338881Y-134620000D01*
X96338881Y-134620000D02*
X100148881Y-130810000D01*
%TO.N,Net-(J4-Pin_5)*%
X69335097Y-109140000D02*
X69415097Y-109220000D01*
X58420000Y-109140000D02*
X69335097Y-109140000D01*
%TO.N,/HX711/E-*%
X71680000Y-94140000D02*
X71840000Y-93980000D01*
X58420000Y-94140000D02*
X71680000Y-94140000D01*
%TO.N,/HX711/A-*%
X58420000Y-99140000D02*
X61040000Y-96520000D01*
X61040000Y-96520000D02*
X71840000Y-96520000D01*
%TO.N,/HX711/E+*%
X69540000Y-89140000D02*
X71840000Y-91440000D01*
X58420000Y-89140000D02*
X69540000Y-89140000D01*
%TO.N,/HX711/A+*%
X63500000Y-99060000D02*
X71840000Y-99060000D01*
X58420000Y-104140000D02*
X63500000Y-99060000D01*
%TO.N,/HX712/E-*%
X60535000Y-132080000D02*
X71840000Y-132080000D01*
X58115000Y-129660000D02*
X60535000Y-132080000D01*
%TO.N,/HX712/E+*%
X58115000Y-124660000D02*
X66960000Y-124660000D01*
X66960000Y-124660000D02*
X71840000Y-129540000D01*
%TO.N,Net-(J5-Pin_5)*%
X58115000Y-144660000D02*
X66755097Y-144660000D01*
X66755097Y-144660000D02*
X69415097Y-147320000D01*
%TO.N,/HX712/A+*%
X60615000Y-137160000D02*
X71840000Y-137160000D01*
X58115000Y-139660000D02*
X60615000Y-137160000D01*
%TO.N,/HX712/A-*%
X58115000Y-134660000D02*
X71800000Y-134660000D01*
X71800000Y-134660000D02*
X71840000Y-134620000D01*
%TD*%
%TA.AperFunction,Conductor*%
%TO.N,GND*%
G36*
X107172992Y-90474185D02*
G01*
X107193634Y-90490819D01*
X120329181Y-103626366D01*
X120362666Y-103687689D01*
X120365500Y-103714047D01*
X120365500Y-114943953D01*
X120345815Y-115010992D01*
X120329181Y-115031634D01*
X118907982Y-116452832D01*
X118846659Y-116486317D01*
X118776967Y-116481333D01*
X118721034Y-116439461D01*
X118696617Y-116373997D01*
X118709817Y-116308856D01*
X118773237Y-116184388D01*
X118773239Y-116184383D01*
X118773241Y-116184379D01*
X118851090Y-115944785D01*
X118890500Y-115695962D01*
X118890500Y-115444038D01*
X118851090Y-115195215D01*
X118773241Y-114955621D01*
X118773239Y-114955618D01*
X118773239Y-114955616D01*
X118731747Y-114874184D01*
X118658870Y-114731155D01*
X118639952Y-114705117D01*
X118510798Y-114527350D01*
X118510794Y-114527345D01*
X118332654Y-114349205D01*
X118332649Y-114349201D01*
X118146855Y-114214214D01*
X118104189Y-114158884D01*
X118098210Y-114089271D01*
X118130816Y-114027476D01*
X118133784Y-114024693D01*
X118281582Y-113876895D01*
X118281582Y-113876894D01*
X118401859Y-113711349D01*
X118494755Y-113529029D01*
X118557990Y-113334413D01*
X118566609Y-113280000D01*
X117273012Y-113280000D01*
X117305925Y-113222993D01*
X117340000Y-113095826D01*
X117340000Y-112964174D01*
X117305925Y-112837007D01*
X117273012Y-112780000D01*
X118566609Y-112780000D01*
X118557990Y-112725586D01*
X118494755Y-112530970D01*
X118401859Y-112348650D01*
X118281582Y-112183105D01*
X118281582Y-112183104D01*
X118133448Y-112034970D01*
X118134793Y-112033624D01*
X118101020Y-111981902D01*
X118100512Y-111912034D01*
X118137858Y-111852983D01*
X118146855Y-111845785D01*
X118332650Y-111710798D01*
X118332652Y-111710795D01*
X118332656Y-111710793D01*
X118510793Y-111532656D01*
X118658870Y-111328845D01*
X118773241Y-111104379D01*
X118851090Y-110864785D01*
X118890500Y-110615962D01*
X118890500Y-110364038D01*
X118851090Y-110115215D01*
X118773241Y-109875621D01*
X118773239Y-109875618D01*
X118773239Y-109875616D01*
X118731747Y-109794184D01*
X118658870Y-109651155D01*
X118639952Y-109625117D01*
X118510798Y-109447350D01*
X118510794Y-109447345D01*
X118332654Y-109269205D01*
X118332649Y-109269201D01*
X118128848Y-109121132D01*
X118128847Y-109121131D01*
X118128845Y-109121130D01*
X118009232Y-109060184D01*
X117904383Y-109006760D01*
X117664785Y-108928910D01*
X117415962Y-108889500D01*
X116264038Y-108889500D01*
X116168499Y-108904632D01*
X116015214Y-108928910D01*
X115775616Y-109006760D01*
X115551151Y-109121132D01*
X115347350Y-109269201D01*
X115347345Y-109269205D01*
X115169205Y-109447345D01*
X115169201Y-109447350D01*
X115021132Y-109651151D01*
X114906760Y-109875616D01*
X114828910Y-110115214D01*
X114828910Y-110115215D01*
X114789500Y-110364038D01*
X114789500Y-110615962D01*
X114806428Y-110722838D01*
X114828910Y-110864785D01*
X114906760Y-111104383D01*
X115021132Y-111328848D01*
X115169201Y-111532649D01*
X115169205Y-111532654D01*
X115347345Y-111710794D01*
X115347350Y-111710798D01*
X115533144Y-111845785D01*
X115575810Y-111901115D01*
X115581789Y-111970728D01*
X115549184Y-112032523D01*
X115546205Y-112035316D01*
X115398417Y-112183104D01*
X115398417Y-112183105D01*
X115278140Y-112348650D01*
X115185244Y-112530970D01*
X115122009Y-112725586D01*
X115113391Y-112780000D01*
X116406988Y-112780000D01*
X116374075Y-112837007D01*
X116340000Y-112964174D01*
X116340000Y-113095826D01*
X116374075Y-113222993D01*
X116406988Y-113280000D01*
X115113391Y-113280000D01*
X115122009Y-113334413D01*
X115185244Y-113529029D01*
X115278140Y-113711349D01*
X115398417Y-113876894D01*
X115398417Y-113876895D01*
X115546552Y-114025030D01*
X115545204Y-114026377D01*
X115578977Y-114078090D01*
X115579489Y-114147957D01*
X115542147Y-114207011D01*
X115533144Y-114214214D01*
X115347350Y-114349201D01*
X115347345Y-114349205D01*
X115169205Y-114527345D01*
X115169201Y-114527350D01*
X115021132Y-114731151D01*
X114906760Y-114955616D01*
X114828910Y-115195214D01*
X114789500Y-115444038D01*
X114789500Y-115695961D01*
X114828910Y-115944785D01*
X114906760Y-116184383D01*
X115021132Y-116408848D01*
X115169201Y-116612649D01*
X115169205Y-116612654D01*
X115308870Y-116752319D01*
X115342355Y-116813642D01*
X115337371Y-116883334D01*
X115308870Y-116927681D01*
X115169205Y-117067345D01*
X115169201Y-117067350D01*
X115021132Y-117271151D01*
X114906760Y-117495616D01*
X114828910Y-117735214D01*
X114789500Y-117984038D01*
X114789500Y-118235961D01*
X114828910Y-118484785D01*
X114906760Y-118724383D01*
X115021132Y-118948848D01*
X115169201Y-119152649D01*
X115169205Y-119152654D01*
X115308870Y-119292319D01*
X115342355Y-119353642D01*
X115337371Y-119423334D01*
X115308870Y-119467681D01*
X115169205Y-119607345D01*
X115169201Y-119607350D01*
X115021132Y-119811151D01*
X114906760Y-120035616D01*
X114828910Y-120275214D01*
X114789500Y-120524038D01*
X114789500Y-120775961D01*
X114828910Y-121024785D01*
X114906760Y-121264383D01*
X115021132Y-121488848D01*
X115169201Y-121692649D01*
X115169205Y-121692654D01*
X115308870Y-121832319D01*
X115342355Y-121893642D01*
X115337371Y-121963334D01*
X115308870Y-122007681D01*
X115169205Y-122147345D01*
X115169201Y-122147350D01*
X115021132Y-122351151D01*
X114906760Y-122575616D01*
X114828910Y-122815214D01*
X114827418Y-122824632D01*
X114789500Y-123064038D01*
X114789500Y-123315962D01*
X114807680Y-123430745D01*
X114828910Y-123564785D01*
X114906760Y-123804383D01*
X115021132Y-124028848D01*
X115169201Y-124232649D01*
X115169205Y-124232654D01*
X115308870Y-124372319D01*
X115342355Y-124433642D01*
X115337371Y-124503334D01*
X115308870Y-124547681D01*
X115169205Y-124687345D01*
X115169201Y-124687350D01*
X115021132Y-124891151D01*
X114906760Y-125115616D01*
X114828910Y-125355214D01*
X114816872Y-125431219D01*
X114789500Y-125604038D01*
X114789500Y-125855962D01*
X114802781Y-125939816D01*
X114828910Y-126104785D01*
X114906760Y-126344383D01*
X115021132Y-126568848D01*
X115169201Y-126772649D01*
X115169205Y-126772654D01*
X115308870Y-126912319D01*
X115342355Y-126973642D01*
X115337371Y-127043334D01*
X115308870Y-127087681D01*
X115169205Y-127227345D01*
X115169201Y-127227350D01*
X115021132Y-127431151D01*
X114906760Y-127655616D01*
X114828910Y-127895214D01*
X114797746Y-128091973D01*
X114789500Y-128144038D01*
X114789500Y-128395962D01*
X114809479Y-128522105D01*
X114828910Y-128644785D01*
X114906760Y-128884383D01*
X114935205Y-128940208D01*
X115012529Y-129091965D01*
X115021132Y-129108848D01*
X115169201Y-129312649D01*
X115169205Y-129312654D01*
X115308870Y-129452319D01*
X115342355Y-129513642D01*
X115337371Y-129583334D01*
X115308870Y-129627681D01*
X115169205Y-129767345D01*
X115169201Y-129767350D01*
X115021132Y-129971151D01*
X114906760Y-130195616D01*
X114828910Y-130435214D01*
X114811570Y-130544694D01*
X114789500Y-130684038D01*
X114789500Y-130935962D01*
X114804367Y-131029826D01*
X114828910Y-131184785D01*
X114906760Y-131424383D01*
X114949995Y-131509235D01*
X115018580Y-131643841D01*
X115021132Y-131648848D01*
X115169201Y-131852649D01*
X115169205Y-131852654D01*
X115308870Y-131992319D01*
X115342355Y-132053642D01*
X115337371Y-132123334D01*
X115308870Y-132167681D01*
X115169205Y-132307345D01*
X115169201Y-132307350D01*
X115021132Y-132511151D01*
X114906760Y-132735616D01*
X114828910Y-132975214D01*
X114809478Y-133097901D01*
X114789500Y-133224038D01*
X114789500Y-133475962D01*
X114809479Y-133602105D01*
X114828910Y-133724785D01*
X114906760Y-133964383D01*
X115021132Y-134188848D01*
X115169201Y-134392649D01*
X115169205Y-134392654D01*
X115308870Y-134532319D01*
X115342355Y-134593642D01*
X115337371Y-134663334D01*
X115308870Y-134707681D01*
X115169205Y-134847345D01*
X115169201Y-134847350D01*
X115021132Y-135051151D01*
X114906760Y-135275616D01*
X114828910Y-135515214D01*
X114828910Y-135515215D01*
X114789500Y-135764038D01*
X114789500Y-136015962D01*
X114809479Y-136142105D01*
X114828910Y-136264785D01*
X114906760Y-136504383D01*
X114935205Y-136560208D01*
X115017321Y-136721370D01*
X115021132Y-136728848D01*
X115169201Y-136932649D01*
X115169205Y-136932654D01*
X115308870Y-137072319D01*
X115342355Y-137133642D01*
X115337371Y-137203334D01*
X115308870Y-137247681D01*
X115169205Y-137387345D01*
X115169201Y-137387350D01*
X115021132Y-137591151D01*
X114906760Y-137815616D01*
X114828910Y-138055214D01*
X114813586Y-138151966D01*
X114789500Y-138304038D01*
X114789500Y-138555962D01*
X114809479Y-138682105D01*
X114828910Y-138804785D01*
X114906760Y-139044383D01*
X115021132Y-139268848D01*
X115169201Y-139472649D01*
X115169205Y-139472654D01*
X115308870Y-139612319D01*
X115342355Y-139673642D01*
X115337371Y-139743334D01*
X115308870Y-139787681D01*
X115169205Y-139927345D01*
X115169201Y-139927350D01*
X115021132Y-140131151D01*
X114906760Y-140355616D01*
X114828910Y-140595214D01*
X114828910Y-140595215D01*
X114789500Y-140844038D01*
X114789500Y-141095962D01*
X114809479Y-141222105D01*
X114828910Y-141344785D01*
X114906760Y-141584383D01*
X115021132Y-141808848D01*
X115169201Y-142012649D01*
X115169205Y-142012654D01*
X115308870Y-142152319D01*
X115342355Y-142213642D01*
X115337371Y-142283334D01*
X115308870Y-142327681D01*
X115169205Y-142467345D01*
X115169201Y-142467350D01*
X115021132Y-142671151D01*
X114906760Y-142895616D01*
X114828910Y-143135214D01*
X114789500Y-143384038D01*
X114789500Y-143635961D01*
X114828910Y-143884785D01*
X114906760Y-144124383D01*
X115021132Y-144348848D01*
X115169201Y-144552649D01*
X115169205Y-144552654D01*
X115308870Y-144692319D01*
X115342355Y-144753642D01*
X115337371Y-144823334D01*
X115308870Y-144867681D01*
X115169205Y-145007345D01*
X115169201Y-145007350D01*
X115021132Y-145211151D01*
X114906760Y-145435616D01*
X114828910Y-145675214D01*
X114789500Y-145924038D01*
X114789500Y-146175961D01*
X114828910Y-146424785D01*
X114906760Y-146664383D01*
X115011123Y-146869205D01*
X115024019Y-146937874D01*
X114997743Y-147002615D01*
X114940636Y-147042872D01*
X114900638Y-147049500D01*
X111820047Y-147049500D01*
X111753008Y-147029815D01*
X111732366Y-147013181D01*
X104697221Y-139978036D01*
X104697219Y-139978034D01*
X104531611Y-139857713D01*
X104416124Y-139798870D01*
X104416121Y-139798868D01*
X104349221Y-139764781D01*
X104349220Y-139764780D01*
X104349219Y-139764780D01*
X104243716Y-139730500D01*
X104243715Y-139730499D01*
X104154532Y-139701522D01*
X103978503Y-139673642D01*
X103952352Y-139669500D01*
X103952351Y-139669500D01*
X103371142Y-139669500D01*
X103304103Y-139649815D01*
X103258348Y-139597011D01*
X103248404Y-139527853D01*
X103270824Y-139472615D01*
X103371451Y-139334112D01*
X103418870Y-139268845D01*
X103533241Y-139044379D01*
X103611090Y-138804785D01*
X103650500Y-138555962D01*
X103650500Y-138304038D01*
X103611090Y-138055215D01*
X103533241Y-137815621D01*
X103533239Y-137815618D01*
X103533239Y-137815616D01*
X103462180Y-137676156D01*
X103418870Y-137591155D01*
X103371450Y-137525887D01*
X103270798Y-137387350D01*
X103270794Y-137387345D01*
X103131130Y-137247681D01*
X103097645Y-137186358D01*
X103102629Y-137116666D01*
X103131130Y-137072319D01*
X103166420Y-137037029D01*
X103270793Y-136932656D01*
X103418870Y-136728845D01*
X103533241Y-136504379D01*
X103611090Y-136264785D01*
X103650500Y-136015962D01*
X103650500Y-135764038D01*
X103611090Y-135515215D01*
X103533241Y-135275621D01*
X103533239Y-135275618D01*
X103533239Y-135275616D01*
X103463952Y-135139634D01*
X103418870Y-135051155D01*
X103371450Y-134985887D01*
X103270798Y-134847350D01*
X103270794Y-134847345D01*
X103131130Y-134707681D01*
X103097645Y-134646358D01*
X103102629Y-134576666D01*
X103131130Y-134532319D01*
X103166420Y-134497029D01*
X103270793Y-134392656D01*
X103418870Y-134188845D01*
X103533241Y-133964379D01*
X103611090Y-133724785D01*
X103650500Y-133475962D01*
X103650500Y-133224038D01*
X103611090Y-132975215D01*
X103533241Y-132735621D01*
X103533239Y-132735618D01*
X103533239Y-132735616D01*
X103491747Y-132654184D01*
X103418870Y-132511155D01*
X103379815Y-132457400D01*
X103270798Y-132307350D01*
X103270794Y-132307345D01*
X103131130Y-132167681D01*
X103097645Y-132106358D01*
X103102629Y-132036666D01*
X103131130Y-131992319D01*
X103199773Y-131923676D01*
X103270793Y-131852656D01*
X103418870Y-131648845D01*
X103533241Y-131424379D01*
X103611090Y-131184785D01*
X103650500Y-130935962D01*
X103650500Y-130684038D01*
X103611090Y-130435215D01*
X103533241Y-130195621D01*
X103533239Y-130195618D01*
X103533239Y-130195616D01*
X103491747Y-130114184D01*
X103418870Y-129971155D01*
X103371450Y-129905887D01*
X103270798Y-129767350D01*
X103270794Y-129767345D01*
X103131130Y-129627681D01*
X103097645Y-129566358D01*
X103102629Y-129496666D01*
X103131130Y-129452319D01*
X103180288Y-129403161D01*
X103270793Y-129312656D01*
X103418870Y-129108845D01*
X103533241Y-128884379D01*
X103611090Y-128644785D01*
X103650500Y-128395962D01*
X103650500Y-128144038D01*
X103611090Y-127895215D01*
X103533241Y-127655621D01*
X103533239Y-127655618D01*
X103533239Y-127655616D01*
X103484265Y-127559500D01*
X103418870Y-127431155D01*
X103307623Y-127278036D01*
X103270798Y-127227350D01*
X103270794Y-127227345D01*
X103131130Y-127087681D01*
X103097645Y-127026358D01*
X103102629Y-126956666D01*
X103131130Y-126912319D01*
X103195166Y-126848283D01*
X103270793Y-126772656D01*
X103418870Y-126568845D01*
X103533241Y-126344379D01*
X103611090Y-126104785D01*
X103650500Y-125855962D01*
X103650500Y-125604038D01*
X103611090Y-125355215D01*
X103533241Y-125115621D01*
X103533239Y-125115618D01*
X103533239Y-125115616D01*
X103491747Y-125034184D01*
X103418870Y-124891155D01*
X103307623Y-124738036D01*
X103270798Y-124687350D01*
X103270794Y-124687345D01*
X103131130Y-124547681D01*
X103097645Y-124486358D01*
X103102629Y-124416666D01*
X103131130Y-124372319D01*
X103146438Y-124357011D01*
X103270793Y-124232656D01*
X103418870Y-124028845D01*
X103533241Y-123804379D01*
X103611090Y-123564785D01*
X103650500Y-123315962D01*
X103650500Y-123064038D01*
X103611090Y-122815215D01*
X103533241Y-122575621D01*
X103533239Y-122575618D01*
X103533239Y-122575616D01*
X103491747Y-122494184D01*
X103418870Y-122351155D01*
X103399952Y-122325117D01*
X103270798Y-122147350D01*
X103270794Y-122147345D01*
X103131130Y-122007681D01*
X103097645Y-121946358D01*
X103102629Y-121876666D01*
X103131130Y-121832319D01*
X103270793Y-121692656D01*
X103418870Y-121488845D01*
X103533241Y-121264379D01*
X103611090Y-121024785D01*
X103650500Y-120775962D01*
X103650500Y-120524038D01*
X103611090Y-120275215D01*
X103533241Y-120035621D01*
X103533239Y-120035618D01*
X103533239Y-120035616D01*
X103491747Y-119954184D01*
X103418870Y-119811155D01*
X103270823Y-119607385D01*
X103270798Y-119607350D01*
X103270794Y-119607345D01*
X103092654Y-119429205D01*
X103092649Y-119429201D01*
X102906855Y-119294214D01*
X102864189Y-119238884D01*
X102858210Y-119169271D01*
X102890816Y-119107476D01*
X102893784Y-119104693D01*
X103041582Y-118956895D01*
X103041582Y-118956894D01*
X103161859Y-118791349D01*
X103254755Y-118609029D01*
X103317990Y-118414413D01*
X103326609Y-118360000D01*
X102033012Y-118360000D01*
X102065925Y-118302993D01*
X102100000Y-118175826D01*
X102100000Y-118044174D01*
X102065925Y-117917007D01*
X102033012Y-117860000D01*
X103326609Y-117860000D01*
X103317990Y-117805586D01*
X103254755Y-117610970D01*
X103161859Y-117428650D01*
X103041582Y-117263105D01*
X103041582Y-117263104D01*
X102893448Y-117114970D01*
X102894793Y-117113624D01*
X102861020Y-117061902D01*
X102860512Y-116992034D01*
X102897858Y-116932983D01*
X102906855Y-116925785D01*
X103092650Y-116790798D01*
X103092652Y-116790795D01*
X103092656Y-116790793D01*
X103270793Y-116612656D01*
X103418870Y-116408845D01*
X103533241Y-116184379D01*
X103611090Y-115944785D01*
X103650500Y-115695962D01*
X103650500Y-115444038D01*
X103611090Y-115195215D01*
X103533241Y-114955621D01*
X103533239Y-114955618D01*
X103533239Y-114955616D01*
X103491747Y-114874184D01*
X103418870Y-114731155D01*
X103399952Y-114705117D01*
X103270798Y-114527350D01*
X103270794Y-114527345D01*
X103156130Y-114412681D01*
X103122645Y-114351358D01*
X103127629Y-114281666D01*
X103156130Y-114237319D01*
X103234565Y-114158884D01*
X103320793Y-114072656D01*
X103468870Y-113868845D01*
X103583241Y-113644379D01*
X103661090Y-113404785D01*
X103700500Y-113155962D01*
X103700500Y-112904038D01*
X103661090Y-112655215D01*
X103583241Y-112415621D01*
X103583239Y-112415618D01*
X103583239Y-112415616D01*
X103509369Y-112270639D01*
X103468870Y-112191155D01*
X103387116Y-112078630D01*
X103367869Y-112052138D01*
X103344389Y-111986332D01*
X103360215Y-111918278D01*
X103380506Y-111891572D01*
X103426293Y-111845785D01*
X103479816Y-111792262D01*
X103575789Y-111639522D01*
X103635368Y-111469255D01*
X103650500Y-111334954D01*
X103650500Y-109645046D01*
X103635368Y-109510745D01*
X103575789Y-109340478D01*
X103479816Y-109187738D01*
X103352262Y-109060184D01*
X103199523Y-108964211D01*
X103029254Y-108904631D01*
X103029249Y-108904630D01*
X102894960Y-108889500D01*
X102894954Y-108889500D01*
X100305046Y-108889500D01*
X100305039Y-108889500D01*
X100238383Y-108897010D01*
X100169561Y-108884955D01*
X100118182Y-108837606D01*
X100100500Y-108773790D01*
X100100500Y-100519220D01*
X100086842Y-100432989D01*
X100068477Y-100317038D01*
X100047283Y-100251809D01*
X100041476Y-100233936D01*
X100005223Y-100122359D01*
X100005221Y-100122353D01*
X99935231Y-99984992D01*
X99912287Y-99939962D01*
X99843534Y-99845331D01*
X99816654Y-99808333D01*
X99791971Y-99774359D01*
X99791968Y-99774356D01*
X99791966Y-99774353D01*
X99647219Y-99629606D01*
X99647218Y-99629605D01*
X99644107Y-99626494D01*
X99644092Y-99626480D01*
X95545649Y-95528036D01*
X95545648Y-95528035D01*
X95545647Y-95528034D01*
X95380039Y-95407713D01*
X95285935Y-95359765D01*
X95285932Y-95359763D01*
X95197649Y-95314781D01*
X95197648Y-95314780D01*
X95197647Y-95314780D01*
X95092144Y-95280500D01*
X95092143Y-95280499D01*
X95002960Y-95251522D01*
X94847648Y-95226923D01*
X94800780Y-95219500D01*
X94800779Y-95219500D01*
X93556590Y-95219500D01*
X93489551Y-95199815D01*
X93483704Y-95195818D01*
X93466929Y-95183630D01*
X93454111Y-95177099D01*
X93403315Y-95129124D01*
X93386520Y-95061303D01*
X93409058Y-94995168D01*
X93437522Y-94966295D01*
X93470137Y-94942599D01*
X93610596Y-94802140D01*
X93610596Y-94802139D01*
X93727358Y-94641432D01*
X93817543Y-94464435D01*
X93878925Y-94275517D01*
X93886134Y-94230000D01*
X92482757Y-94230000D01*
X92484081Y-94228676D01*
X92537400Y-94136324D01*
X92565000Y-94033319D01*
X92565000Y-93926681D01*
X92537400Y-93823676D01*
X92484081Y-93731324D01*
X92482757Y-93730000D01*
X93886135Y-93730000D01*
X93886134Y-93729999D01*
X93878925Y-93684482D01*
X93817543Y-93495564D01*
X93727358Y-93318567D01*
X93610596Y-93157860D01*
X93610596Y-93157859D01*
X93470140Y-93017403D01*
X93309432Y-92900641D01*
X93132437Y-92810457D01*
X92943522Y-92749075D01*
X92747321Y-92718000D01*
X92410000Y-92718000D01*
X92410000Y-93657243D01*
X92408676Y-93655919D01*
X92316324Y-93602600D01*
X92213319Y-93575000D01*
X92106681Y-93575000D01*
X92003676Y-93602600D01*
X91911324Y-93655919D01*
X91910000Y-93657243D01*
X91910000Y-92718000D01*
X91572679Y-92718000D01*
X91376479Y-92749075D01*
X91376476Y-92749075D01*
X91187562Y-92810457D01*
X91010567Y-92900641D01*
X90849860Y-93017403D01*
X90849859Y-93017403D01*
X90709403Y-93157859D01*
X90709403Y-93157860D01*
X90592641Y-93318567D01*
X90502456Y-93495564D01*
X90441074Y-93684482D01*
X90433865Y-93729999D01*
X90433865Y-93730000D01*
X91837243Y-93730000D01*
X91835919Y-93731324D01*
X91782600Y-93823676D01*
X91755000Y-93926681D01*
X91755000Y-94033319D01*
X91782600Y-94136324D01*
X91835919Y-94228676D01*
X91837243Y-94230000D01*
X90433865Y-94230000D01*
X90441074Y-94275517D01*
X90502456Y-94464435D01*
X90592641Y-94641432D01*
X90709403Y-94802139D01*
X90709403Y-94802140D01*
X90849859Y-94942596D01*
X90849865Y-94942601D01*
X90882478Y-94966296D01*
X90925144Y-95021626D01*
X90931123Y-95091239D01*
X90898517Y-95153034D01*
X90865891Y-95177097D01*
X90853069Y-95183630D01*
X90654105Y-95328185D01*
X90654100Y-95328189D01*
X90480189Y-95502100D01*
X90480185Y-95502105D01*
X90335632Y-95701067D01*
X90223973Y-95920207D01*
X90223972Y-95920210D01*
X90147974Y-96154112D01*
X90109500Y-96397029D01*
X90109500Y-96642970D01*
X90147974Y-96885887D01*
X90223972Y-97119789D01*
X90223973Y-97119792D01*
X90335632Y-97338932D01*
X90480185Y-97537894D01*
X90480189Y-97537899D01*
X90644609Y-97702319D01*
X90678094Y-97763642D01*
X90673110Y-97833334D01*
X90644609Y-97877681D01*
X90480189Y-98042100D01*
X90480185Y-98042105D01*
X90335632Y-98241067D01*
X90223973Y-98460207D01*
X90223972Y-98460210D01*
X90147974Y-98694112D01*
X90109500Y-98937029D01*
X90109500Y-99182970D01*
X90147974Y-99425887D01*
X90223972Y-99659789D01*
X90223973Y-99659792D01*
X90299660Y-99808333D01*
X90312556Y-99877002D01*
X90286280Y-99941742D01*
X90229174Y-99982000D01*
X90159368Y-99984992D01*
X90101494Y-99952309D01*
X87188819Y-97039634D01*
X87155334Y-96978311D01*
X87152500Y-96951953D01*
X87152500Y-91268047D01*
X87172185Y-91201008D01*
X87188819Y-91180366D01*
X87878366Y-90490819D01*
X87939689Y-90457334D01*
X87966047Y-90454500D01*
X107105953Y-90454500D01*
X107172992Y-90474185D01*
G37*
%TD.AperFunction*%
%TA.AperFunction,Conductor*%
G36*
X119170339Y-130840500D02*
G01*
X119375042Y-130840500D01*
X125935554Y-130840500D01*
X126002593Y-130860185D01*
X126016082Y-130870207D01*
X126026860Y-130879412D01*
X126026862Y-130879413D01*
X126056771Y-130897742D01*
X126103646Y-130949555D01*
X126115067Y-131018485D01*
X126087410Y-131082647D01*
X126079662Y-131091150D01*
X125961886Y-131208926D01*
X125826400Y-131402420D01*
X125826399Y-131402422D01*
X125726570Y-131616507D01*
X125726567Y-131616513D01*
X125669364Y-131829999D01*
X125669364Y-131830000D01*
X126566988Y-131830000D01*
X126534075Y-131887007D01*
X126500000Y-132014174D01*
X126500000Y-132145826D01*
X126534075Y-132272993D01*
X126566988Y-132330000D01*
X125669364Y-132330000D01*
X125726567Y-132543486D01*
X125726570Y-132543492D01*
X125826399Y-132757578D01*
X125961891Y-132951078D01*
X126079662Y-133068850D01*
X126113146Y-133130173D01*
X126108162Y-133199865D01*
X126066290Y-133255798D01*
X126056771Y-133262258D01*
X126026861Y-133280586D01*
X125829311Y-133449311D01*
X125660588Y-133646859D01*
X125524843Y-133868376D01*
X125425427Y-134108389D01*
X125364778Y-134361009D01*
X125344396Y-134620000D01*
X125364778Y-134878990D01*
X125425427Y-135131610D01*
X125524843Y-135371623D01*
X125524845Y-135371627D01*
X125524846Y-135371628D01*
X125660588Y-135593140D01*
X125713395Y-135654970D01*
X125741966Y-135718729D01*
X125731529Y-135787815D01*
X125685398Y-135840291D01*
X125619105Y-135859500D01*
X124816351Y-135859500D01*
X124611648Y-135859500D01*
X124585497Y-135863642D01*
X124409468Y-135891522D01*
X124409467Y-135891522D01*
X124320283Y-135920499D01*
X124320284Y-135920500D01*
X124214776Y-135954781D01*
X124147010Y-135989311D01*
X124032388Y-136047713D01*
X123866778Y-136168036D01*
X119102181Y-140932633D01*
X119040858Y-140966118D01*
X118971166Y-140961134D01*
X118915233Y-140919262D01*
X118890816Y-140853798D01*
X118890500Y-140844952D01*
X118890500Y-140844038D01*
X118882254Y-140791974D01*
X118851090Y-140595215D01*
X118773241Y-140355621D01*
X118773239Y-140355618D01*
X118773239Y-140355616D01*
X118731747Y-140274184D01*
X118658870Y-140131155D01*
X118611450Y-140065887D01*
X118510798Y-139927350D01*
X118510794Y-139927345D01*
X118371130Y-139787681D01*
X118337645Y-139726358D01*
X118342629Y-139656666D01*
X118371130Y-139612319D01*
X118406420Y-139577029D01*
X118510793Y-139472656D01*
X118658870Y-139268845D01*
X118773241Y-139044379D01*
X118851090Y-138804785D01*
X118890500Y-138555962D01*
X118890500Y-138304038D01*
X118851090Y-138055215D01*
X118773241Y-137815621D01*
X118773239Y-137815618D01*
X118773239Y-137815616D01*
X118702180Y-137676156D01*
X118658870Y-137591155D01*
X118611450Y-137525887D01*
X118510798Y-137387350D01*
X118510794Y-137387345D01*
X118371130Y-137247681D01*
X118337645Y-137186358D01*
X118342629Y-137116666D01*
X118371130Y-137072319D01*
X118406420Y-137037029D01*
X118510793Y-136932656D01*
X118658870Y-136728845D01*
X118773241Y-136504379D01*
X118851090Y-136264785D01*
X118890500Y-136015962D01*
X118890500Y-135764038D01*
X118851090Y-135515215D01*
X118773241Y-135275621D01*
X118773239Y-135275618D01*
X118773239Y-135275616D01*
X118703952Y-135139634D01*
X118658870Y-135051155D01*
X118611450Y-134985887D01*
X118510798Y-134847350D01*
X118510794Y-134847345D01*
X118371130Y-134707681D01*
X118337645Y-134646358D01*
X118342629Y-134576666D01*
X118371130Y-134532319D01*
X118406420Y-134497029D01*
X118510793Y-134392656D01*
X118658870Y-134188845D01*
X118773241Y-133964379D01*
X118851090Y-133724785D01*
X118890500Y-133475962D01*
X118890500Y-133224038D01*
X118851090Y-132975215D01*
X118773241Y-132735621D01*
X118773239Y-132735618D01*
X118773239Y-132735616D01*
X118731747Y-132654184D01*
X118658870Y-132511155D01*
X118619815Y-132457400D01*
X118510798Y-132307350D01*
X118510794Y-132307345D01*
X118371130Y-132167681D01*
X118337645Y-132106358D01*
X118342629Y-132036666D01*
X118371130Y-131992319D01*
X118439773Y-131923676D01*
X118510793Y-131852656D01*
X118658870Y-131648845D01*
X118773241Y-131424379D01*
X118851090Y-131184785D01*
X118890500Y-130935962D01*
X118890500Y-130935953D01*
X118890840Y-130931633D01*
X118915721Y-130866343D01*
X118971950Y-130824870D01*
X119033856Y-130818883D01*
X119170339Y-130840500D01*
G37*
%TD.AperFunction*%
%TA.AperFunction,Conductor*%
G36*
X94218506Y-100707691D02*
G01*
X94675181Y-101164366D01*
X94708666Y-101225689D01*
X94711500Y-101252047D01*
X94711500Y-125034351D01*
X94743522Y-125236531D01*
X94743522Y-125236532D01*
X94766490Y-125307219D01*
X94806778Y-125431216D01*
X94806779Y-125431219D01*
X94836349Y-125489252D01*
X94836351Y-125489255D01*
X94899713Y-125613611D01*
X95020034Y-125779219D01*
X95020035Y-125779220D01*
X95020036Y-125779221D01*
X98354908Y-129114092D01*
X98354922Y-129114107D01*
X98358033Y-129117218D01*
X98358034Y-129117219D01*
X98502781Y-129261966D01*
X98502784Y-129261968D01*
X98502785Y-129261969D01*
X98583127Y-129320341D01*
X98583128Y-129320341D01*
X98668389Y-129382287D01*
X98736575Y-129417029D01*
X98850781Y-129475220D01*
X98898710Y-129490793D01*
X99045465Y-129538477D01*
X99064697Y-129541523D01*
X99247648Y-129570500D01*
X99247649Y-129570500D01*
X99260730Y-129570500D01*
X99327769Y-129590185D01*
X99373524Y-129642989D01*
X99383468Y-129712147D01*
X99354443Y-129775703D01*
X99333615Y-129794818D01*
X99301667Y-129818028D01*
X99301663Y-129818032D01*
X95836515Y-133283181D01*
X95775192Y-133316666D01*
X95748834Y-133319500D01*
X93556590Y-133319500D01*
X93489551Y-133299815D01*
X93483704Y-133295818D01*
X93466929Y-133283630D01*
X93454111Y-133277099D01*
X93403315Y-133229124D01*
X93386520Y-133161303D01*
X93409058Y-133095168D01*
X93437522Y-133066295D01*
X93470137Y-133042599D01*
X93610596Y-132902140D01*
X93610596Y-132902139D01*
X93727358Y-132741432D01*
X93817543Y-132564435D01*
X93878925Y-132375517D01*
X93886134Y-132330000D01*
X92482757Y-132330000D01*
X92484081Y-132328676D01*
X92537400Y-132236324D01*
X92565000Y-132133319D01*
X92565000Y-132026681D01*
X92537400Y-131923676D01*
X92484081Y-131831324D01*
X92482757Y-131830000D01*
X93886135Y-131830000D01*
X93886134Y-131829999D01*
X93878925Y-131784482D01*
X93817543Y-131595564D01*
X93727358Y-131418567D01*
X93610596Y-131257860D01*
X93610596Y-131257859D01*
X93470140Y-131117403D01*
X93309432Y-131000641D01*
X93132437Y-130910457D01*
X92943522Y-130849075D01*
X92747321Y-130818000D01*
X92410000Y-130818000D01*
X92410000Y-131757243D01*
X92408676Y-131755919D01*
X92316324Y-131702600D01*
X92213319Y-131675000D01*
X92106681Y-131675000D01*
X92003676Y-131702600D01*
X91911324Y-131755919D01*
X91910000Y-131757243D01*
X91910000Y-130818000D01*
X91572679Y-130818000D01*
X91376479Y-130849075D01*
X91376476Y-130849075D01*
X91187562Y-130910457D01*
X91010567Y-131000641D01*
X90849860Y-131117403D01*
X90849859Y-131117403D01*
X90709403Y-131257859D01*
X90709403Y-131257860D01*
X90592641Y-131418567D01*
X90502456Y-131595564D01*
X90441074Y-131784482D01*
X90433865Y-131829999D01*
X90433865Y-131830000D01*
X91837243Y-131830000D01*
X91835919Y-131831324D01*
X91782600Y-131923676D01*
X91755000Y-132026681D01*
X91755000Y-132133319D01*
X91782600Y-132236324D01*
X91835919Y-132328676D01*
X91837243Y-132330000D01*
X90433865Y-132330000D01*
X90441074Y-132375517D01*
X90502456Y-132564435D01*
X90592641Y-132741432D01*
X90709403Y-132902139D01*
X90709403Y-132902140D01*
X90849859Y-133042596D01*
X90849865Y-133042601D01*
X90882478Y-133066296D01*
X90925144Y-133121626D01*
X90931123Y-133191239D01*
X90898517Y-133253034D01*
X90865891Y-133277097D01*
X90853069Y-133283630D01*
X90654105Y-133428185D01*
X90654100Y-133428189D01*
X90480189Y-133602100D01*
X90480185Y-133602105D01*
X90335632Y-133801067D01*
X90223973Y-134020207D01*
X90223972Y-134020210D01*
X90147974Y-134254112D01*
X90109500Y-134497029D01*
X90109500Y-134742970D01*
X90147974Y-134985887D01*
X90223972Y-135219789D01*
X90223973Y-135219792D01*
X90335632Y-135438932D01*
X90480185Y-135637894D01*
X90480189Y-135637899D01*
X90644609Y-135802319D01*
X90678094Y-135863642D01*
X90673110Y-135933334D01*
X90644609Y-135977681D01*
X90480189Y-136142100D01*
X90480185Y-136142105D01*
X90335632Y-136341067D01*
X90223973Y-136560207D01*
X90223972Y-136560210D01*
X90147974Y-136794112D01*
X90109500Y-137037029D01*
X90109500Y-137282970D01*
X90147974Y-137525887D01*
X90223972Y-137759789D01*
X90223973Y-137759792D01*
X90299660Y-137908333D01*
X90312556Y-137977002D01*
X90286280Y-138041742D01*
X90229174Y-138082000D01*
X90159368Y-138084992D01*
X90101494Y-138052309D01*
X87188819Y-135139634D01*
X87155334Y-135078311D01*
X87152500Y-135051953D01*
X87152500Y-106248046D01*
X87172185Y-106181007D01*
X87188819Y-106160365D01*
X90412365Y-102936819D01*
X90473688Y-102903334D01*
X90500046Y-102900500D01*
X90763410Y-102900500D01*
X90830449Y-102920185D01*
X90836289Y-102924177D01*
X90853071Y-102936370D01*
X90960551Y-102991133D01*
X91072207Y-103048026D01*
X91072210Y-103048027D01*
X91189161Y-103086026D01*
X91306114Y-103124026D01*
X91549029Y-103162500D01*
X91549030Y-103162500D01*
X92770970Y-103162500D01*
X92770971Y-103162500D01*
X93013886Y-103124026D01*
X93247792Y-103048026D01*
X93466929Y-102936370D01*
X93665901Y-102791809D01*
X93839809Y-102617901D01*
X93984370Y-102418929D01*
X94096026Y-102199792D01*
X94172026Y-101965886D01*
X94210500Y-101722971D01*
X94210500Y-101477029D01*
X94172026Y-101234114D01*
X94100098Y-101012740D01*
X94096027Y-101000210D01*
X94096026Y-101000207D01*
X94020340Y-100851667D01*
X94007444Y-100782998D01*
X94033720Y-100718258D01*
X94090826Y-100678000D01*
X94160632Y-100675008D01*
X94218506Y-100707691D01*
G37*
%TD.AperFunction*%
%TA.AperFunction,Conductor*%
G36*
X141682539Y-84340185D02*
G01*
X141728294Y-84392989D01*
X141739500Y-84444500D01*
X141739500Y-154315500D01*
X141719815Y-154382539D01*
X141667011Y-154428294D01*
X141615500Y-154439500D01*
X51424500Y-154439500D01*
X51357461Y-154419815D01*
X51311706Y-154367011D01*
X51300500Y-154315500D01*
X51300500Y-149660000D01*
X56009592Y-149660000D01*
X56029201Y-149946680D01*
X56087666Y-150228034D01*
X56087667Y-150228037D01*
X56183894Y-150498793D01*
X56183893Y-150498793D01*
X56316098Y-150753935D01*
X56481812Y-150988700D01*
X56538596Y-151049500D01*
X56677947Y-151198708D01*
X56900853Y-151380055D01*
X57045986Y-151468313D01*
X57146382Y-151529365D01*
X57333237Y-151610526D01*
X57409942Y-151643844D01*
X57686642Y-151721371D01*
X57936920Y-151755771D01*
X57971321Y-151760500D01*
X57971322Y-151760500D01*
X58258679Y-151760500D01*
X58289370Y-151756281D01*
X58543358Y-151721371D01*
X58820058Y-151643844D01*
X58933015Y-151594779D01*
X59083617Y-151529365D01*
X59083620Y-151529363D01*
X59083625Y-151529361D01*
X59329147Y-151380055D01*
X59552053Y-151198708D01*
X59748189Y-150988698D01*
X59913901Y-150753936D01*
X60046104Y-150498797D01*
X60142334Y-150228032D01*
X60200798Y-149946686D01*
X60220408Y-149660000D01*
X60200798Y-149373314D01*
X60142334Y-149091968D01*
X60096565Y-148963186D01*
X80403500Y-148963186D01*
X80403500Y-149232813D01*
X80433686Y-149500719D01*
X80433688Y-149500731D01*
X80493684Y-149763594D01*
X80493687Y-149763602D01*
X80582734Y-150018082D01*
X80699714Y-150260994D01*
X80699716Y-150260997D01*
X80843162Y-150489289D01*
X81011266Y-150700085D01*
X81201915Y-150890734D01*
X81412711Y-151058838D01*
X81641003Y-151202284D01*
X81883921Y-151319267D01*
X82046587Y-151376186D01*
X82138397Y-151408312D01*
X82138405Y-151408315D01*
X82138408Y-151408315D01*
X82138409Y-151408316D01*
X82401268Y-151468312D01*
X82669187Y-151498499D01*
X82669188Y-151498500D01*
X82669191Y-151498500D01*
X82938812Y-151498500D01*
X82938812Y-151498499D01*
X83206732Y-151468312D01*
X83469591Y-151408316D01*
X83724079Y-151319267D01*
X83966997Y-151202284D01*
X84195289Y-151058838D01*
X84406085Y-150890734D01*
X84596734Y-150700085D01*
X84764838Y-150489289D01*
X84908284Y-150260997D01*
X85025267Y-150018079D01*
X85114316Y-149763591D01*
X85174312Y-149500732D01*
X85204500Y-149232809D01*
X85204500Y-148963191D01*
X85174312Y-148695268D01*
X85114316Y-148432409D01*
X85025267Y-148177921D01*
X84919471Y-147958233D01*
X84908285Y-147935005D01*
X84908284Y-147935003D01*
X84764838Y-147706711D01*
X84596734Y-147495915D01*
X84406085Y-147305266D01*
X84195289Y-147137162D01*
X83966997Y-146993716D01*
X83966994Y-146993714D01*
X83724082Y-146876734D01*
X83469602Y-146787687D01*
X83469594Y-146787684D01*
X83272446Y-146742687D01*
X83206732Y-146727688D01*
X83206728Y-146727687D01*
X83206719Y-146727686D01*
X82938813Y-146697500D01*
X82938809Y-146697500D01*
X82669191Y-146697500D01*
X82669186Y-146697500D01*
X82401280Y-146727686D01*
X82401268Y-146727688D01*
X82138405Y-146787684D01*
X82138397Y-146787687D01*
X81883917Y-146876734D01*
X81641005Y-146993714D01*
X81412712Y-147137161D01*
X81201915Y-147305265D01*
X81011265Y-147495915D01*
X80843161Y-147706712D01*
X80699714Y-147935005D01*
X80582734Y-148177917D01*
X80493687Y-148432397D01*
X80493684Y-148432405D01*
X80433688Y-148695268D01*
X80433686Y-148695280D01*
X80403500Y-148963186D01*
X60096565Y-148963186D01*
X60046105Y-148821206D01*
X60046106Y-148821206D01*
X59913901Y-148566064D01*
X59748187Y-148331299D01*
X59669554Y-148247105D01*
X59552053Y-148121292D01*
X59329147Y-147939945D01*
X59329146Y-147939944D01*
X59083617Y-147790634D01*
X58820063Y-147676158D01*
X58820061Y-147676157D01*
X58820058Y-147676156D01*
X58690578Y-147639877D01*
X58543364Y-147598630D01*
X58543359Y-147598629D01*
X58543358Y-147598629D01*
X58401018Y-147579064D01*
X58258679Y-147559500D01*
X58258678Y-147559500D01*
X57971322Y-147559500D01*
X57971321Y-147559500D01*
X57686642Y-147598629D01*
X57686635Y-147598630D01*
X57501510Y-147650500D01*
X57409942Y-147676156D01*
X57409939Y-147676156D01*
X57409936Y-147676158D01*
X57409935Y-147676158D01*
X57146382Y-147790634D01*
X56900853Y-147939944D01*
X56677950Y-148121289D01*
X56481812Y-148331299D01*
X56316098Y-148566064D01*
X56183894Y-148821206D01*
X56087667Y-149091962D01*
X56087666Y-149091965D01*
X56029201Y-149373319D01*
X56009592Y-149660000D01*
X51300500Y-149660000D01*
X51300500Y-144659998D01*
X56009592Y-144659998D01*
X56009592Y-144660000D01*
X56011803Y-144692319D01*
X56029201Y-144946680D01*
X56087666Y-145228034D01*
X56087667Y-145228037D01*
X56183894Y-145498793D01*
X56183893Y-145498793D01*
X56316098Y-145753935D01*
X56481812Y-145988700D01*
X56489395Y-145996819D01*
X56677947Y-146198708D01*
X56740556Y-146249644D01*
X56900853Y-146380055D01*
X57146382Y-146529365D01*
X57333237Y-146610526D01*
X57409942Y-146643844D01*
X57686642Y-146721371D01*
X57936920Y-146755771D01*
X57971321Y-146760500D01*
X57971322Y-146760500D01*
X58258679Y-146760500D01*
X58289370Y-146756281D01*
X58543358Y-146721371D01*
X58820058Y-146643844D01*
X58990060Y-146570002D01*
X59083617Y-146529365D01*
X59083620Y-146529363D01*
X59083625Y-146529361D01*
X59329147Y-146380055D01*
X59552053Y-146198708D01*
X59737762Y-145999863D01*
X59797906Y-145964304D01*
X59828385Y-145960500D01*
X66165050Y-145960500D01*
X66232089Y-145980185D01*
X66252731Y-145996819D01*
X68338718Y-148082806D01*
X68372203Y-148144129D01*
X68374257Y-148156603D01*
X68384694Y-148249235D01*
X68444269Y-148419492D01*
X68482274Y-148479976D01*
X68540235Y-148572221D01*
X68667779Y-148699765D01*
X68820507Y-148795730D01*
X68990759Y-148855304D01*
X68990762Y-148855304D01*
X68990764Y-148855305D01*
X69080379Y-148865402D01*
X69169995Y-148875499D01*
X69169996Y-148875500D01*
X69170000Y-148875500D01*
X70319999Y-148875500D01*
X70320000Y-148875500D01*
X70431767Y-148867708D01*
X70606471Y-148822838D01*
X70766811Y-148740217D01*
X70904746Y-148623988D01*
X71013359Y-148479980D01*
X71087204Y-148315414D01*
X71122578Y-148138542D01*
X71117708Y-147958233D01*
X71072838Y-147783529D01*
X70990217Y-147623189D01*
X70886035Y-147466916D01*
X70833946Y-147388782D01*
X70813138Y-147322082D01*
X70831693Y-147254722D01*
X70833919Y-147251257D01*
X70990217Y-147016811D01*
X71045730Y-146919493D01*
X71105304Y-146749241D01*
X71107733Y-146727688D01*
X71125500Y-146570002D01*
X71125500Y-146569997D01*
X71105305Y-146390764D01*
X71105304Y-146390762D01*
X71105304Y-146390759D01*
X71045730Y-146220507D01*
X70949765Y-146067779D01*
X70822221Y-145940235D01*
X70669772Y-145844445D01*
X70669492Y-145844269D01*
X70499235Y-145784694D01*
X70320004Y-145764500D01*
X70320000Y-145764500D01*
X69750144Y-145764500D01*
X69683105Y-145744815D01*
X69662463Y-145728181D01*
X67602318Y-143668036D01*
X67602316Y-143668034D01*
X67436708Y-143547713D01*
X67321908Y-143489220D01*
X67321905Y-143489218D01*
X67254318Y-143454781D01*
X67254317Y-143454780D01*
X67254316Y-143454780D01*
X67109259Y-143407648D01*
X67109257Y-143407646D01*
X67059633Y-143391523D01*
X67059628Y-143391522D01*
X66918461Y-143369163D01*
X66857449Y-143359500D01*
X66857448Y-143359500D01*
X59828385Y-143359500D01*
X59761346Y-143339815D01*
X59737762Y-143320137D01*
X59679635Y-143257899D01*
X59552053Y-143121292D01*
X59329147Y-142939945D01*
X59329146Y-142939944D01*
X59083617Y-142790634D01*
X58820063Y-142676158D01*
X58820061Y-142676157D01*
X58820058Y-142676156D01*
X58690578Y-142639877D01*
X58543364Y-142598630D01*
X58543359Y-142598629D01*
X58543358Y-142598629D01*
X58401018Y-142579064D01*
X58258679Y-142559500D01*
X58258678Y-142559500D01*
X57971322Y-142559500D01*
X57971321Y-142559500D01*
X57686642Y-142598629D01*
X57686635Y-142598630D01*
X57478861Y-142656845D01*
X57409942Y-142676156D01*
X57409939Y-142676156D01*
X57409936Y-142676158D01*
X57409935Y-142676158D01*
X57146382Y-142790634D01*
X56900853Y-142939944D01*
X56677950Y-143121289D01*
X56481812Y-143331299D01*
X56316098Y-143566064D01*
X56183894Y-143821206D01*
X56087667Y-144091962D01*
X56087666Y-144091965D01*
X56029201Y-144373319D01*
X56009592Y-144659998D01*
X51300500Y-144659998D01*
X51300500Y-129660000D01*
X56009592Y-129660000D01*
X56029201Y-129946680D01*
X56087666Y-130228034D01*
X56087667Y-130228037D01*
X56183894Y-130498793D01*
X56183893Y-130498793D01*
X56316098Y-130753935D01*
X56481812Y-130988700D01*
X56566923Y-131079831D01*
X56677947Y-131198708D01*
X56900853Y-131380055D01*
X57113289Y-131509241D01*
X57146382Y-131529365D01*
X57298790Y-131595564D01*
X57409942Y-131643844D01*
X57686642Y-131721371D01*
X57928914Y-131754671D01*
X57971321Y-131760500D01*
X57971322Y-131760500D01*
X58258679Y-131760500D01*
X58301084Y-131754671D01*
X58370179Y-131765043D01*
X58405651Y-131789835D01*
X59193007Y-132577191D01*
X59226492Y-132638514D01*
X59221508Y-132708206D01*
X59179636Y-132764139D01*
X59114172Y-132788556D01*
X59055925Y-132778606D01*
X58820063Y-132676158D01*
X58820061Y-132676157D01*
X58820058Y-132676156D01*
X58685711Y-132638514D01*
X58543364Y-132598630D01*
X58543359Y-132598629D01*
X58543358Y-132598629D01*
X58401018Y-132579064D01*
X58258679Y-132559500D01*
X58258678Y-132559500D01*
X57971322Y-132559500D01*
X57971321Y-132559500D01*
X57686642Y-132598629D01*
X57686635Y-132598630D01*
X57478861Y-132656845D01*
X57409942Y-132676156D01*
X57409939Y-132676156D01*
X57409936Y-132676158D01*
X57409935Y-132676158D01*
X57146382Y-132790634D01*
X56900853Y-132939944D01*
X56677950Y-133121289D01*
X56481812Y-133331299D01*
X56316098Y-133566064D01*
X56183894Y-133821206D01*
X56087667Y-134091962D01*
X56087666Y-134091965D01*
X56029201Y-134373319D01*
X56009592Y-134660000D01*
X56029201Y-134946680D01*
X56087666Y-135228034D01*
X56087667Y-135228037D01*
X56183894Y-135498793D01*
X56183893Y-135498793D01*
X56316098Y-135753935D01*
X56481812Y-135988700D01*
X56536927Y-136047713D01*
X56677947Y-136198708D01*
X56900853Y-136380055D01*
X57105297Y-136504381D01*
X57146382Y-136529365D01*
X57333237Y-136610526D01*
X57409942Y-136643844D01*
X57686642Y-136721371D01*
X57936920Y-136755771D01*
X57971321Y-136760500D01*
X57971322Y-136760500D01*
X58258679Y-136760500D01*
X58289370Y-136756281D01*
X58543358Y-136721371D01*
X58820058Y-136643844D01*
X59055922Y-136541393D01*
X59125254Y-136532740D01*
X59188258Y-136562944D01*
X59224931Y-136622415D01*
X59223630Y-136692273D01*
X59193005Y-136742809D01*
X58405649Y-137530164D01*
X58344326Y-137563649D01*
X58301084Y-137565328D01*
X58258680Y-137559500D01*
X58258678Y-137559500D01*
X57971322Y-137559500D01*
X57971321Y-137559500D01*
X57686642Y-137598629D01*
X57686635Y-137598630D01*
X57478861Y-137656845D01*
X57409942Y-137676156D01*
X57409939Y-137676156D01*
X57409936Y-137676158D01*
X57409935Y-137676158D01*
X57146382Y-137790634D01*
X56900853Y-137939944D01*
X56677950Y-138121289D01*
X56481812Y-138331299D01*
X56316098Y-138566064D01*
X56183894Y-138821206D01*
X56087667Y-139091962D01*
X56087666Y-139091965D01*
X56029201Y-139373319D01*
X56009592Y-139660000D01*
X56029201Y-139946680D01*
X56087666Y-140228034D01*
X56087667Y-140228037D01*
X56183894Y-140498793D01*
X56183893Y-140498793D01*
X56316098Y-140753935D01*
X56481812Y-140988700D01*
X56546237Y-141057681D01*
X56677947Y-141198708D01*
X56900853Y-141380055D01*
X57078978Y-141488376D01*
X57146382Y-141529365D01*
X57333237Y-141610526D01*
X57409942Y-141643844D01*
X57686642Y-141721371D01*
X57936920Y-141755771D01*
X57971321Y-141760500D01*
X57971322Y-141760500D01*
X58258679Y-141760500D01*
X58289370Y-141756281D01*
X58543358Y-141721371D01*
X58820058Y-141643844D01*
X58933015Y-141594779D01*
X59083617Y-141529365D01*
X59083620Y-141529363D01*
X59083625Y-141529361D01*
X59329147Y-141380055D01*
X59552053Y-141198708D01*
X59748189Y-140988698D01*
X59913901Y-140753936D01*
X60046104Y-140498797D01*
X60142334Y-140228032D01*
X60200798Y-139946686D01*
X60220408Y-139660000D01*
X60207211Y-139467083D01*
X60222274Y-139398859D01*
X60243237Y-139370946D01*
X61117366Y-138496819D01*
X61178689Y-138463334D01*
X61205047Y-138460500D01*
X70082428Y-138460500D01*
X70149467Y-138480185D01*
X70195222Y-138532989D01*
X70205166Y-138602147D01*
X70176141Y-138665703D01*
X70170109Y-138672181D01*
X70160189Y-138682100D01*
X70160185Y-138682105D01*
X70015632Y-138881067D01*
X69903973Y-139100207D01*
X69903972Y-139100210D01*
X69827974Y-139334112D01*
X69789500Y-139577029D01*
X69789500Y-139822970D01*
X69827974Y-140065887D01*
X69903972Y-140299789D01*
X69903973Y-140299792D01*
X69932420Y-140355621D01*
X70005372Y-140498797D01*
X70015632Y-140518932D01*
X70160185Y-140717894D01*
X70160189Y-140717899D01*
X70324609Y-140882319D01*
X70358094Y-140943642D01*
X70353110Y-141013334D01*
X70324609Y-141057681D01*
X70160189Y-141222100D01*
X70160185Y-141222105D01*
X70015632Y-141421067D01*
X69903973Y-141640207D01*
X69903972Y-141640210D01*
X69827974Y-141874112D01*
X69827974Y-141874114D01*
X69789500Y-142117029D01*
X69789500Y-142362971D01*
X69806031Y-142467344D01*
X69827974Y-142605887D01*
X69903972Y-142839789D01*
X69903973Y-142839792D01*
X70015632Y-143058932D01*
X70160185Y-143257894D01*
X70160189Y-143257899D01*
X70334100Y-143431810D01*
X70334105Y-143431814D01*
X70441720Y-143510000D01*
X70533071Y-143576370D01*
X70650025Y-143635961D01*
X70752207Y-143688026D01*
X70752210Y-143688027D01*
X70813654Y-143707991D01*
X70986114Y-143764026D01*
X71229029Y-143802500D01*
X71229030Y-143802500D01*
X72450970Y-143802500D01*
X72450971Y-143802500D01*
X72693886Y-143764026D01*
X72927792Y-143688026D01*
X73146929Y-143576370D01*
X73345901Y-143431809D01*
X73519809Y-143257901D01*
X73664370Y-143058929D01*
X73776026Y-142839792D01*
X73852026Y-142605886D01*
X73890500Y-142362971D01*
X73890500Y-142117029D01*
X73852026Y-141874114D01*
X73804678Y-141728390D01*
X73776027Y-141640210D01*
X73776026Y-141640207D01*
X73737360Y-141564322D01*
X73664370Y-141421071D01*
X73549162Y-141262500D01*
X73519814Y-141222105D01*
X73519810Y-141222100D01*
X73355391Y-141057681D01*
X73321906Y-140996358D01*
X73326890Y-140926666D01*
X73355391Y-140882319D01*
X73425427Y-140812283D01*
X73519809Y-140717901D01*
X73664370Y-140518929D01*
X73776026Y-140299792D01*
X73852026Y-140065886D01*
X73890500Y-139822971D01*
X73890500Y-139577029D01*
X73852026Y-139334114D01*
X73804678Y-139188390D01*
X73776027Y-139100210D01*
X73776026Y-139100207D01*
X73737360Y-139024322D01*
X73664370Y-138881071D01*
X73552329Y-138726859D01*
X73519814Y-138682105D01*
X73519810Y-138682100D01*
X73355391Y-138517681D01*
X73321906Y-138456358D01*
X73326890Y-138386666D01*
X73355391Y-138342319D01*
X73425427Y-138272283D01*
X73519809Y-138177901D01*
X73664370Y-137978929D01*
X73776026Y-137759792D01*
X73852026Y-137525886D01*
X73890500Y-137282971D01*
X73890500Y-137037029D01*
X73852026Y-136794114D01*
X73804678Y-136648390D01*
X73776027Y-136560210D01*
X73776026Y-136560207D01*
X73737360Y-136484322D01*
X73664370Y-136341071D01*
X73563982Y-136202898D01*
X73519814Y-136142105D01*
X73519810Y-136142100D01*
X73355391Y-135977681D01*
X73321906Y-135916358D01*
X73326890Y-135846666D01*
X73355391Y-135802319D01*
X73413359Y-135744351D01*
X73519809Y-135637901D01*
X73664370Y-135438929D01*
X73776026Y-135219792D01*
X73852026Y-134985886D01*
X73890500Y-134742971D01*
X73890500Y-134497029D01*
X73852026Y-134254114D01*
X73804678Y-134108390D01*
X73776027Y-134020210D01*
X73776026Y-134020207D01*
X73737360Y-133944322D01*
X73664370Y-133801071D01*
X73552329Y-133646859D01*
X73519814Y-133602105D01*
X73519810Y-133602100D01*
X73509891Y-133592181D01*
X73476406Y-133530858D01*
X73481390Y-133461166D01*
X73523262Y-133405233D01*
X73588726Y-133380816D01*
X73597572Y-133380500D01*
X75575152Y-133380500D01*
X75642191Y-133400185D01*
X75662833Y-133416819D01*
X75705779Y-133459765D01*
X75858507Y-133555730D01*
X76028759Y-133615304D01*
X76028762Y-133615304D01*
X76028764Y-133615305D01*
X76118379Y-133625402D01*
X76207995Y-133635499D01*
X76207996Y-133635500D01*
X76208000Y-133635500D01*
X77357999Y-133635500D01*
X77358000Y-133635500D01*
X77469767Y-133627708D01*
X77644471Y-133582838D01*
X77804811Y-133500217D01*
X77942746Y-133383988D01*
X78051359Y-133239980D01*
X78125204Y-133075414D01*
X78160578Y-132898542D01*
X78155708Y-132718233D01*
X78110838Y-132543529D01*
X78028217Y-132383189D01*
X77871946Y-132148782D01*
X77851138Y-132082082D01*
X77869693Y-132014722D01*
X77871919Y-132011257D01*
X78028217Y-131776811D01*
X78083730Y-131679493D01*
X78143304Y-131509241D01*
X78152866Y-131424383D01*
X78163500Y-131330002D01*
X78163500Y-131329997D01*
X78143305Y-131150764D01*
X78143304Y-131150762D01*
X78143304Y-131150759D01*
X78083730Y-130980507D01*
X77987765Y-130827779D01*
X77860221Y-130700235D01*
X77834444Y-130684038D01*
X77707492Y-130604269D01*
X77537235Y-130544694D01*
X77358004Y-130524500D01*
X77358000Y-130524500D01*
X76208000Y-130524500D01*
X76207996Y-130524500D01*
X76028764Y-130544694D01*
X75858507Y-130604269D01*
X75705778Y-130700235D01*
X75662833Y-130743181D01*
X75601510Y-130776666D01*
X75575152Y-130779500D01*
X73597572Y-130779500D01*
X73530533Y-130759815D01*
X73484778Y-130707011D01*
X73474834Y-130637853D01*
X73503859Y-130574297D01*
X73509891Y-130567819D01*
X73519809Y-130557901D01*
X73664370Y-130358929D01*
X73776026Y-130139792D01*
X73852026Y-129905886D01*
X73890500Y-129662971D01*
X73890500Y-129417029D01*
X73852026Y-129174114D01*
X73804678Y-129028390D01*
X73776027Y-128940210D01*
X73776026Y-128940207D01*
X73715390Y-128821203D01*
X73664370Y-128721071D01*
X73552329Y-128566859D01*
X73519814Y-128522105D01*
X73519810Y-128522100D01*
X73345899Y-128348189D01*
X73345894Y-128348185D01*
X73146932Y-128203632D01*
X73146931Y-128203631D01*
X73146929Y-128203630D01*
X73058853Y-128158753D01*
X72927792Y-128091973D01*
X72927789Y-128091972D01*
X72693887Y-128015974D01*
X72542318Y-127991968D01*
X72450971Y-127977500D01*
X72450970Y-127977500D01*
X72168047Y-127977500D01*
X72101008Y-127957815D01*
X72080366Y-127941181D01*
X67807221Y-123668036D01*
X67807219Y-123668034D01*
X67665464Y-123565043D01*
X67641609Y-123547711D01*
X67485231Y-123468034D01*
X67459219Y-123454780D01*
X67350395Y-123419421D01*
X67350394Y-123419420D01*
X67264532Y-123391522D01*
X67109220Y-123366923D01*
X67062352Y-123359500D01*
X67062351Y-123359500D01*
X60331322Y-123359500D01*
X60264283Y-123339815D01*
X60218528Y-123287011D01*
X60208102Y-123249383D01*
X60200369Y-123180750D01*
X60200368Y-123180745D01*
X60140788Y-123010476D01*
X60044815Y-122857737D01*
X59917262Y-122730184D01*
X59764523Y-122634211D01*
X59594254Y-122574631D01*
X59594249Y-122574630D01*
X59459960Y-122559500D01*
X59459954Y-122559500D01*
X56770046Y-122559500D01*
X56770039Y-122559500D01*
X56635750Y-122574630D01*
X56635745Y-122574631D01*
X56465476Y-122634211D01*
X56312737Y-122730184D01*
X56185184Y-122857737D01*
X56089211Y-123010476D01*
X56029631Y-123180745D01*
X56029630Y-123180750D01*
X56014500Y-123315039D01*
X56014500Y-126004960D01*
X56029630Y-126139249D01*
X56029631Y-126139254D01*
X56089211Y-126309523D01*
X56185184Y-126462262D01*
X56312738Y-126589816D01*
X56465478Y-126685789D01*
X56623279Y-126741006D01*
X56635745Y-126745368D01*
X56635750Y-126745369D01*
X56726246Y-126755565D01*
X56770040Y-126760499D01*
X56770043Y-126760500D01*
X56770046Y-126760500D01*
X59459957Y-126760500D01*
X59459958Y-126760499D01*
X59527104Y-126752934D01*
X59594249Y-126745369D01*
X59594252Y-126745368D01*
X59594255Y-126745368D01*
X59764522Y-126685789D01*
X59917262Y-126589816D01*
X60044816Y-126462262D01*
X60140789Y-126309522D01*
X60200368Y-126139255D01*
X60208102Y-126070617D01*
X60235168Y-126006203D01*
X60292763Y-125966648D01*
X60331322Y-125960500D01*
X66369953Y-125960500D01*
X66436992Y-125980185D01*
X66457634Y-125996819D01*
X69756902Y-129296087D01*
X69790387Y-129357410D01*
X69791695Y-129403161D01*
X69789500Y-129417023D01*
X69789500Y-129662970D01*
X69827974Y-129905887D01*
X69903972Y-130139789D01*
X69903973Y-130139792D01*
X70015632Y-130358932D01*
X70160185Y-130557894D01*
X70160189Y-130557899D01*
X70170109Y-130567819D01*
X70203594Y-130629142D01*
X70198610Y-130698834D01*
X70156738Y-130754767D01*
X70091274Y-130779184D01*
X70082428Y-130779500D01*
X61125046Y-130779500D01*
X61058007Y-130759815D01*
X61037365Y-130743181D01*
X60243241Y-129949057D01*
X60209756Y-129887734D01*
X60207211Y-129852919D01*
X60220408Y-129660000D01*
X60200798Y-129373314D01*
X60142334Y-129091968D01*
X60046105Y-128821206D01*
X60046106Y-128821206D01*
X59913901Y-128566064D01*
X59748187Y-128331299D01*
X59603961Y-128176872D01*
X59552053Y-128121292D01*
X59393086Y-127991963D01*
X59329146Y-127939944D01*
X59083617Y-127790634D01*
X58820063Y-127676158D01*
X58820061Y-127676157D01*
X58820058Y-127676156D01*
X58690578Y-127639877D01*
X58543364Y-127598630D01*
X58543359Y-127598629D01*
X58543358Y-127598629D01*
X58401018Y-127579064D01*
X58258679Y-127559500D01*
X58258678Y-127559500D01*
X57971322Y-127559500D01*
X57971321Y-127559500D01*
X57686642Y-127598629D01*
X57686635Y-127598630D01*
X57483251Y-127655616D01*
X57409942Y-127676156D01*
X57409939Y-127676156D01*
X57409936Y-127676158D01*
X57409935Y-127676158D01*
X57146382Y-127790634D01*
X56900853Y-127939944D01*
X56677950Y-128121289D01*
X56481812Y-128331299D01*
X56316098Y-128566064D01*
X56183894Y-128821206D01*
X56087667Y-129091962D01*
X56087666Y-129091965D01*
X56029201Y-129373319D01*
X56009592Y-129660000D01*
X51300500Y-129660000D01*
X51300500Y-114140000D01*
X56314592Y-114140000D01*
X56334201Y-114426680D01*
X56392666Y-114708034D01*
X56392667Y-114708037D01*
X56488894Y-114978793D01*
X56488893Y-114978793D01*
X56621098Y-115233935D01*
X56786812Y-115468700D01*
X56871923Y-115559831D01*
X56982947Y-115678708D01*
X57179396Y-115838531D01*
X57205853Y-115860055D01*
X57451382Y-116009365D01*
X57589182Y-116069219D01*
X57714942Y-116123844D01*
X57991642Y-116201371D01*
X58241920Y-116235771D01*
X58276321Y-116240500D01*
X58276322Y-116240500D01*
X58563679Y-116240500D01*
X58594370Y-116236281D01*
X58848358Y-116201371D01*
X59125058Y-116123844D01*
X59250818Y-116069219D01*
X59388617Y-116009365D01*
X59388620Y-116009363D01*
X59388625Y-116009361D01*
X59634147Y-115860055D01*
X59857053Y-115678708D01*
X60053189Y-115468698D01*
X60218901Y-115233936D01*
X60351104Y-114978797D01*
X60447334Y-114708032D01*
X60505798Y-114426686D01*
X60525408Y-114140000D01*
X60505798Y-113853314D01*
X60447334Y-113571968D01*
X60432073Y-113529029D01*
X60351105Y-113301206D01*
X60351106Y-113301206D01*
X60218901Y-113046064D01*
X60053187Y-112811299D01*
X59970714Y-112722993D01*
X59857053Y-112601292D01*
X59634147Y-112419945D01*
X59634146Y-112419944D01*
X59388617Y-112270634D01*
X59125063Y-112156158D01*
X59125061Y-112156157D01*
X59125058Y-112156156D01*
X58995578Y-112119877D01*
X58848364Y-112078630D01*
X58848359Y-112078629D01*
X58848358Y-112078629D01*
X58655625Y-112052138D01*
X58563679Y-112039500D01*
X58563678Y-112039500D01*
X58276322Y-112039500D01*
X58276321Y-112039500D01*
X57991642Y-112078629D01*
X57991635Y-112078630D01*
X57783861Y-112136845D01*
X57714942Y-112156156D01*
X57714939Y-112156156D01*
X57714936Y-112156158D01*
X57714935Y-112156158D01*
X57451382Y-112270634D01*
X57205853Y-112419944D01*
X56982950Y-112601289D01*
X56786812Y-112811299D01*
X56621098Y-113046064D01*
X56488894Y-113301206D01*
X56392667Y-113571962D01*
X56392666Y-113571965D01*
X56334201Y-113853319D01*
X56314592Y-114140000D01*
X51300500Y-114140000D01*
X51300500Y-109140000D01*
X56314592Y-109140000D01*
X56334201Y-109426680D01*
X56392666Y-109708034D01*
X56392667Y-109708037D01*
X56488894Y-109978793D01*
X56488893Y-109978793D01*
X56621098Y-110233935D01*
X56786812Y-110468700D01*
X56794395Y-110476819D01*
X56982947Y-110678708D01*
X57101921Y-110775500D01*
X57205853Y-110860055D01*
X57451382Y-111009365D01*
X57638237Y-111090526D01*
X57714942Y-111123844D01*
X57991642Y-111201371D01*
X58241920Y-111235771D01*
X58276321Y-111240500D01*
X58276322Y-111240500D01*
X58563679Y-111240500D01*
X58594370Y-111236281D01*
X58848358Y-111201371D01*
X59125058Y-111123844D01*
X59238015Y-111074779D01*
X59388617Y-111009365D01*
X59388620Y-111009363D01*
X59388625Y-111009361D01*
X59634147Y-110860055D01*
X59857053Y-110678708D01*
X60042762Y-110479863D01*
X60102906Y-110444304D01*
X60133385Y-110440500D01*
X68457152Y-110440500D01*
X68524191Y-110460185D01*
X68544833Y-110476819D01*
X68667779Y-110599765D01*
X68820507Y-110695730D01*
X68990759Y-110755304D01*
X68990762Y-110755304D01*
X68990764Y-110755305D01*
X69080379Y-110765402D01*
X69169995Y-110775499D01*
X69169996Y-110775500D01*
X69170000Y-110775500D01*
X70319999Y-110775500D01*
X70320000Y-110775500D01*
X70431767Y-110767708D01*
X70606471Y-110722838D01*
X70766811Y-110640217D01*
X70904746Y-110523988D01*
X71013359Y-110379980D01*
X71087204Y-110215414D01*
X71122578Y-110038542D01*
X71117708Y-109858233D01*
X71072838Y-109683529D01*
X70990217Y-109523189D01*
X70833946Y-109288782D01*
X70813138Y-109222082D01*
X70831693Y-109154722D01*
X70833919Y-109151257D01*
X70990217Y-108916811D01*
X71045730Y-108819493D01*
X71105304Y-108649241D01*
X71114012Y-108571962D01*
X71125500Y-108470002D01*
X71125500Y-108469997D01*
X71105305Y-108290764D01*
X71105304Y-108290762D01*
X71105304Y-108290759D01*
X71045730Y-108120507D01*
X70949765Y-107967779D01*
X70822221Y-107840235D01*
X70776174Y-107811302D01*
X70669492Y-107744269D01*
X70499235Y-107684694D01*
X70320004Y-107664500D01*
X70320000Y-107664500D01*
X69170000Y-107664500D01*
X69169996Y-107664500D01*
X68990764Y-107684694D01*
X68820507Y-107744269D01*
X68699197Y-107820494D01*
X68633225Y-107839500D01*
X60133385Y-107839500D01*
X60066346Y-107819815D01*
X60042762Y-107800137D01*
X59916085Y-107664500D01*
X59857053Y-107601292D01*
X59634147Y-107419945D01*
X59634146Y-107419944D01*
X59388617Y-107270634D01*
X59125063Y-107156158D01*
X59125061Y-107156157D01*
X59125058Y-107156156D01*
X58995578Y-107119877D01*
X58848364Y-107078630D01*
X58848359Y-107078629D01*
X58848358Y-107078629D01*
X58706018Y-107059064D01*
X58563679Y-107039500D01*
X58563678Y-107039500D01*
X58276322Y-107039500D01*
X58276321Y-107039500D01*
X57991642Y-107078629D01*
X57991635Y-107078630D01*
X57783861Y-107136845D01*
X57714942Y-107156156D01*
X57714939Y-107156156D01*
X57714936Y-107156158D01*
X57714935Y-107156158D01*
X57451382Y-107270634D01*
X57205853Y-107419944D01*
X56982950Y-107601289D01*
X56786812Y-107811299D01*
X56621098Y-108046064D01*
X56488894Y-108301206D01*
X56392667Y-108571962D01*
X56392666Y-108571965D01*
X56334201Y-108853319D01*
X56314592Y-109140000D01*
X51300500Y-109140000D01*
X51300500Y-94140000D01*
X56314592Y-94140000D01*
X56334201Y-94426680D01*
X56334201Y-94426684D01*
X56334202Y-94426686D01*
X56342046Y-94464435D01*
X56392666Y-94708034D01*
X56392667Y-94708037D01*
X56488894Y-94978793D01*
X56488893Y-94978793D01*
X56621098Y-95233935D01*
X56786812Y-95468700D01*
X56842227Y-95528034D01*
X56982947Y-95678708D01*
X57010430Y-95701067D01*
X57205853Y-95860055D01*
X57451382Y-96009365D01*
X57638237Y-96090526D01*
X57714942Y-96123844D01*
X57991642Y-96201371D01*
X58241920Y-96235771D01*
X58276321Y-96240500D01*
X58276322Y-96240500D01*
X58563679Y-96240500D01*
X58594370Y-96236281D01*
X58848358Y-96201371D01*
X59125058Y-96123844D01*
X59360922Y-96021393D01*
X59430254Y-96012740D01*
X59493258Y-96042944D01*
X59529931Y-96102415D01*
X59528630Y-96172273D01*
X59498005Y-96222809D01*
X58710650Y-97010164D01*
X58649327Y-97043649D01*
X58606085Y-97045328D01*
X58563680Y-97039500D01*
X58563678Y-97039500D01*
X58276322Y-97039500D01*
X58276321Y-97039500D01*
X57991642Y-97078629D01*
X57991635Y-97078630D01*
X57783861Y-97136845D01*
X57714942Y-97156156D01*
X57714939Y-97156156D01*
X57714936Y-97156158D01*
X57714935Y-97156158D01*
X57451382Y-97270634D01*
X57205853Y-97419944D01*
X56982950Y-97601289D01*
X56786812Y-97811299D01*
X56621098Y-98046064D01*
X56488894Y-98301206D01*
X56392667Y-98571962D01*
X56392666Y-98571965D01*
X56334201Y-98853319D01*
X56314592Y-99140000D01*
X56334201Y-99426680D01*
X56392666Y-99708034D01*
X56392667Y-99708037D01*
X56488894Y-99978793D01*
X56488893Y-99978793D01*
X56621098Y-100233935D01*
X56786812Y-100468700D01*
X56818050Y-100502147D01*
X56982947Y-100678708D01*
X57111137Y-100782998D01*
X57205853Y-100860055D01*
X57451382Y-101009365D01*
X57638237Y-101090526D01*
X57714942Y-101123844D01*
X57991642Y-101201371D01*
X58241920Y-101235771D01*
X58276321Y-101240500D01*
X58276322Y-101240500D01*
X58563679Y-101240500D01*
X58594370Y-101236281D01*
X58848358Y-101201371D01*
X59125058Y-101123844D01*
X59360922Y-101021393D01*
X59430253Y-101012740D01*
X59493257Y-101042944D01*
X59529930Y-101102415D01*
X59528629Y-101172273D01*
X59498004Y-101222809D01*
X58710649Y-102010164D01*
X58649326Y-102043649D01*
X58606084Y-102045328D01*
X58563680Y-102039500D01*
X58563678Y-102039500D01*
X58276322Y-102039500D01*
X58276321Y-102039500D01*
X57991642Y-102078629D01*
X57991635Y-102078630D01*
X57801035Y-102132034D01*
X57714942Y-102156156D01*
X57714939Y-102156156D01*
X57714936Y-102156158D01*
X57714935Y-102156158D01*
X57451382Y-102270634D01*
X57205853Y-102419944D01*
X56982950Y-102601289D01*
X56786812Y-102811299D01*
X56621098Y-103046064D01*
X56488894Y-103301206D01*
X56392667Y-103571962D01*
X56392666Y-103571965D01*
X56334201Y-103853319D01*
X56314592Y-104140000D01*
X56334201Y-104426680D01*
X56392666Y-104708034D01*
X56392667Y-104708037D01*
X56488894Y-104978793D01*
X56488893Y-104978793D01*
X56621098Y-105233935D01*
X56786812Y-105468700D01*
X56867190Y-105554763D01*
X56982947Y-105678708D01*
X57205853Y-105860055D01*
X57451382Y-106009365D01*
X57638237Y-106090526D01*
X57714942Y-106123844D01*
X57991642Y-106201371D01*
X58241920Y-106235771D01*
X58276321Y-106240500D01*
X58276322Y-106240500D01*
X58563679Y-106240500D01*
X58594370Y-106236281D01*
X58848358Y-106201371D01*
X59125058Y-106123844D01*
X59238015Y-106074779D01*
X59388617Y-106009365D01*
X59388620Y-106009363D01*
X59388625Y-106009361D01*
X59634147Y-105860055D01*
X59857053Y-105678708D01*
X60053189Y-105468698D01*
X60218901Y-105233936D01*
X60351104Y-104978797D01*
X60447334Y-104708032D01*
X60505798Y-104426686D01*
X60525408Y-104140000D01*
X60512211Y-103947083D01*
X60527274Y-103878859D01*
X60548237Y-103850946D01*
X64002366Y-100396819D01*
X64063689Y-100363334D01*
X64090047Y-100360500D01*
X70082428Y-100360500D01*
X70149467Y-100380185D01*
X70195222Y-100432989D01*
X70205166Y-100502147D01*
X70176141Y-100565703D01*
X70170109Y-100572181D01*
X70160189Y-100582100D01*
X70160185Y-100582105D01*
X70015632Y-100781067D01*
X69903973Y-101000207D01*
X69903972Y-101000210D01*
X69827974Y-101234112D01*
X69789500Y-101477029D01*
X69789500Y-101722970D01*
X69827974Y-101965887D01*
X69903972Y-102199789D01*
X69903973Y-102199792D01*
X70015632Y-102418932D01*
X70160185Y-102617894D01*
X70160189Y-102617899D01*
X70324609Y-102782319D01*
X70358094Y-102843642D01*
X70353110Y-102913334D01*
X70324609Y-102957681D01*
X70160189Y-103122100D01*
X70160185Y-103122105D01*
X70015632Y-103321067D01*
X69903973Y-103540207D01*
X69903972Y-103540210D01*
X69827974Y-103774112D01*
X69789500Y-104017029D01*
X69789500Y-104262970D01*
X69827974Y-104505887D01*
X69903972Y-104739789D01*
X69903973Y-104739792D01*
X70015632Y-104958932D01*
X70160185Y-105157894D01*
X70160189Y-105157899D01*
X70334100Y-105331810D01*
X70334105Y-105331814D01*
X70507650Y-105457901D01*
X70533071Y-105476370D01*
X70676322Y-105549360D01*
X70752207Y-105588026D01*
X70752210Y-105588027D01*
X70869161Y-105626026D01*
X70986114Y-105664026D01*
X71229029Y-105702500D01*
X71229030Y-105702500D01*
X72450970Y-105702500D01*
X72450971Y-105702500D01*
X72693886Y-105664026D01*
X72927792Y-105588026D01*
X73146929Y-105476370D01*
X73345901Y-105331809D01*
X73519809Y-105157901D01*
X73664370Y-104958929D01*
X73776026Y-104739792D01*
X73852026Y-104505886D01*
X73890500Y-104262971D01*
X73890500Y-104017029D01*
X73852026Y-103774114D01*
X73804020Y-103626366D01*
X73776027Y-103540210D01*
X73776026Y-103540207D01*
X73737360Y-103464322D01*
X73664370Y-103321071D01*
X73549162Y-103162500D01*
X73519814Y-103122105D01*
X73519810Y-103122100D01*
X73355391Y-102957681D01*
X73321906Y-102896358D01*
X73326890Y-102826666D01*
X73355391Y-102782319D01*
X73519809Y-102617901D01*
X73664370Y-102418929D01*
X73776026Y-102199792D01*
X73852026Y-101965886D01*
X73890500Y-101722971D01*
X73890500Y-101477029D01*
X73852026Y-101234114D01*
X73780098Y-101012740D01*
X73776027Y-101000210D01*
X73776026Y-101000207D01*
X73700340Y-100851667D01*
X73664370Y-100781071D01*
X73590001Y-100678710D01*
X73519814Y-100582105D01*
X73519810Y-100582100D01*
X73355391Y-100417681D01*
X73321906Y-100356358D01*
X73326890Y-100286666D01*
X73355391Y-100242319D01*
X73387096Y-100210614D01*
X73519809Y-100077901D01*
X73664370Y-99878929D01*
X73776026Y-99659792D01*
X73852026Y-99425886D01*
X73890500Y-99182971D01*
X73890500Y-98937029D01*
X73852026Y-98694114D01*
X73776026Y-98460208D01*
X73776026Y-98460207D01*
X73695010Y-98301206D01*
X73664370Y-98241071D01*
X73645901Y-98215650D01*
X73519814Y-98042105D01*
X73519810Y-98042100D01*
X73355391Y-97877681D01*
X73321906Y-97816358D01*
X73326890Y-97746666D01*
X73355391Y-97702319D01*
X73413358Y-97644352D01*
X73519809Y-97537901D01*
X73664370Y-97338929D01*
X73776026Y-97119792D01*
X73852026Y-96885886D01*
X73890500Y-96642971D01*
X73890500Y-96397029D01*
X73852026Y-96154114D01*
X73776026Y-95920208D01*
X73776026Y-95920207D01*
X73737360Y-95844322D01*
X73664370Y-95701071D01*
X73643816Y-95672781D01*
X73519814Y-95502105D01*
X73519810Y-95502100D01*
X73509891Y-95492181D01*
X73476406Y-95430858D01*
X73481390Y-95361166D01*
X73523262Y-95305233D01*
X73588726Y-95280816D01*
X73597572Y-95280500D01*
X76247152Y-95280500D01*
X76314191Y-95300185D01*
X76334833Y-95316819D01*
X76377779Y-95359765D01*
X76530507Y-95455730D01*
X76700759Y-95515304D01*
X76700762Y-95515304D01*
X76700764Y-95515305D01*
X76790379Y-95525402D01*
X76879995Y-95535499D01*
X76879996Y-95535500D01*
X76880000Y-95535500D01*
X78029999Y-95535500D01*
X78030000Y-95535500D01*
X78141767Y-95527708D01*
X78316471Y-95482838D01*
X78476811Y-95400217D01*
X78614746Y-95283988D01*
X78723359Y-95139980D01*
X78797204Y-94975414D01*
X78832578Y-94798542D01*
X78827708Y-94618233D01*
X78782838Y-94443529D01*
X78700217Y-94283189D01*
X78543946Y-94048782D01*
X78523138Y-93982082D01*
X78541693Y-93914722D01*
X78543919Y-93911257D01*
X78700217Y-93676811D01*
X78755730Y-93579493D01*
X78815304Y-93409241D01*
X78835500Y-93230000D01*
X78815304Y-93050759D01*
X78755730Y-92880507D01*
X78659765Y-92727779D01*
X78532221Y-92600235D01*
X78379492Y-92504269D01*
X78209235Y-92444694D01*
X78030004Y-92424500D01*
X78030000Y-92424500D01*
X76880000Y-92424500D01*
X76879996Y-92424500D01*
X76700764Y-92444694D01*
X76530507Y-92504269D01*
X76377778Y-92600235D01*
X76334833Y-92643181D01*
X76273510Y-92676666D01*
X76247152Y-92679500D01*
X73597572Y-92679500D01*
X73530533Y-92659815D01*
X73484778Y-92607011D01*
X73474834Y-92537853D01*
X73503859Y-92474297D01*
X73509891Y-92467819D01*
X73519809Y-92457901D01*
X73664370Y-92258929D01*
X73776026Y-92039792D01*
X73852026Y-91805886D01*
X73890500Y-91562971D01*
X73890500Y-91317029D01*
X73852026Y-91074114D01*
X73776026Y-90840208D01*
X73776026Y-90840207D01*
X73709212Y-90709079D01*
X73664370Y-90621071D01*
X73631368Y-90575648D01*
X84551500Y-90575648D01*
X84551500Y-97644357D01*
X84579399Y-97820500D01*
X84583521Y-97846525D01*
X84583522Y-97846531D01*
X84583523Y-97846534D01*
X84586865Y-97856819D01*
X84646779Y-98041217D01*
X84649250Y-98046067D01*
X84649251Y-98046068D01*
X84739713Y-98223611D01*
X84860034Y-98389219D01*
X84860036Y-98389221D01*
X87983134Y-101512319D01*
X88016619Y-101573642D01*
X88011635Y-101643334D01*
X87983134Y-101687681D01*
X84860036Y-104810778D01*
X84860031Y-104810784D01*
X84739716Y-104976384D01*
X84739706Y-104976401D01*
X84734196Y-104987216D01*
X84734195Y-104987219D01*
X84646332Y-105159658D01*
X84645272Y-105163420D01*
X84583522Y-105353467D01*
X84583522Y-105353468D01*
X84551640Y-105554763D01*
X84551636Y-105554788D01*
X84551500Y-105555645D01*
X84551500Y-135744351D01*
X84583522Y-135946531D01*
X84583522Y-135946532D01*
X84614808Y-136042820D01*
X84646778Y-136141216D01*
X84646780Y-136141219D01*
X84673965Y-136194573D01*
X84739713Y-136323611D01*
X84860034Y-136489219D01*
X86888496Y-138517681D01*
X88914908Y-140544092D01*
X88914922Y-140544107D01*
X88918033Y-140547218D01*
X88918034Y-140547219D01*
X89062781Y-140691966D01*
X89062784Y-140691968D01*
X89062788Y-140691972D01*
X89200428Y-140791973D01*
X89228384Y-140812283D01*
X89228390Y-140812287D01*
X89309859Y-140853798D01*
X89410781Y-140905221D01*
X89410784Y-140905222D01*
X89580915Y-140960500D01*
X89605466Y-140968477D01*
X89807648Y-141000500D01*
X89807649Y-141000500D01*
X90012352Y-141000500D01*
X90763410Y-141000500D01*
X90830449Y-141020185D01*
X90836289Y-141024177D01*
X90853071Y-141036370D01*
X90960551Y-141091133D01*
X91072207Y-141148026D01*
X91072210Y-141148027D01*
X91189161Y-141186026D01*
X91306114Y-141224026D01*
X91549029Y-141262500D01*
X91549030Y-141262500D01*
X92770970Y-141262500D01*
X92770971Y-141262500D01*
X93013886Y-141224026D01*
X93247792Y-141148026D01*
X93466929Y-141036370D01*
X93665901Y-140891809D01*
X93839809Y-140717901D01*
X93984370Y-140518929D01*
X94096026Y-140299792D01*
X94172026Y-140065886D01*
X94210500Y-139822971D01*
X94210500Y-139577029D01*
X94172026Y-139334114D01*
X94124678Y-139188390D01*
X94096027Y-139100210D01*
X94096026Y-139100207D01*
X94057360Y-139024322D01*
X93984370Y-138881071D01*
X93872329Y-138726859D01*
X93839814Y-138682105D01*
X93839810Y-138682100D01*
X93829891Y-138672181D01*
X93796406Y-138610858D01*
X93801390Y-138541166D01*
X93843262Y-138485233D01*
X93908726Y-138460816D01*
X93917572Y-138460500D01*
X96729660Y-138460500D01*
X96729661Y-138460500D01*
X96931844Y-138428477D01*
X97029185Y-138396848D01*
X97126528Y-138365220D01*
X97223581Y-138315769D01*
X97308920Y-138272287D01*
X97474528Y-138151966D01*
X99390109Y-136236382D01*
X99451432Y-136202898D01*
X99521123Y-136207882D01*
X99577057Y-136249754D01*
X99595720Y-136285744D01*
X99666759Y-136504379D01*
X99777321Y-136721370D01*
X99781132Y-136728848D01*
X99929201Y-136932649D01*
X99929205Y-136932654D01*
X100068870Y-137072319D01*
X100102355Y-137133642D01*
X100097371Y-137203334D01*
X100068870Y-137247681D01*
X99929205Y-137387345D01*
X99929201Y-137387350D01*
X99781132Y-137591151D01*
X99666760Y-137815616D01*
X99588910Y-138055214D01*
X99573586Y-138151966D01*
X99549500Y-138304038D01*
X99549500Y-138555962D01*
X99569479Y-138682105D01*
X99588910Y-138804785D01*
X99666760Y-139044383D01*
X99781132Y-139268848D01*
X99929201Y-139472649D01*
X99929205Y-139472654D01*
X100068870Y-139612319D01*
X100102355Y-139673642D01*
X100097371Y-139743334D01*
X100068870Y-139787681D01*
X99929205Y-139927345D01*
X99929201Y-139927350D01*
X99781132Y-140131151D01*
X99666760Y-140355616D01*
X99588910Y-140595214D01*
X99588910Y-140595215D01*
X99549500Y-140844038D01*
X99549500Y-141095962D01*
X99569479Y-141222105D01*
X99588910Y-141344785D01*
X99666760Y-141584383D01*
X99781132Y-141808848D01*
X99929201Y-142012649D01*
X99929205Y-142012654D01*
X100068870Y-142152319D01*
X100102355Y-142213642D01*
X100097371Y-142283334D01*
X100068870Y-142327681D01*
X99929205Y-142467345D01*
X99929201Y-142467350D01*
X99781132Y-142671151D01*
X99666760Y-142895616D01*
X99588910Y-143135214D01*
X99549500Y-143384038D01*
X99549500Y-143635961D01*
X99588910Y-143884785D01*
X99666760Y-144124383D01*
X99781132Y-144348848D01*
X99929201Y-144552649D01*
X99929205Y-144552654D01*
X100068870Y-144692319D01*
X100102355Y-144753642D01*
X100097371Y-144823334D01*
X100068870Y-144867681D01*
X99929205Y-145007345D01*
X99929201Y-145007350D01*
X99781132Y-145211151D01*
X99666760Y-145435616D01*
X99588910Y-145675214D01*
X99549500Y-145924038D01*
X99549500Y-146175961D01*
X99588910Y-146424785D01*
X99666760Y-146664383D01*
X99709995Y-146749235D01*
X99774959Y-146876734D01*
X99781132Y-146888848D01*
X99929201Y-147092649D01*
X99929205Y-147092654D01*
X100107345Y-147270794D01*
X100107350Y-147270798D01*
X100177937Y-147322082D01*
X100311155Y-147418870D01*
X100454184Y-147491747D01*
X100535616Y-147533239D01*
X100535618Y-147533239D01*
X100535621Y-147533241D01*
X100775215Y-147611090D01*
X101024038Y-147650500D01*
X101309953Y-147650500D01*
X101376992Y-147670185D01*
X101397634Y-147686819D01*
X107052786Y-153341971D01*
X107207749Y-153454556D01*
X107218390Y-153462287D01*
X107334607Y-153521503D01*
X107400776Y-153555218D01*
X107400778Y-153555218D01*
X107400781Y-153555220D01*
X107498116Y-153586846D01*
X107595465Y-153618477D01*
X107696557Y-153634488D01*
X107797648Y-153650500D01*
X107797649Y-153650500D01*
X121310351Y-153650500D01*
X121310352Y-153650500D01*
X121512535Y-153618477D01*
X121609876Y-153586848D01*
X121707219Y-153555220D01*
X121798414Y-153508753D01*
X121889611Y-153462287D01*
X122055219Y-153341966D01*
X124020999Y-151376186D01*
X134886500Y-151376186D01*
X134886500Y-151645813D01*
X134916686Y-151913719D01*
X134916688Y-151913731D01*
X134976684Y-152176594D01*
X134976687Y-152176602D01*
X135065734Y-152431082D01*
X135182714Y-152673994D01*
X135182716Y-152673997D01*
X135326162Y-152902289D01*
X135494266Y-153113085D01*
X135684915Y-153303734D01*
X135895711Y-153471838D01*
X136124003Y-153615284D01*
X136366921Y-153732267D01*
X136558049Y-153799145D01*
X136621397Y-153821312D01*
X136621405Y-153821315D01*
X136621408Y-153821315D01*
X136621409Y-153821316D01*
X136884268Y-153881312D01*
X137152187Y-153911499D01*
X137152188Y-153911500D01*
X137152191Y-153911500D01*
X137421812Y-153911500D01*
X137421812Y-153911499D01*
X137689732Y-153881312D01*
X137952591Y-153821316D01*
X138207079Y-153732267D01*
X138449997Y-153615284D01*
X138678289Y-153471838D01*
X138889085Y-153303734D01*
X139079734Y-153113085D01*
X139247838Y-152902289D01*
X139391284Y-152673997D01*
X139508267Y-152431079D01*
X139597316Y-152176591D01*
X139657312Y-151913732D01*
X139687500Y-151645809D01*
X139687500Y-151376191D01*
X139657312Y-151108268D01*
X139597316Y-150845409D01*
X139508267Y-150590921D01*
X139391284Y-150348003D01*
X139247838Y-150119711D01*
X139079734Y-149908915D01*
X138889085Y-149718266D01*
X138678289Y-149550162D01*
X138449997Y-149406716D01*
X138449994Y-149406714D01*
X138207082Y-149289734D01*
X137952602Y-149200687D01*
X137952594Y-149200684D01*
X137755446Y-149155687D01*
X137689732Y-149140688D01*
X137689728Y-149140687D01*
X137689719Y-149140686D01*
X137421813Y-149110500D01*
X137421809Y-149110500D01*
X137152191Y-149110500D01*
X137152186Y-149110500D01*
X136884280Y-149140686D01*
X136884268Y-149140688D01*
X136621405Y-149200684D01*
X136621397Y-149200687D01*
X136366917Y-149289734D01*
X136124005Y-149406714D01*
X135895712Y-149550161D01*
X135684915Y-149718265D01*
X135494265Y-149908915D01*
X135326161Y-150119712D01*
X135182714Y-150348005D01*
X135065734Y-150590917D01*
X134976687Y-150845397D01*
X134976684Y-150845405D01*
X134916688Y-151108268D01*
X134916686Y-151108280D01*
X134886500Y-151376186D01*
X124020999Y-151376186D01*
X127991966Y-147405219D01*
X128112287Y-147239611D01*
X128192836Y-147081523D01*
X128205220Y-147057219D01*
X128259928Y-146888845D01*
X128259928Y-146888843D01*
X128259930Y-146888841D01*
X128268475Y-146862542D01*
X128268475Y-146862540D01*
X128268477Y-146862535D01*
X128300500Y-146660352D01*
X128300500Y-146455648D01*
X128300500Y-145844445D01*
X128320185Y-145777406D01*
X128330207Y-145763917D01*
X128339412Y-145753140D01*
X128475154Y-145531628D01*
X128574573Y-145291610D01*
X128635221Y-145038994D01*
X128655604Y-144780000D01*
X128635221Y-144521006D01*
X128574573Y-144268390D01*
X128475154Y-144028372D01*
X128339412Y-143806860D01*
X128170689Y-143609311D01*
X128164809Y-143604289D01*
X128126617Y-143545787D01*
X128126116Y-143475919D01*
X128163468Y-143416872D01*
X128164702Y-143415802D01*
X128170689Y-143410689D01*
X128339412Y-143213140D01*
X128475154Y-142991628D01*
X128574573Y-142751610D01*
X128635221Y-142498994D01*
X128655604Y-142240000D01*
X128635221Y-141981006D01*
X128574573Y-141728390D01*
X128475154Y-141488372D01*
X128339412Y-141266860D01*
X128170689Y-141069311D01*
X128164809Y-141064289D01*
X128126617Y-141005787D01*
X128126116Y-140935919D01*
X128163468Y-140876872D01*
X128164702Y-140875802D01*
X128170689Y-140870689D01*
X128339412Y-140673140D01*
X128475154Y-140451628D01*
X128574573Y-140211610D01*
X128635221Y-139958994D01*
X128655604Y-139700000D01*
X128635221Y-139441006D01*
X128574573Y-139188390D01*
X128475154Y-138948372D01*
X128339412Y-138726860D01*
X128170689Y-138529311D01*
X128164809Y-138524289D01*
X128126617Y-138465787D01*
X128126116Y-138395919D01*
X128163468Y-138336872D01*
X128164702Y-138335802D01*
X128170689Y-138330689D01*
X128339412Y-138133140D01*
X128475154Y-137911628D01*
X128574573Y-137671610D01*
X128635221Y-137418994D01*
X128655604Y-137160000D01*
X128635221Y-136901006D01*
X128574573Y-136648390D01*
X128475154Y-136408372D01*
X128339412Y-136186860D01*
X128170689Y-135989311D01*
X128164809Y-135984289D01*
X128126617Y-135925787D01*
X128126116Y-135855919D01*
X128163468Y-135796872D01*
X128164702Y-135795802D01*
X128170689Y-135790689D01*
X128339412Y-135593140D01*
X128475154Y-135371628D01*
X128574573Y-135131610D01*
X128635221Y-134878994D01*
X128655604Y-134620000D01*
X128635221Y-134361006D01*
X128574573Y-134108390D01*
X128475154Y-133868372D01*
X128339412Y-133646860D01*
X128170689Y-133449311D01*
X127976176Y-133283181D01*
X127973137Y-133280585D01*
X127973135Y-133280584D01*
X127943229Y-133262258D01*
X127896354Y-133210447D01*
X127884931Y-133141517D01*
X127912588Y-133077354D01*
X127920338Y-133068850D01*
X128038105Y-132951082D01*
X128173600Y-132757578D01*
X128273429Y-132543492D01*
X128273432Y-132543486D01*
X128330636Y-132330000D01*
X127433012Y-132330000D01*
X127465925Y-132272993D01*
X127500000Y-132145826D01*
X127500000Y-132014174D01*
X127465925Y-131887007D01*
X127433012Y-131830000D01*
X128330636Y-131830000D01*
X128330635Y-131829999D01*
X128273432Y-131616513D01*
X128273429Y-131616507D01*
X128173600Y-131402422D01*
X128173599Y-131402420D01*
X128038113Y-131208926D01*
X127920337Y-131091149D01*
X127886853Y-131029826D01*
X127891837Y-130960134D01*
X127933709Y-130904201D01*
X127943228Y-130897742D01*
X127973140Y-130879412D01*
X128170689Y-130710689D01*
X128339412Y-130513140D01*
X128475154Y-130291628D01*
X128574573Y-130051610D01*
X128635221Y-129798994D01*
X128655604Y-129540000D01*
X128635221Y-129281006D01*
X128574573Y-129028390D01*
X128511879Y-128877035D01*
X128475156Y-128788376D01*
X128433909Y-128721067D01*
X128339412Y-128566860D01*
X128170689Y-128369311D01*
X128164809Y-128364289D01*
X128126617Y-128305787D01*
X128126116Y-128235919D01*
X128163468Y-128176872D01*
X128164702Y-128175802D01*
X128170689Y-128170689D01*
X128339412Y-127973140D01*
X128475154Y-127751628D01*
X128574573Y-127511610D01*
X128635221Y-127258994D01*
X128655604Y-127000000D01*
X128635221Y-126741006D01*
X128574573Y-126488390D01*
X128475154Y-126248372D01*
X128475154Y-126248371D01*
X128362297Y-126064205D01*
X128344052Y-125996759D01*
X128365168Y-125930157D01*
X128380333Y-125911744D01*
X128479816Y-125812262D01*
X128575789Y-125659522D01*
X128635368Y-125489255D01*
X128650500Y-125354954D01*
X128650500Y-123565046D01*
X128645565Y-123521246D01*
X128635369Y-123430750D01*
X128635368Y-123430745D01*
X128603550Y-123339815D01*
X128575789Y-123260478D01*
X128479816Y-123107738D01*
X128352262Y-122980184D01*
X128199523Y-122884211D01*
X128029254Y-122824631D01*
X128029249Y-122824630D01*
X127894960Y-122809500D01*
X127894954Y-122809500D01*
X127240047Y-122809500D01*
X127173008Y-122789815D01*
X127152366Y-122773181D01*
X121796866Y-117417681D01*
X121763381Y-117356358D01*
X121768365Y-117286666D01*
X121796866Y-117242319D01*
X122225543Y-116813642D01*
X122657966Y-116381219D01*
X122778287Y-116215611D01*
X122852877Y-116069219D01*
X122871220Y-116033219D01*
X122922780Y-115874534D01*
X122934477Y-115838535D01*
X122966500Y-115636352D01*
X122966500Y-115431649D01*
X122966500Y-103021648D01*
X122934477Y-102819465D01*
X122871218Y-102624776D01*
X122837503Y-102558607D01*
X122778287Y-102442390D01*
X122761242Y-102418929D01*
X122657971Y-102276786D01*
X110035371Y-89654186D01*
X135140500Y-89654186D01*
X135140500Y-89923813D01*
X135170686Y-90191719D01*
X135170688Y-90191731D01*
X135230684Y-90454594D01*
X135230687Y-90454602D01*
X135319734Y-90709082D01*
X135436714Y-90951994D01*
X135436716Y-90951997D01*
X135580162Y-91180289D01*
X135748266Y-91391085D01*
X135938915Y-91581734D01*
X136149711Y-91749838D01*
X136378003Y-91893284D01*
X136620921Y-92010267D01*
X136812049Y-92077145D01*
X136875397Y-92099312D01*
X136875405Y-92099315D01*
X136875408Y-92099315D01*
X136875409Y-92099316D01*
X137138268Y-92159312D01*
X137406187Y-92189499D01*
X137406188Y-92189500D01*
X137406191Y-92189500D01*
X137675812Y-92189500D01*
X137675812Y-92189499D01*
X137943732Y-92159312D01*
X138206591Y-92099316D01*
X138461079Y-92010267D01*
X138703997Y-91893284D01*
X138932289Y-91749838D01*
X139143085Y-91581734D01*
X139333734Y-91391085D01*
X139501838Y-91180289D01*
X139645284Y-90951997D01*
X139762267Y-90709079D01*
X139851316Y-90454591D01*
X139911312Y-90191732D01*
X139941500Y-89923809D01*
X139941500Y-89654191D01*
X139911312Y-89386268D01*
X139851316Y-89123409D01*
X139762267Y-88868921D01*
X139645284Y-88626003D01*
X139501838Y-88397711D01*
X139333734Y-88186915D01*
X139143085Y-87996266D01*
X139124250Y-87981246D01*
X139021645Y-87899421D01*
X138932289Y-87828162D01*
X138703997Y-87684716D01*
X138703994Y-87684714D01*
X138461082Y-87567734D01*
X138206602Y-87478687D01*
X138206594Y-87478684D01*
X138009446Y-87433687D01*
X137943732Y-87418688D01*
X137943728Y-87418687D01*
X137943719Y-87418686D01*
X137675813Y-87388500D01*
X137675809Y-87388500D01*
X137406191Y-87388500D01*
X137406186Y-87388500D01*
X137138280Y-87418686D01*
X137138268Y-87418688D01*
X136875405Y-87478684D01*
X136875397Y-87478687D01*
X136620917Y-87567734D01*
X136378005Y-87684714D01*
X136149712Y-87828161D01*
X135938915Y-87996265D01*
X135748265Y-88186915D01*
X135580161Y-88397712D01*
X135436714Y-88626005D01*
X135319734Y-88868917D01*
X135230687Y-89123397D01*
X135230684Y-89123405D01*
X135170688Y-89386268D01*
X135170686Y-89386280D01*
X135140500Y-89654186D01*
X110035371Y-89654186D01*
X108543221Y-88162036D01*
X108543219Y-88162034D01*
X108377611Y-88041713D01*
X108286414Y-87995246D01*
X108195219Y-87948780D01*
X108043308Y-87899421D01*
X108043306Y-87899419D01*
X108000536Y-87885523D01*
X108000531Y-87885522D01*
X107859364Y-87863163D01*
X107798352Y-87853500D01*
X87273648Y-87853500D01*
X87249329Y-87857351D01*
X87071465Y-87885522D01*
X86876776Y-87948781D01*
X86738280Y-88019349D01*
X86694390Y-88041713D01*
X86694389Y-88041714D01*
X86686491Y-88047452D01*
X86686490Y-88047451D01*
X86686490Y-88047452D01*
X86528786Y-88162028D01*
X84860036Y-89830778D01*
X84739711Y-89996391D01*
X84737251Y-90001218D01*
X84737252Y-90001219D01*
X84646781Y-90178776D01*
X84619031Y-90264184D01*
X84583522Y-90373467D01*
X84575820Y-90422099D01*
X84551500Y-90575648D01*
X73631368Y-90575648D01*
X73519814Y-90422105D01*
X73519809Y-90422099D01*
X73345899Y-90248189D01*
X73345894Y-90248185D01*
X73146932Y-90103632D01*
X73146931Y-90103631D01*
X73146929Y-90103630D01*
X73076722Y-90067858D01*
X72927792Y-89991973D01*
X72927789Y-89991972D01*
X72693887Y-89915974D01*
X72572428Y-89896737D01*
X72450971Y-89877500D01*
X72450970Y-89877500D01*
X72168047Y-89877500D01*
X72101008Y-89857815D01*
X72080366Y-89841181D01*
X70387221Y-88148036D01*
X70387219Y-88148034D01*
X70221611Y-88027713D01*
X70130414Y-87981246D01*
X70039219Y-87934780D01*
X69887622Y-87885523D01*
X69887620Y-87885521D01*
X69844536Y-87871523D01*
X69844531Y-87871522D01*
X69703364Y-87849163D01*
X69642352Y-87839500D01*
X69642351Y-87839500D01*
X60636322Y-87839500D01*
X60569283Y-87819815D01*
X60523528Y-87767011D01*
X60513102Y-87729383D01*
X60505369Y-87660750D01*
X60505368Y-87660745D01*
X60447436Y-87495186D01*
X77609500Y-87495186D01*
X77609500Y-87764813D01*
X77639686Y-88032719D01*
X77639688Y-88032731D01*
X77699684Y-88295594D01*
X77699687Y-88295602D01*
X77788734Y-88550082D01*
X77905714Y-88792994D01*
X77905716Y-88792997D01*
X78049162Y-89021289D01*
X78217266Y-89232085D01*
X78407915Y-89422734D01*
X78618711Y-89590838D01*
X78847003Y-89734284D01*
X79089921Y-89851267D01*
X79274843Y-89915974D01*
X79344397Y-89940312D01*
X79344405Y-89940315D01*
X79344408Y-89940315D01*
X79344409Y-89940316D01*
X79607268Y-90000312D01*
X79875187Y-90030499D01*
X79875188Y-90030500D01*
X79875191Y-90030500D01*
X80144812Y-90030500D01*
X80144812Y-90030499D01*
X80412732Y-90000312D01*
X80675591Y-89940316D01*
X80930079Y-89851267D01*
X81172997Y-89734284D01*
X81401289Y-89590838D01*
X81612085Y-89422734D01*
X81802734Y-89232085D01*
X81970838Y-89021289D01*
X82114284Y-88792997D01*
X82231267Y-88550079D01*
X82320316Y-88295591D01*
X82380312Y-88032732D01*
X82410500Y-87764809D01*
X82410500Y-87495191D01*
X82380312Y-87227268D01*
X82320316Y-86964409D01*
X82231267Y-86709921D01*
X82114284Y-86467003D01*
X81970838Y-86238711D01*
X81802734Y-86027915D01*
X81612085Y-85837266D01*
X81401289Y-85669162D01*
X81172997Y-85525716D01*
X81172994Y-85525714D01*
X80930082Y-85408734D01*
X80675602Y-85319687D01*
X80675594Y-85319684D01*
X80478446Y-85274687D01*
X80412732Y-85259688D01*
X80412728Y-85259687D01*
X80412719Y-85259686D01*
X80144813Y-85229500D01*
X80144809Y-85229500D01*
X79875191Y-85229500D01*
X79875186Y-85229500D01*
X79607280Y-85259686D01*
X79607268Y-85259688D01*
X79344405Y-85319684D01*
X79344397Y-85319687D01*
X79089917Y-85408734D01*
X78847005Y-85525714D01*
X78618712Y-85669161D01*
X78407915Y-85837265D01*
X78217265Y-86027915D01*
X78049161Y-86238712D01*
X77905714Y-86467005D01*
X77788734Y-86709917D01*
X77699687Y-86964397D01*
X77699684Y-86964405D01*
X77639688Y-87227268D01*
X77639686Y-87227280D01*
X77609500Y-87495186D01*
X60447436Y-87495186D01*
X60445788Y-87490476D01*
X60349815Y-87337737D01*
X60222262Y-87210184D01*
X60069523Y-87114211D01*
X59899254Y-87054631D01*
X59899249Y-87054630D01*
X59764960Y-87039500D01*
X59764954Y-87039500D01*
X57075046Y-87039500D01*
X57075039Y-87039500D01*
X56940750Y-87054630D01*
X56940745Y-87054631D01*
X56770476Y-87114211D01*
X56617737Y-87210184D01*
X56490184Y-87337737D01*
X56394211Y-87490476D01*
X56334631Y-87660745D01*
X56334630Y-87660750D01*
X56319500Y-87795039D01*
X56319500Y-90484960D01*
X56334630Y-90619249D01*
X56334631Y-90619254D01*
X56394211Y-90789523D01*
X56426059Y-90840208D01*
X56490184Y-90942262D01*
X56617738Y-91069816D01*
X56770478Y-91165789D01*
X56940745Y-91225368D01*
X56940750Y-91225369D01*
X57031246Y-91235565D01*
X57075040Y-91240499D01*
X57075043Y-91240500D01*
X57075046Y-91240500D01*
X59764957Y-91240500D01*
X59764958Y-91240499D01*
X59832104Y-91232934D01*
X59899249Y-91225369D01*
X59899252Y-91225368D01*
X59899255Y-91225368D01*
X60069522Y-91165789D01*
X60222262Y-91069816D01*
X60349816Y-90942262D01*
X60445789Y-90789522D01*
X60505368Y-90619255D01*
X60505369Y-90619249D01*
X60513102Y-90550617D01*
X60540168Y-90486203D01*
X60597763Y-90446648D01*
X60636322Y-90440500D01*
X68949953Y-90440500D01*
X69016992Y-90460185D01*
X69037634Y-90476819D01*
X69756902Y-91196087D01*
X69790387Y-91257410D01*
X69791695Y-91303161D01*
X69789500Y-91317023D01*
X69789500Y-91562970D01*
X69827974Y-91805887D01*
X69903972Y-92039789D01*
X69903973Y-92039792D01*
X70015632Y-92258932D01*
X70160185Y-92457894D01*
X70160189Y-92457899D01*
X70324609Y-92622319D01*
X70358094Y-92683642D01*
X70353110Y-92753334D01*
X70324609Y-92797681D01*
X70319109Y-92803181D01*
X70257786Y-92836666D01*
X70231428Y-92839500D01*
X60133385Y-92839500D01*
X60066346Y-92819815D01*
X60042762Y-92800137D01*
X59958579Y-92710000D01*
X59857053Y-92601292D01*
X59634147Y-92419945D01*
X59634146Y-92419944D01*
X59388617Y-92270634D01*
X59125063Y-92156158D01*
X59125061Y-92156157D01*
X59125058Y-92156156D01*
X58995578Y-92119877D01*
X58848364Y-92078630D01*
X58848359Y-92078629D01*
X58848358Y-92078629D01*
X58706018Y-92059064D01*
X58563679Y-92039500D01*
X58563678Y-92039500D01*
X58276322Y-92039500D01*
X58276321Y-92039500D01*
X57991642Y-92078629D01*
X57991635Y-92078630D01*
X57783861Y-92136845D01*
X57714942Y-92156156D01*
X57714939Y-92156156D01*
X57714936Y-92156158D01*
X57714935Y-92156158D01*
X57451382Y-92270634D01*
X57205853Y-92419944D01*
X56982950Y-92601289D01*
X56786812Y-92811299D01*
X56621098Y-93046064D01*
X56488894Y-93301206D01*
X56392667Y-93571962D01*
X56392666Y-93571965D01*
X56334201Y-93853319D01*
X56314592Y-94140000D01*
X51300500Y-94140000D01*
X51300500Y-84444500D01*
X51320185Y-84377461D01*
X51372989Y-84331706D01*
X51424500Y-84320500D01*
X141615500Y-84320500D01*
X141682539Y-84340185D01*
G37*
%TD.AperFunction*%
%TD*%
M02*
